<svg xmlns="http://www.w3.org/2000/svg" viewBox="0 0 238.48 42"><defs><style>.cls-1{isolation:isolate;}.cls-2{fill:none;}.cls-3{fill:#fff;}</style></defs><g id="Layer_2" data-name="Layer 2"><g id="Layer_1-2" data-name="Layer 1"><g id="Royalty_Free_NFT" data-name="Royalty Free NFT" class="cls-1"><g class="cls-1"><path d="M59.31,24v6H56V14.3h4.57a7.8,7.8,0,0,1,4.74,1.16A4.18,4.18,0,0,1,66.83,19a4.19,4.19,0,0,1-.77,2.47,5,5,0,0,1-2.16,1.69q3.56,5.3,4.62,6.84H64.83l-3.75-6Zm0-2.7h1.07a4.11,4.11,0,0,0,2.33-.53,1.87,1.87,0,0,0,.75-1.65,1.71,1.71,0,0,0-.76-1.59A4.63,4.63,0,0,0,60.32,17h-1Z"/><path d="M81.16,24a6.46,6.46,0,0,1-1.55,4.59,5.63,5.63,0,0,1-4.31,1.66,6.08,6.08,0,0,1-3-.76,5,5,0,0,1-2-2.18A7.34,7.34,0,0,1,69.51,24a6.38,6.38,0,0,1,1.54-4.57,5.63,5.63,0,0,1,4.32-1.64,6.08,6.08,0,0,1,3,.76,5.05,5.05,0,0,1,2,2.16A7.22,7.22,0,0,1,81.16,24Zm-8.31,0a5.05,5.05,0,0,0,.59,2.7,2.44,2.44,0,0,0,3.79,0A5.18,5.18,0,0,0,77.8,24a4.92,4.92,0,0,0-.58-2.67,2.47,2.47,0,0,0-3.79,0A5,5,0,0,0,72.85,24Z"/><path d="M82.14,18h3.59L88,24.75a10,10,0,0,1,.4,2.08h.06a9.15,9.15,0,0,1,.46-2.08L91.15,18h3.51L89.58,31.54a5.9,5.9,0,0,1-2,2.81,5.09,5.09,0,0,1-3,.94,7.68,7.68,0,0,1-1.66-.19V32.5a5.21,5.21,0,0,0,1.29.14,2.31,2.31,0,0,0,1.52-.53,3.43,3.43,0,0,0,1-1.6l.19-.6Z"/><path d="M104,30l-.64-1.63h-.08a4.92,4.92,0,0,1-1.71,1.44,5.44,5.44,0,0,1-2.28.41,3.68,3.68,0,0,1-2.72-1,3.78,3.78,0,0,1-1-2.82,3.19,3.19,0,0,1,1.34-2.82,7.76,7.76,0,0,1,4-1l2.09-.07V22a1.63,1.63,0,0,0-1.87-1.83,8.48,8.48,0,0,0-3.38.87L96.7,18.83a9.67,9.67,0,0,1,4.6-1.09A5.67,5.67,0,0,1,105,18.8a3.87,3.87,0,0,1,1.29,3.2v8Zm-1-5.56-1.27,0a4.16,4.16,0,0,0-2.13.51A1.64,1.64,0,0,0,99,26.43c0,.93.53,1.39,1.59,1.39a2.53,2.53,0,0,0,1.82-.66,2.3,2.3,0,0,0,.68-1.74Z"/><path d="M112.94,30h-3.27V13.29h3.27Z"/><path d="M121.44,27.6a7.08,7.08,0,0,0,2.06-.37v2.44a7.43,7.43,0,0,1-3,.55,3.69,3.69,0,0,1-2.86-1,4.3,4.3,0,0,1-.9-3V20.45h-1.56V19.06L117,18l1-2.54H120V18h3.36v2.46H120v5.79a1.27,1.27,0,0,0,.39,1A1.56,1.56,0,0,0,121.44,27.6Z"/><path d="M124.21,18h3.59l2.27,6.76a9.4,9.4,0,0,1,.39,2.08h.07a9.15,9.15,0,0,1,.46-2.08L133.21,18h3.52l-5.09,13.55a5.83,5.83,0,0,1-2,2.81,5,5,0,0,1-3,.94A7.77,7.77,0,0,1,125,35.1V32.5a5.32,5.32,0,0,0,1.29.14,2.29,2.29,0,0,0,1.52-.53,3.52,3.52,0,0,0,1-1.6l.19-.6Z"/><path d="M147.69,30h-3.27V14.3h9V17h-5.73v4.05H153v2.72h-5.33Z"/><path d="M162.94,17.76a5.51,5.51,0,0,1,1.1.1l-.24,3.07a3.91,3.91,0,0,0-1-.1,3.44,3.44,0,0,0-2.44.8,2.9,2.9,0,0,0-.88,2.26V30h-3.28V18h2.48l.49,2h.16a4.46,4.46,0,0,1,1.51-1.63A3.72,3.72,0,0,1,162.94,17.76Z"/><path d="M171.66,30.22a6.18,6.18,0,0,1-4.53-1.61,6,6,0,0,1-1.64-4.53A6.71,6.71,0,0,1,167,19.41a5.39,5.39,0,0,1,4.18-1.65,5.29,5.29,0,0,1,4,1.46,5.49,5.49,0,0,1,1.42,4v1.59h-7.75a3.15,3.15,0,0,0,.83,2.18,2.92,2.92,0,0,0,2.17.79,9,9,0,0,0,2.05-.23,10,10,0,0,0,2-.72v2.54A8,8,0,0,1,174,30,12.21,12.21,0,0,1,171.66,30.22ZM171.2,20.1a2.1,2.1,0,0,0-1.64.66,3,3,0,0,0-.67,1.87h4.59a2.69,2.69,0,0,0-.63-1.87A2.15,2.15,0,0,0,171.2,20.1Z"/><path d="M184.66,30.22a6.2,6.2,0,0,1-4.54-1.61,6,6,0,0,1-1.63-4.53A6.66,6.66,0,0,1,180,19.41a5.38,5.38,0,0,1,4.17-1.65,5.3,5.3,0,0,1,4,1.46,5.49,5.49,0,0,1,1.42,4v1.59h-7.75a3.15,3.15,0,0,0,.83,2.18,2.92,2.92,0,0,0,2.17.79,9.07,9.07,0,0,0,2.05-.23,10.27,10.27,0,0,0,2-.72v2.54A8,8,0,0,1,187,30,12.21,12.21,0,0,1,184.66,30.22Zm-.47-10.12a2.09,2.09,0,0,0-1.63.66,3,3,0,0,0-.67,1.87h4.59a2.69,2.69,0,0,0-.63-1.87A2.15,2.15,0,0,0,184.19,20.1Z"/><path d="M212.12,30h-4.23l-6.83-11.88H201c.14,2.1.21,3.59.21,4.49V30h-3V14.3h4.2l6.82,11.76h.08c-.11-2-.16-3.49-.16-4.33V14.3h3Z"/><path d="M219.35,30h-3.27V14.3h9V17h-5.73v4.05h5.33v2.72h-5.33Z"/><path d="M234.21,30h-3.33V17.07h-4.26V14.3h11.86v2.77h-4.27Z"/></g></g><g id="Group_1" data-name="Group 1"><g id="Rectangle_1" data-name="Rectangle 1"><rect width="42" height="42" rx="8"/></g><g id="Ellipse_1" data-name="Ellipse 1"><circle class="cls-2" cx="21.5" cy="21.5" r="14.5"/><path class="cls-3" d="M21.5,36A14.5,14.5,0,1,1,36,21.5,14.52,14.52,0,0,1,21.5,36Zm0-26A11.5,11.5,0,1,0,33,21.5,11.51,11.51,0,0,0,21.5,10Z"/></g><g id="Ellipse_2" data-name="Ellipse 2"><circle class="cls-3" cx="8" cy="21" r="4"/></g></g></g></g></svg>