<?xml version="1.0" encoding="utf-8"?>
<!-- Generator: Adobe Illustrator 25.3.1, SVG Export Plug-In . SVG Version: 6.00 Build 0)  -->
<svg version="1.1" id="Layer_1" xmlns="http://www.w3.org/2000/svg" xmlns:xlink="http://www.w3.org/1999/xlink" x="0px" y="0px"
	 viewBox="0 0 238.5 42" style="enable-background:new 0 0 238.5 42;" xml:space="preserve">
<style type="text/css">
	.st0{fill:#A0AEC0;}
	.st1{fill:none;}
	.st2{fill:#FFFFFF;}
</style>
<g id="Layer_1-2">
	<g id="Royalty_Free_NFT">
		<g>
			<path class="st0" d="M59.3,24v6H56V14.3h4.6c1.7-0.1,3.3,0.3,4.7,1.2c1.1,0.9,1.6,2.2,1.5,3.5c0,0.9-0.3,1.7-0.8,2.5
				c-0.5,0.8-1.3,1.3-2.2,1.7c2.4,3.5,3.9,5.8,4.6,6.8h-3.7l-3.8-6H59.3z M59.3,21.3h1.1c0.8,0.1,1.6-0.1,2.3-0.5
				c0.5-0.4,0.8-1,0.8-1.6c0.1-0.6-0.2-1.2-0.8-1.6C62,17.1,61.1,17,60.3,17h-1L59.3,21.3z"/>
			<path class="st0" d="M81.2,24c0.1,1.7-0.5,3.3-1.6,4.6c-1.1,1.1-2.7,1.7-4.3,1.7c-1,0-2.1-0.3-3-0.8c-0.9-0.5-1.6-1.3-2-2.2
				c-0.5-1-0.8-2.2-0.8-3.3c-0.1-1.7,0.4-3.3,1.5-4.6c1.1-1.1,2.7-1.7,4.3-1.6c1,0,2.1,0.3,3,0.8c0.9,0.5,1.6,1.3,2,2.2
				C80.9,21.7,81.2,22.9,81.2,24z M72.9,24c-0.1,0.9,0.1,1.9,0.6,2.7c0.8,1,2.4,1.2,3.4,0.4c0.1-0.1,0.3-0.2,0.4-0.4
				c0.4-0.8,0.6-1.8,0.6-2.7c0.1-0.9-0.1-1.9-0.6-2.7c-0.9-1-2.4-1.2-3.5-0.3c-0.1,0.1-0.2,0.2-0.3,0.3C73,22.1,72.8,23.1,72.9,24z"
				/>
			<path class="st0" d="M82.1,18h3.6l2.3,6.8c0.2,0.7,0.3,1.4,0.4,2.1h0.1c0.1-0.7,0.2-1.4,0.5-2.1l2.2-6.8h3.5l-5.1,13.5
				c-0.4,1.1-1.1,2.1-2,2.8c-0.9,0.6-1.9,1-3,0.9c-0.6,0-1.1-0.1-1.7-0.2v-2.6c0.4,0.1,0.9,0.1,1.3,0.1c0.6,0,1.1-0.2,1.5-0.5
				c0.5-0.4,0.8-1,1-1.6l0.2-0.6L82.1,18z"/>
			<path class="st0" d="M104,30l-0.6-1.6h-0.1c-0.5,0.6-1,1.1-1.7,1.4c-0.7,0.3-1.5,0.4-2.3,0.4c-1,0.1-2-0.3-2.7-1
				c-0.7-0.8-1.1-1.8-1-2.8c-0.1-1.1,0.4-2.2,1.3-2.8c1.2-0.7,2.6-1,4-1l2.1-0.1V22c0.1-0.9-0.5-1.7-1.4-1.8c-0.2,0-0.3,0-0.5,0
				c-1.2,0.1-2.3,0.3-3.4,0.9l-1-2.2c1.4-0.7,3-1.1,4.6-1.1c1.3-0.1,2.6,0.3,3.7,1.1c0.9,0.8,1.4,2,1.3,3.2v8H104z M103,24.4h-1.3
				c-0.7,0-1.5,0.2-2.1,0.5c-0.4,0.4-0.7,0.9-0.6,1.5c0,0.9,0.5,1.4,1.6,1.4c0.7,0,1.3-0.2,1.8-0.7c0.5-0.5,0.7-1.1,0.7-1.7
				L103,24.4z"/>
			<path class="st0" d="M112.9,30h-3.3V13.3h3.3V30z"/>
			<path class="st0" d="M121.4,27.6c0.7,0,1.4-0.1,2.1-0.4v2.4c-1,0.4-2,0.6-3,0.5c-1.1,0.1-2.1-0.3-2.9-1c-0.7-0.9-1-1.9-0.9-3
				v-5.8h-1.6v-1.4L117,18l1-2.5h2V18h3.4v2.5H120v5.8c0,0.4,0.1,0.7,0.4,1C120.7,27.5,121.1,27.6,121.4,27.6z"/>
			<path class="st0" d="M124.2,18h3.6l2.3,6.8c0.2,0.7,0.3,1.4,0.4,2.1h0.1c0.1-0.7,0.2-1.4,0.5-2.1l2.2-6.8h3.5l-5.1,13.5
				c-0.4,1.1-1.1,2.1-2,2.8c-0.9,0.6-1.9,1-3,0.9c-0.6,0-1.1-0.1-1.6-0.2v-2.6c0.4,0.1,0.9,0.1,1.3,0.1c0.6,0,1.1-0.2,1.5-0.5
				c0.5-0.4,0.8-1,1-1.6l0.2-0.6L124.2,18z"/>
			<path class="st0" d="M147.7,30h-3.3V14.3h9V17h-5.7v4h5.3v2.7h-5.3L147.7,30z"/>
			<path class="st0" d="M162.9,17.8c0.4,0,0.7,0,1.1,0.1l-0.2,3.1c-0.3-0.1-0.7-0.1-1-0.1c-0.9-0.1-1.8,0.2-2.4,0.8
				c-0.6,0.6-0.9,1.4-0.9,2.3V30h-3.3V18h2.5l0.5,2h0.2c0.4-0.7,0.9-1.2,1.5-1.6C161.5,18,162.2,17.7,162.9,17.8z"/>
			<path class="st0" d="M171.7,30.2c-1.7,0.1-3.3-0.5-4.5-1.6c-1.2-1.2-1.8-2.9-1.6-4.5c-0.1-1.7,0.4-3.4,1.5-4.7
				c1.1-1.1,2.6-1.7,4.2-1.6c1.5-0.1,2.9,0.4,4,1.5c1,1.1,1.5,2.5,1.4,4v1.6h-7.8c0,0.8,0.3,1.6,0.8,2.2c0.6,0.6,1.4,0.8,2.2,0.8
				c0.7,0,1.4-0.1,2.1-0.2c0.7-0.2,1.4-0.4,2-0.7v2.5c-0.6,0.3-1.2,0.5-1.9,0.6C173.2,30.1,172.4,30.2,171.7,30.2z M171.2,20.1
				c-0.6,0-1.2,0.2-1.6,0.7c-0.4,0.5-0.7,1.2-0.7,1.9h4.6c0-0.7-0.2-1.3-0.6-1.9C172.4,20.3,171.8,20.1,171.2,20.1z"/>
			<path class="st0" d="M184.7,30.2c-1.7,0.1-3.3-0.5-4.5-1.6c-1.2-1.2-1.7-2.9-1.6-4.5c-0.1-1.7,0.4-3.4,1.5-4.7
				c1.1-1.1,2.6-1.7,4.2-1.6c1.5-0.1,2.9,0.4,4,1.5c1,1.1,1.5,2.5,1.4,4v1.6h-7.8c0,0.8,0.3,1.6,0.8,2.2c0.6,0.6,1.4,0.8,2.2,0.8
				c0.7,0,1.4-0.1,2.1-0.2c0.7-0.2,1.4-0.4,2-0.7v2.5c-0.6,0.3-1.2,0.5-1.9,0.6C186.2,30.1,185.4,30.2,184.7,30.2z M184.2,20.1
				c-0.6,0-1.2,0.2-1.6,0.7c-0.4,0.5-0.7,1.2-0.7,1.9h4.6c0-0.7-0.2-1.3-0.6-1.9C185.4,20.3,184.8,20.1,184.2,20.1z"/>
			<path class="st0" d="M212.1,30h-4.2l-6.8-11.9H201c0.1,2.1,0.2,3.6,0.2,4.5V30h-3V14.3h4.2l6.8,11.8h0.1c-0.1-2-0.2-3.5-0.2-4.3
				v-7.4h3L212.1,30z"/>
			<path class="st0" d="M219.4,30h-3.3V14.3h9V17h-5.7v4h5.3v2.7h-5.3V30z"/>
			<path class="st0" d="M234.2,30h-3.3V17.1h-4.3v-2.8h11.9v2.8h-4.3V30z"/>
		</g>
	</g>
	<g id="Group_1">
		<g id="Rectangle_1">
			<path class="st0" d="M8,0h26c4.4,0,8,3.6,8,8v26c0,4.4-3.6,8-8,8H8c-4.4,0-8-3.6-8-8V8C0,3.6,3.6,0,8,0z"/>
		</g>
		<g id="Ellipse_1">
			<circle class="st1" cx="21.5" cy="21.5" r="14.5"/>
			<path class="st2" d="M21.5,36C13.5,36,7,29.5,7,21.5S13.5,7,21.5,7S36,13.5,36,21.5C36,29.5,29.5,36,21.5,36z M21.5,10
				C15.1,10,10,15.1,10,21.5S15.1,33,21.5,33S33,27.9,33,21.5C33,15.2,27.8,10,21.5,10z"/>
		</g>
		<g id="Ellipse_2">
			<circle class="st2" cx="8" cy="21" r="4"/>
		</g>
	</g>
</g>
</svg>
