<svg xmlns="http://www.w3.org/2000/svg" viewBox="0 0 298 298"><defs><style>.cls-1{fill:#fff;}.cls-2{fill:#002545;}</style></defs><g id="Layer_2" data-name="Layer 2"><g id="Layer_1-2" data-name="Layer 1"><rect class="cls-1" width="298" height="298"/><g id="Group_233" data-name="Group 233"><g id="Group_83" data-name="Group 83"><path id="Path_106" data-name="Path 106" class="cls-2" d="M131,254.21h0a1,1,0,0,1-1-1.07l.38-13.6a1,1,0,0,1,1-1h0a1,1,0,0,1,1,1.07L132,253.2A1,1,0,0,1,131,254.21Z"/></g><g id="Group_84" data-name="Group 84"><path id="Path_107" data-name="Path 107" class="cls-2" d="M98,142.84a1,1,0,0,1-1-.82l-1-4.6a1,1,0,0,1,2-.44h0l1,4.6a1.05,1.05,0,0,1-.8,1.24h0Z"/></g><g id="Group_85" data-name="Group 85"><path id="Path_108" data-name="Path 108" class="cls-2" d="M61.58,267.29a1,1,0,0,1-1-.69L59,262.17a1,1,0,1,1,1.95-.72v0l1.57,4.43a1,1,0,0,1-1,1.39Z"/></g><g id="Group_86" data-name="Group 86"><path id="Path_109" data-name="Path 109" class="cls-2" d="M184.46,200.43a1.26,1.26,0,0,1-.33-.05l-8.3-2.74a1,1,0,1,1,.65-2l8.3,2.73a1,1,0,0,1-.32,2Z"/></g><g id="Group_87" data-name="Group 87"><path id="Path_110" data-name="Path 110" class="cls-2" d="M258.77,168.81a1,1,0,0,1-.6-.2l-3.7-2.63a1,1,0,1,1,1.18-1.71l0,0,3.7,2.63a1,1,0,0,1,.25,1.45,1.06,1.06,0,0,1-.85.44Z"/></g><g id="Group_88" data-name="Group 88"><path id="Path_111" data-name="Path 111" class="cls-2" d="M289.49,129.24a1,1,0,0,1-.95-.62l-1.63-3.73a1,1,0,1,1,1.91-.83l1.62,3.73a1,1,0,0,1-.53,1.37.88.88,0,0,1-.42.08Z"/></g><g id="Group_89" data-name="Group 89"><path id="Path_112" data-name="Path 112" class="cls-2" d="M215.64,12.87a1,1,0,0,1-.54-.16l-5.3-3.27a1,1,0,1,1,1.07-1.79l0,0L216.19,11a1,1,0,0,1,.34,1.43,1.06,1.06,0,0,1-.89.49Z"/></g><g id="Group_90" data-name="Group 90"><path id="Path_113" data-name="Path 113" class="cls-2" d="M155.87,152.3a1,1,0,0,1-1-1,1,1,0,0,1,.57-.93l3.94-2a1,1,0,0,1,1.39.47,1.05,1.05,0,0,1-.46,1.39l-3.94,2A1,1,0,0,1,155.87,152.3Z"/></g><g id="Group_91" data-name="Group 91"><path id="Path_114" data-name="Path 114" class="cls-2" d="M43.05,162.55a1,1,0,0,1-1-1,1.12,1.12,0,0,1,.15-.54l5.56-9.08A1,1,0,1,1,49.49,153l-5.55,9.09A1.06,1.06,0,0,1,43.05,162.55Z"/></g><g id="Group_92" data-name="Group 92"><path id="Path_115" data-name="Path 115" class="cls-2" d="M44.46,12.9a1,1,0,1,1-.07-2.08L60,9.7a1,1,0,0,1,.15,2.08L44.53,12.9Z"/></g><g id="Group_93" data-name="Group 93"><path id="Path_116" data-name="Path 116" class="cls-2" d="M266.16,119.33a1.08,1.08,0,0,1-.87-.46l-2.56-3.81a1,1,0,1,1,1.72-1.16h0l2.57,3.81a1,1,0,0,1-.28,1.44A1.13,1.13,0,0,1,266.16,119.33Z"/></g><g id="Group_94" data-name="Group 94"><path id="Path_117" data-name="Path 117" class="cls-2" d="M119.26,129.55a1,1,0,0,1-.71-1.79l2-1.87A1.05,1.05,0,0,1,122,126a1,1,0,0,1,0,1.46l-2,1.86A1,1,0,0,1,119.26,129.55Z"/></g><g id="Group_95" data-name="Group 95"><path id="Path_118" data-name="Path 118" class="cls-2" d="M264.37,70.36a1,1,0,0,1-1-1,1,1,0,0,1,0-.24l.82-3.42a1,1,0,0,1,2,.46v0l-.82,3.42A1,1,0,0,1,264.37,70.36Z"/></g><g id="Group_96" data-name="Group 96"><path id="Path_119" data-name="Path 119" class="cls-2" d="M74,197.5a1.07,1.07,0,0,1-.52-.14l-2.75-1.57a1,1,0,0,1,1-1.81l2.75,1.58A1,1,0,0,1,74,197.5Z"/></g><g id="Group_97" data-name="Group 97"><path id="Path_120" data-name="Path 120" class="cls-2" d="M276,136.56h-.13l-2.76-.34a1,1,0,0,1-.89-1.16,1,1,0,0,1,1.15-.9l2.75.34a1,1,0,0,1-.12,2.07Z"/></g><g id="Group_98" data-name="Group 98"><path id="Path_121" data-name="Path 121" class="cls-2" d="M235.21,153.2a1.06,1.06,0,0,1-.58-.17l-8.36-5.61a1,1,0,1,1,1.15-1.73h0l8.36,5.6a1,1,0,0,1,.28,1.44A1,1,0,0,1,235.21,153.2Z"/></g><g id="Group_99" data-name="Group 99"><path id="Path_122" data-name="Path 122" class="cls-2" d="M137.87,14.42a1,1,0,0,1-.48-2l7-3.61a1,1,0,0,1,1.4.45,1,1,0,0,1-.44,1.4h0l-7,3.61A1.16,1.16,0,0,1,137.87,14.42Z"/></g><g id="Group_100" data-name="Group 100"><path id="Path_123" data-name="Path 123" class="cls-2" d="M202.8,114.68a1.42,1.42,0,0,1-.4-.08l-5.88-2.45a1,1,0,0,1,.8-1.92l5.88,2.45a1,1,0,0,1,.56,1.35A1,1,0,0,1,202.8,114.68Z"/></g><g id="Group_101" data-name="Group 101"><path id="Path_124" data-name="Path 124" class="cls-2" d="M121.75,22.94a1,1,0,0,1-.92-.56l-6-11.54a1,1,0,0,1,1.84-1l6,11.54a1,1,0,0,1-.44,1.4A1,1,0,0,1,121.75,22.94Z"/></g><g id="Group_102" data-name="Group 102"><path id="Path_125" data-name="Path 125" class="cls-2" d="M137.91,142.58a1,1,0,0,1-1-1l-.17-3.81a1,1,0,0,1,2.08-.1l.17,3.82a1,1,0,0,1-1,1.08Z"/></g><g id="Group_103" data-name="Group 103"><path id="Path_126" data-name="Path 126" class="cls-2" d="M232.08,14.64a1,1,0,0,1-1-1,1,1,0,0,1,.13-.5l2-3.62a1,1,0,1,1,1.82,1l-2,3.62A1,1,0,0,1,232.08,14.64Z"/></g><g id="Group_104" data-name="Group 104"><path id="Path_127" data-name="Path 127" class="cls-2" d="M261.24,265.87a1,1,0,0,1-1-.9l-1.07-7.89a1,1,0,0,1,2.06-.28l1.07,7.89a1,1,0,0,1-.89,1.17h-.14Z"/></g><g id="Group_105" data-name="Group 105"><path id="Path_128" data-name="Path 128" class="cls-2" d="M218.43,232.78a1,1,0,0,1-1-.78l-1.12-4.4a1,1,0,1,1,2-.58.14.14,0,0,1,0,.06l1.12,4.4a1,1,0,0,1-.75,1.27A1.07,1.07,0,0,1,218.43,232.78Z"/></g><g id="Group_106" data-name="Group 106"><path id="Path_129" data-name="Path 129" class="cls-2" d="M83.89,248.14a1,1,0,0,1-.84-1.65l9.3-12.74a1,1,0,0,1,1.44-.28,1,1,0,0,1,.28,1.45l0,.05-9.3,12.75A1,1,0,0,1,83.89,248.14Z"/></g><g id="Group_107" data-name="Group 107"><path id="Path_130" data-name="Path 130" class="cls-2" d="M252.34,20.36a1,1,0,0,1-1-1,.55.55,0,0,1,0-.18l1.4-8.13a1,1,0,0,1,2.05.34v0l-1.41,8.13A1,1,0,0,1,252.34,20.36Z"/></g><g id="Group_108" data-name="Group 108"><path id="Path_131" data-name="Path 131" class="cls-2" d="M262.46,44.33a1,1,0,0,1-1-.86l-.86-4.77a1,1,0,0,1,2.05-.38h0l.86,4.77a1,1,0,0,1-.84,1.21Z"/></g><g id="Group_109" data-name="Group 109"><path id="Path_132" data-name="Path 132" class="cls-2" d="M83.18,276.68a1,1,0,0,1-1-.88L80,262a1,1,0,1,1,2-.32l2.15,13.83a1,1,0,0,1-.87,1.18h0Z"/></g><g id="Group_110" data-name="Group 110"><path id="Path_133" data-name="Path 133" class="cls-2" d="M9.9,221.26a1,1,0,0,1-1-1,1,1,0,0,1,.13-.51l1.82-3.3a1,1,0,0,1,1.42-.39,1,1,0,0,1,.4,1.39l-1.82,3.31A1,1,0,0,1,9.9,221.26Z"/></g><g id="Group_111" data-name="Group 111"><path id="Path_134" data-name="Path 134" class="cls-2" d="M279.29,84a1,1,0,0,1-.2-2l8.48-1.66a1,1,0,0,1,.4,2h0L279.49,84Z"/></g><g id="Group_112" data-name="Group 112"><path id="Path_135" data-name="Path 135" class="cls-2" d="M287.18,225.12a1,1,0,0,1-1-.87l-1.44-8.8a1,1,0,0,1,2.06-.34l1.43,8.8a1,1,0,0,1-.85,1.2h-.17Z"/></g><g id="Group_113" data-name="Group 113"><path id="Path_136" data-name="Path 136" class="cls-2" d="M174.92,111.56a1,1,0,0,1-1-1,1.06,1.06,0,0,1,.45-.86l2.6-1.82a1,1,0,1,1,1.19,1.71l-2.6,1.82A1.08,1.08,0,0,1,174.92,111.56Z"/></g><g id="Group_114" data-name="Group 114"><path id="Path_137" data-name="Path 137" class="cls-2" d="M153.47,34.7a1,1,0,0,1-.91-.53L151,31.32a1,1,0,1,1,1.79-1.06l0,0,1.6,2.85a1,1,0,0,1-.39,1.42A1,1,0,0,1,153.47,34.7Z"/></g><g id="Group_115" data-name="Group 115"><path id="Path_138" data-name="Path 138" class="cls-2" d="M101.57,117.54a1,1,0,0,1-1-1,1.07,1.07,0,0,1,.16-.55l4.49-7.27a1,1,0,0,1,1.77,1.1l-4.49,7.27A1.06,1.06,0,0,1,101.57,117.54Z"/></g><g id="Group_116" data-name="Group 116"><path id="Path_139" data-name="Path 139" class="cls-2" d="M237,267.87a1,1,0,0,1-.22-2.06l4.19-.92a1.05,1.05,0,0,1,1.26.77,1,1,0,0,1-.77,1.25h0l-4.2.92A.83.83,0,0,1,237,267.87Z"/></g><g id="Group_117" data-name="Group 117"><path id="Path_140" data-name="Path 140" class="cls-2" d="M119.73,152.06a1.07,1.07,0,0,1-.55-.16l-3.84-2.45a1,1,0,0,1-.29-1.44,1,1,0,0,1,1.4-.31l3.84,2.44a1,1,0,0,1-.56,1.92Z"/></g><g id="Group_118" data-name="Group 118"><path id="Path_141" data-name="Path 141" class="cls-2" d="M141.13,219.91a1,1,0,0,1-.28-2l10-2.74a1,1,0,0,1,.55,2l-10,2.73A.84.84,0,0,1,141.13,219.91Z"/></g><g id="Group_119" data-name="Group 119"><path id="Path_142" data-name="Path 142" class="cls-2" d="M12.57,124.28a1.06,1.06,0,0,1-.31,0l-3-.92A1.05,1.05,0,0,1,8.53,122a1,1,0,0,1,1.29-.71h0l3,.92a1,1,0,0,1-.3,2Z"/></g><g id="Group_120" data-name="Group 120"><path id="Path_143" data-name="Path 143" class="cls-2" d="M140.45,174.55a1,1,0,0,1-1-.64l-3.64-8.79a1,1,0,1,1,1.92-.8l3.63,8.79a1,1,0,0,1-.56,1.36A1.09,1.09,0,0,1,140.45,174.55Z"/></g><g id="Group_121" data-name="Group 121"><path id="Path_144" data-name="Path 144" class="cls-2" d="M287.31,195.36a1,1,0,0,1-.38-.07l-14-5.41a1,1,0,1,1,.76-1.94l14,5.42a1,1,0,0,1,.6,1.34,1.05,1.05,0,0,1-1,.67Z"/></g><g id="Group_122" data-name="Group 122"><path id="Path_145" data-name="Path 145" class="cls-2" d="M242.14,117.72a1,1,0,0,1-.52-1.94l2.39-1.39a1.05,1.05,0,0,1,1.41.44,1,1,0,0,1-.37,1.36l-2.39,1.39A1,1,0,0,1,242.14,117.72Z"/></g><g id="Group_123" data-name="Group 123"><path id="Path_146" data-name="Path 146" class="cls-2" d="M216.24,34.8a1,1,0,0,1-.89-.5l-3.43-5.66a1,1,0,0,1,1.75-1.12l0,.05,3.43,5.66a1,1,0,0,1-.35,1.42,1,1,0,0,1-.54.15Z"/></g><g id="Group_124" data-name="Group 124"><path id="Path_147" data-name="Path 147" class="cls-2" d="M8.51,167H8.4a1,1,0,0,1-.92-1.15l.31-3a1,1,0,0,1,2.08.16s0,0,0,.06l-.32,3A1,1,0,0,1,8.51,167Z"/></g><g id="Group_125" data-name="Group 125"><path id="Path_148" data-name="Path 148" class="cls-2" d="M278.52,245.44a1,1,0,0,1-.13-2.07l8.25-1.09a1,1,0,0,1,1.16.9,1,1,0,0,1-.89,1.16h0l-8.25,1.09Z"/></g><g id="Group_126" data-name="Group 126"><path id="Path_149" data-name="Path 149" class="cls-2" d="M78.74,150.92a1.06,1.06,0,0,1-.57-.17l-8.68-5.65a1,1,0,1,1,1.13-1.74h0L79.31,149a1,1,0,0,1,.3,1.44A1,1,0,0,1,78.74,150.92Z"/></g><g id="Group_127" data-name="Group 127"><path id="Path_150" data-name="Path 150" class="cls-2" d="M36.53,86a1,1,0,0,1-.38-.07L26.09,82a1,1,0,0,1,.71-2l.06,0,10.06,4a1,1,0,0,1-.39,2Z"/></g><g id="Group_128" data-name="Group 128"><path id="Path_151" data-name="Path 151" class="cls-2" d="M10.81,103.66h-.15a1,1,0,0,1-.88-1.18h0l.57-3.89a1,1,0,1,1,2.06.3h0l-.57,3.89A1.05,1.05,0,0,1,10.81,103.66Z"/></g><g id="Group_129" data-name="Group 129"><path id="Path_152" data-name="Path 152" class="cls-2" d="M65.35,288l-.28,0-5.8-1.59a1,1,0,0,1,.55-2h0l5.8,1.59a1,1,0,0,1-.27,2Z"/></g><g id="Group_130" data-name="Group 130"><path id="Path_153" data-name="Path 153" class="cls-2" d="M287.45,288.71a1,1,0,0,1-.91-.55L285,285.28a1,1,0,1,1,1.83-1l1.55,2.87a1,1,0,0,1-.43,1.41A1,1,0,0,1,287.45,288.71Z"/></g><g id="Group_131" data-name="Group 131"><path id="Path_154" data-name="Path 154" class="cls-2" d="M189.51,162.26a1.1,1.1,0,0,1-.71-.27l-7.8-7.18a1,1,0,1,1,1.37-1.56l0,0,7.8,7.18a1,1,0,0,1,.06,1.46,1,1,0,0,1-.76.34Z"/></g><g id="Group_132" data-name="Group 132"><path id="Path_155" data-name="Path 155" class="cls-2" d="M79.28,221.41h-.15a1,1,0,0,1-.88-1.18h0L79,215a1.05,1.05,0,0,1,1.17-.9,1,1,0,0,1,.89,1.17v0l-.79,5.22A1,1,0,0,1,79.28,221.41Z"/></g><g id="Group_133" data-name="Group 133"><path id="Path_156" data-name="Path 156" class="cls-2" d="M229.58,202.1a1,1,0,0,1-.16-2.07l2.84-.44a1,1,0,0,1,.32,2h0l-2.83.45Z"/></g><g id="Group_134" data-name="Group 134"><path id="Path_157" data-name="Path 157" class="cls-2" d="M25.72,174.56a1,1,0,0,1-1-1,1,1,0,0,1,.24-.66l2.24-2.73a1,1,0,0,1,1.61,1.32l-2.25,2.73A1,1,0,0,1,25.72,174.56Z"/></g><g id="Group_135" data-name="Group 135"><path id="Path_158" data-name="Path 158" class="cls-2" d="M286.8,63.51h-.11l-3.37-.36a1,1,0,0,1,.22-2.07l3.37.36a1,1,0,0,1-.11,2.07Z"/></g><g id="Group_136" data-name="Group 136"><path id="Path_159" data-name="Path 159" class="cls-2" d="M192.94,14.94a1,1,0,0,1-.93-.57l-2-4.09a1,1,0,1,1,1.86-.93l2,4.09a1,1,0,0,1-.93,1.5Z"/></g><g id="Group_137" data-name="Group 137"><path id="Path_160" data-name="Path 160" class="cls-2" d="M44.56,63.45a1,1,0,0,1-.3,0L32.74,59.89a1,1,0,0,1,.6-2h0l11.52,3.52a1.05,1.05,0,0,1,.7,1.3,1,1,0,0,1-1,.74Z"/></g><g id="Group_138" data-name="Group 138"><path id="Path_161" data-name="Path 161" class="cls-2" d="M284.8,109.77a1,1,0,0,1-1-1,.91.91,0,0,1,.05-.33l2.37-7.07a1,1,0,0,1,1.32-.66,1.06,1.06,0,0,1,.66,1.32h0l-2.37,7.07A1.07,1.07,0,0,1,284.8,109.77Z"/></g><g id="Group_139" data-name="Group 139"><path id="Path_162" data-name="Path 162" class="cls-2" d="M264.73,289.7a1,1,0,0,1-1-1,1.1,1.1,0,0,1,.16-.56l3.43-5.39a1,1,0,0,1,1.44-.3,1.05,1.05,0,0,1,.32,1.42l-3.43,5.39A1.06,1.06,0,0,1,264.73,289.7Z"/></g><g id="Group_140" data-name="Group 140"><path id="Path_163" data-name="Path 163" class="cls-2" d="M155.82,239.73a1.06,1.06,0,0,1-.79-.37l-4.15-4.83a1,1,0,0,1,1.57-1.35l4.16,4.83a1,1,0,0,1-.79,1.72Z"/></g><g id="Group_141" data-name="Group 141"><path id="Path_164" data-name="Path 164" class="cls-2" d="M13.8,144.16a1,1,0,0,1-.12-2.07l13-1.58a1,1,0,1,1,.25,2.06h0l-13,1.58Z"/></g><g id="Group_142" data-name="Group 142"><path id="Path_165" data-name="Path 165" class="cls-2" d="M207.09,94a1,1,0,0,1-1-.85l-1.54-8.24a1,1,0,1,1,2-.46.64.64,0,0,0,0,.07l1.53,8.25a1,1,0,0,1-.83,1.21A.58.58,0,0,1,207.09,94Z"/></g><g id="Group_143" data-name="Group 143"><path id="Path_166" data-name="Path 166" class="cls-2" d="M99.14,197.53a1.06,1.06,0,0,1-.68-.25l-7.41-6.49a1,1,0,0,1,1.35-1.58l0,0,7.41,6.48a1.05,1.05,0,0,1,.1,1.47A1,1,0,0,1,99.14,197.53Z"/></g><g id="Group_144" data-name="Group 144"><path id="Path_167" data-name="Path 167" class="cls-2" d="M216.61,259.21a1,1,0,0,1-1-1,1.07,1.07,0,0,1,.09-.43l3.58-8a1,1,0,0,1,1.38-.5,1,1,0,0,1,.51,1.35l-3.57,8A1,1,0,0,1,216.61,259.21Z"/></g><g id="Group_145" data-name="Group 145"><path id="Path_168" data-name="Path 168" class="cls-2" d="M171.13,64.35a1,1,0,0,1-1-.76l-4-13.72a1,1,0,0,1,2-.65.24.24,0,0,1,0,.08l4,13.72a1,1,0,0,1-.71,1.29h0A1.35,1.35,0,0,1,171.13,64.35Z"/></g><g id="Group_146" data-name="Group 146"><path id="Path_169" data-name="Path 169" class="cls-2" d="M72.79,176.77a1.05,1.05,0,0,1-.83-.41l-6.2-8.29a1,1,0,0,1,1.67-1.25h0l6.2,8.28a1,1,0,0,1-.21,1.46,1.07,1.07,0,0,1-.63.2Z"/></g><g id="Group_147" data-name="Group 147"><path id="Path_170" data-name="Path 170" class="cls-2" d="M9.52,81.16a1,1,0,0,1-1-1L8.07,70a1,1,0,0,1,1-1.08,1,1,0,0,1,1.08,1l.42,10.15a1,1,0,0,1-1,1.08Z"/></g><g id="Group_148" data-name="Group 148"><path id="Path_171" data-name="Path 171" class="cls-2" d="M193.32,183.19a1,1,0,0,1-.77-1.73l2.36-2.59a1,1,0,0,1,1.53,1.4l-2.35,2.58A1,1,0,0,1,193.32,183.19Z"/></g><g id="Group_149" data-name="Group 149"><path id="Path_172" data-name="Path 172" class="cls-2" d="M178.47,137.68a1,1,0,0,1-1-1,1.07,1.07,0,0,1,.06-.35l3.27-9.34a1,1,0,0,1,1.31-.67,1.05,1.05,0,0,1,.67,1.31s0,0,0,0L179.45,137A1,1,0,0,1,178.47,137.68Z"/></g><g id="Group_150" data-name="Group 150"><path id="Path_173" data-name="Path 173" class="cls-2" d="M242.38,180.89a.85.85,0,0,1-.39-.08l-12.23-5a1,1,0,1,1,.76-1.93h0l12.22,5a1,1,0,0,1-.39,2Z"/></g><g id="Group_151" data-name="Group 151"><path id="Path_174" data-name="Path 174" class="cls-2" d="M222.61,126.86a1,1,0,0,1-1-.9l-1-6.93a1.05,1.05,0,0,1,.89-1.17,1,1,0,0,1,1.17.89h0l1,6.93a1,1,0,0,1-.89,1.17h-.15Z"/></g><g id="Group_152" data-name="Group 152"><path id="Path_175" data-name="Path 175" class="cls-2" d="M63,93.42a1.07,1.07,0,0,1-.43-.09L51.91,88.56a1,1,0,0,1,.81-1.92l0,0,10.65,4.77a1,1,0,0,1-.42,2Z"/></g><g id="Group_153" data-name="Group 153"><path id="Path_176" data-name="Path 176" class="cls-2" d="M125.62,210.71a.75.75,0,0,1-.21,0,1,1,0,0,1-.81-1.22h0l2.5-12.41a1,1,0,0,1,2,.42l-2.5,12.41A1,1,0,0,1,125.62,210.71Z"/></g><g id="Group_154" data-name="Group 154"><path id="Path_177" data-name="Path 177" class="cls-2" d="M130.11,41.72a1,1,0,0,1-.36-2L134.4,38a1,1,0,1,1,.75,1.94h0l-4.65,1.71A1.53,1.53,0,0,1,130.11,41.72Z"/></g><g id="Group_155" data-name="Group 155"><path id="Path_178" data-name="Path 178" class="cls-2" d="M129.76,109.21a1,1,0,1,1,0-2.08l11.57-.09a1,1,0,0,1,1.05.95v.08a1.05,1.05,0,0,1-1,1.05h0l-11.57.09Z"/></g><g id="Group_156" data-name="Group 156"><path id="Path_179" data-name="Path 179" class="cls-2" d="M252.51,205.32a1.07,1.07,0,0,1-1-1.33h0l4.05-13.94a1,1,0,1,1,2,.58l-4,13.94A1,1,0,0,1,252.51,205.32Z"/></g><g id="Group_157" data-name="Group 157"><path id="Path_180" data-name="Path 180" class="cls-2" d="M238.35,246a1,1,0,0,1-.38-2l6.78-2.67a1,1,0,1,1,.81,1.91l-.05,0L238.73,246A.83.83,0,0,1,238.35,246Z"/></g><g id="Group_158" data-name="Group 158"><path id="Path_181" data-name="Path 181" class="cls-2" d="M195.37,70.68a1,1,0,0,1-.86-.46l-2-3a1,1,0,0,1,1.7-1.19l0,0,2,3A1,1,0,0,1,196,70.5a1,1,0,0,1-.58.18Z"/></g><g id="Group_159" data-name="Group 159"><path id="Path_182" data-name="Path 182" class="cls-2" d="M116.1,93a1,1,0,0,1-.91-.53l-5.85-10.39a1,1,0,0,1,.39-1.42,1,1,0,0,1,1.42.4L117,91.43a1,1,0,0,1-.39,1.42,1.14,1.14,0,0,1-.51.13Z"/></g><g id="Group_160" data-name="Group 160"><path id="Path_183" data-name="Path 183" class="cls-2" d="M170.74,178a1,1,0,0,1-.73-.29l-6.59-6.37a1,1,0,0,1,1.45-1.5l6.58,6.37a1,1,0,0,1-.72,1.79Z"/></g><g id="Group_161" data-name="Group 161"><path id="Path_184" data-name="Path 184" class="cls-2" d="M198.07,217.31a1,1,0,0,1-.66-1.84l9.32-7.78a1,1,0,0,1,1.33,1.59l-9.32,7.79A1,1,0,0,1,198.07,217.31Z"/></g><g id="Group_162" data-name="Group 162"><path id="Path_185" data-name="Path 185" class="cls-2" d="M65.51,243.71l-.19,0-4.48-.84a1,1,0,1,1,.38-2l4.48.83a1,1,0,0,1-.19,2.07Z"/></g><g id="Group_163" data-name="Group 163"><path id="Path_186" data-name="Path 186" class="cls-2" d="M115.49,268.17A1.05,1.05,0,0,1,115,268l-12.78-6.93a1,1,0,0,1,.93-1.86l.06,0L116,266.21a1,1,0,0,1-.5,2Z"/></g><g id="Group_164" data-name="Group 164"><path id="Path_187" data-name="Path 187" class="cls-2" d="M184.7,91.35a1,1,0,0,1-.67-.24l-6.25-5.2a1,1,0,1,1,1.28-1.64l.05,0,6.25,5.2a1,1,0,0,1,.13,1.47,1,1,0,0,1-.79.37Z"/></g><g id="Group_165" data-name="Group 165"><path id="Path_188" data-name="Path 188" class="cls-2" d="M289.31,152.27a1,1,0,0,1-1-.7l-1-2.8a1,1,0,0,1,2-.69l1,2.8a1,1,0,0,1-.63,1.33,1.07,1.07,0,0,1-.35.06Z"/></g><g id="Group_166" data-name="Group 166"><path id="Path_189" data-name="Path 189" class="cls-2" d="M61.41,48.9a1,1,0,0,1-1-.94L58.93,32.32A1,1,0,0,1,61,32.13l1.44,15.64a1,1,0,0,1-.93,1.13Z"/></g><g id="Group_167" data-name="Group 167"><path id="Path_190" data-name="Path 190" class="cls-2" d="M152.61,259.47a.81.81,0,0,1-.31-.05l-2.51-.8a1,1,0,1,1,.57-2h.06l2.51.8a1,1,0,0,1,.67,1.31,1,1,0,0,1-1,.72Z"/></g><g id="Group_168" data-name="Group 168"><path id="Path_191" data-name="Path 191" class="cls-2" d="M137.79,87.08a1,1,0,0,1-.7-.26L135,84.9a1,1,0,1,1,1.39-1.55l2.14,1.92a1,1,0,0,1,.08,1.47,1,1,0,0,1-.77.34Z"/></g><g id="Group_169" data-name="Group 169"><path id="Path_192" data-name="Path 192" class="cls-2" d="M213.38,166.09a1,1,0,0,1-.86-.46l-3.8-5.64a1,1,0,0,1,.3-1.44,1,1,0,0,1,1.42.28l3.8,5.64a1,1,0,0,1-.28,1.44A1,1,0,0,1,213.38,166.09Z"/></g><g id="Group_170" data-name="Group 170"><path id="Path_193" data-name="Path 193" class="cls-2" d="M284,45.91h-.06a1,1,0,0,1-1-1.1l.83-14.15a1.05,1.05,0,0,1,1.1-1,1,1,0,0,1,1,1.1L285,44.93A1,1,0,0,1,284,45.91Z"/></g><g id="Group_171" data-name="Group 171"><path id="Path_194" data-name="Path 194" class="cls-2" d="M172.28,29.53a1,1,0,0,1-.17-2.06L181,26a1,1,0,0,1,1.2.86,1,1,0,0,1-.86,1.19h0l-8.91,1.46Z"/></g><g id="Group_172" data-name="Group 172"><path id="Path_195" data-name="Path 195" class="cls-2" d="M199.29,242.13a1,1,0,0,1-.46-.1l-10.24-5a1,1,0,1,1,.91-1.87l10.25,5a1,1,0,0,1,.48,1.39,1,1,0,0,1-.94.58Z"/></g><g id="Group_173" data-name="Group 173"><path id="Path_196" data-name="Path 196" class="cls-2" d="M158.09,129.31a1,1,0,0,1-.78-.36l-5.67-6.52a1,1,0,0,1,1.57-1.36l5.67,6.51a1.05,1.05,0,0,1-.1,1.47A1,1,0,0,1,158.09,129.31Z"/></g><g id="Group_174" data-name="Group 174"><path id="Path_197" data-name="Path 197" class="cls-2" d="M213.66,190.19a1,1,0,0,1-1-1,1.15,1.15,0,0,1,0-.26l.84-3.27a1,1,0,0,1,2,.51l-.84,3.28A1,1,0,0,1,213.66,190.19Z"/></g><g id="Group_175" data-name="Group 175"><path id="Path_198" data-name="Path 198" class="cls-2" d="M59.47,224a1,1,0,0,1-1-.81l-3.15-14.3a1,1,0,0,1,2-.45l3.15,14.3a1,1,0,0,1-.79,1.24.82.82,0,0,1-.22,0Z"/></g><g id="Group_176" data-name="Group 176"><path id="Path_199" data-name="Path 199" class="cls-2" d="M123.35,287.82a1,1,0,0,1-1-1,1.05,1.05,0,0,1,.32-.75l6.08-5.75a1,1,0,1,1,1.45,1.49l0,0-6.08,5.75A1,1,0,0,1,123.35,287.82Z"/></g><g id="Group_177" data-name="Group 177"><path id="Path_200" data-name="Path 200" class="cls-2" d="M54.37,134.09a1.06,1.06,0,0,1-.76-.33l-7.94-8.47a1,1,0,0,1,1.52-1.43l7.94,8.48a1,1,0,0,1-.05,1.47A1,1,0,0,1,54.37,134.09Z"/></g><g id="Group_178" data-name="Group 178"><path id="Path_201" data-name="Path 201" class="cls-2" d="M240.83,221.51a.14.14,0,0,1-.09,0l-7.69-.64a1,1,0,0,1-1-1.12,1,1,0,0,1,1.11-.95h0l7.7.64a1,1,0,0,1-.09,2.08Z"/></g><g id="Group_179" data-name="Group 179"><path id="Path_202" data-name="Path 202" class="cls-2" d="M247.12,138.83a1,1,0,0,1-.27-2l7.55-2.06a1,1,0,0,1,.54,2l-7.54,2.06A1.33,1.33,0,0,1,247.12,138.83Z"/></g><g id="Group_180" data-name="Group 180"><path id="Path_203" data-name="Path 203" class="cls-2" d="M240.79,288.72a1,1,0,0,1-1-1,1.06,1.06,0,0,1,.55-.92l3.64-1.93a1,1,0,1,1,1,1.83l-3.64,1.94A1,1,0,0,1,240.79,288.72Z"/></g><g id="Group_181" data-name="Group 181"><path id="Path_204" data-name="Path 204" class="cls-2" d="M264.45,96.75a1.1,1.1,0,0,1-.44-.11l-14.63-7a1,1,0,1,1,.84-1.9l.05,0,14.63,7a1,1,0,0,1-.45,2Z"/></g><g id="Group_182" data-name="Group 182"><path id="Path_205" data-name="Path 205" class="cls-2" d="M194.38,267.49a1,1,0,0,1-1-1,1,1,0,0,1,.21-.63l3.85-5.05a1,1,0,1,1,1.66,1.24v0l-3.85,5.05A1,1,0,0,1,194.38,267.49Z"/></g><g id="Group_183" data-name="Group 183"><path id="Path_206" data-name="Path 206" class="cls-2" d="M243.47,68.06h-.1a1,1,0,0,1-.93-1.13l.64-7a1,1,0,0,1,1.16-.91,1,1,0,0,1,.91,1.1l-.64,7A1,1,0,0,1,243.47,68.06Z"/></g><g id="Group_184" data-name="Group 184"><path id="Path_207" data-name="Path 207" class="cls-2" d="M221.81,65.91a1,1,0,0,1-.8-.37l-8.25-9.82a1,1,0,0,1,.13-1.47,1,1,0,0,1,1.46.13l8.25,9.83a1,1,0,0,1-.12,1.46,1,1,0,0,1-.67.25Z"/></g><g id="Group_185" data-name="Group 185"><path id="Path_208" data-name="Path 208" class="cls-2" d="M29.2,112.38a1,1,0,0,1-.51-1.94l8.53-4.73a1,1,0,1,1,1,1.81l-8.52,4.73A1,1,0,0,1,29.2,112.38Z"/></g><g id="Group_186" data-name="Group 186"><path id="Path_209" data-name="Path 209" class="cls-2" d="M96.14,15.46a1,1,0,0,1-1-.87L94.18,9a1,1,0,1,1,2.06-.33l.93,5.61a1,1,0,0,1-.85,1.19Z"/></g><g id="Group_187" data-name="Group 187"><path id="Path_210" data-name="Path 210" class="cls-2" d="M50.85,188a1.05,1.05,0,0,1-.85-.43l-3.44-4.8a1,1,0,0,1,.22-1.46,1,1,0,0,1,1.45.22l0,0,3.44,4.8a1,1,0,0,1-.24,1.45A1.09,1.09,0,0,1,50.85,188Z"/></g><g id="Group_188" data-name="Group 188"><path id="Path_211" data-name="Path 211" class="cls-2" d="M284.76,268.09a1,1,0,0,1-1-.88l-.72-4.7a1,1,0,0,1,2.05-.32l.72,4.71a1,1,0,0,1-.87,1.18Z"/></g><g id="Group_189" data-name="Group 189"><path id="Path_212" data-name="Path 212" class="cls-2" d="M132,66.32a1,1,0,0,1-.39-2l13.81-5.49a1,1,0,0,1,1.35.58,1,1,0,0,1-.58,1.35h0l-13.81,5.5A1.22,1.22,0,0,1,132,66.32Z"/></g><g id="Group_190" data-name="Group 190"><path id="Path_213" data-name="Path 213" class="cls-2" d="M177.74,254.35a1.16,1.16,0,0,1-.42-.08l-7.46-3.3a1,1,0,1,1,.84-1.9h0l7.46,3.29a1,1,0,0,1,.53,1.37,1,1,0,0,1-.95.62Z"/></g><g id="Group_191" data-name="Group 191"><path id="Path_214" data-name="Path 214" class="cls-2" d="M261.21,232.55a1,1,0,0,1-.93-1.51l7.06-13.9a1,1,0,0,1,1.85.94L262.13,232A1,1,0,0,1,261.21,232.55Z"/></g><g id="Group_192" data-name="Group 192"><path id="Path_215" data-name="Path 215" class="cls-2" d="M91,289.48a1,1,0,0,1-1.07-1,1,1,0,0,1,1-1.07l12.5-.74a1,1,0,0,1,.13,2.08l-12.51.74Z"/></g><g id="Group_193" data-name="Group 193"><path id="Path_216" data-name="Path 216" class="cls-2" d="M80.66,55.76a1,1,0,0,1-.29-2l11.85-3.59a1,1,0,0,1,1.3.67,1,1,0,0,1-.67,1.31h0L81,55.72A1,1,0,0,1,80.66,55.76Z"/></g><g id="Group_194" data-name="Group 194"><path id="Path_217" data-name="Path 217" class="cls-2" d="M11.38,29.22a1.06,1.06,0,0,1-1-.86L7.53,12.46a1,1,0,0,1,2.05-.36L12.4,28a1,1,0,0,1-.84,1.21h0Z"/></g><g id="Group_195" data-name="Group 195"><path id="Path_218" data-name="Path 218" class="cls-2" d="M115,183.71a1,1,0,0,1-1-.87l-2.27-14.15a1,1,0,0,1,2.05-.33l2.27,14.15a1,1,0,0,1-.86,1.19H115Z"/></g><g id="Group_196" data-name="Group 196"><path id="Path_219" data-name="Path 219" class="cls-2" d="M205.25,139.7a1.26,1.26,0,0,1-.33,0L201,138.36a1,1,0,0,1-.69-1.3,1,1,0,0,1,1.29-.69h0l3.93,1.29a1,1,0,0,1-.32,2Z"/></g><g id="Group_197" data-name="Group 197"><path id="Path_220" data-name="Path 220" class="cls-2" d="M88.82,77.52a1,1,0,0,1-1-1,1,1,0,0,1,.58-.94l4.76-2.31A1,1,0,0,1,94,75.11l-4.76,2.31A1,1,0,0,1,88.82,77.52Z"/></g><g id="Group_198" data-name="Group 198"><path id="Path_221" data-name="Path 221" class="cls-2" d="M148.17,290.21h0a1,1,0,0,1-1-1.06l.39-15.27a1,1,0,0,1,1-1h.08a1,1,0,0,1,1,1.07h0l-.39,15.27A1,1,0,0,1,148.17,290.21Z"/></g><g id="Group_199" data-name="Group 199"><path id="Path_222" data-name="Path 222" class="cls-2" d="M107.1,37.23a1,1,0,0,1-.68-.26l-2-1.79a1,1,0,0,1,1.29-1.63l.08.07,2,1.8a1,1,0,0,1-.68,1.82Z"/></g><g id="Group_200" data-name="Group 200"><path id="Path_223" data-name="Path 223" class="cls-2" d="M36.81,290.53a1,1,0,0,1-.73-.3l-2.67-2.67a1,1,0,1,1,1.44-1.49l0,0,2.67,2.66a1.05,1.05,0,0,1,0,1.47,1,1,0,0,1-.74.31Z"/></g><g id="Group_201" data-name="Group 201"><path id="Path_224" data-name="Path 224" class="cls-2" d="M106,216.58l-.19,0-5.36-1a1,1,0,1,1,.37-2.05h0l5.37,1a1,1,0,0,1-.19,2.06Z"/></g><g id="Group_202" data-name="Group 202"><path id="Path_225" data-name="Path 225" class="cls-2" d="M218.34,287.72a1,1,0,0,1-1-1l-.59-9.9a1,1,0,0,1,1-1.1,1,1,0,0,1,1.1,1l.59,9.9a1,1,0,0,1-1,1.1Z"/></g><g id="Group_203" data-name="Group 203"><path id="Path_226" data-name="Path 226" class="cls-2" d="M14.71,256.37a1,1,0,0,1-1-.71L9.41,242.77a1,1,0,1,1,2-.66h0L15.7,255a1,1,0,0,1-.66,1.32,1.2,1.2,0,0,1-.33.05Z"/></g><g id="Group_204" data-name="Group 204"><path id="Path_227" data-name="Path 227" class="cls-2" d="M37.66,209a1,1,0,0,1-.71-.28l-11.55-11a1,1,0,0,1,1.43-1.51l11.54,11a1,1,0,0,1,0,1.47,1.05,1.05,0,0,1-.75.32Z"/></g><g id="Group_205" data-name="Group 205"><path id="Path_228" data-name="Path 228" class="cls-2" d="M165.11,11.73a1,1,0,0,1-.53-1.94l3.66-2.17a1,1,0,0,1,1.43.36,1,1,0,0,1-.37,1.42h0l-3.66,2.18A1,1,0,0,1,165.11,11.73Z"/></g><g id="Group_206" data-name="Group 206"><path id="Path_229" data-name="Path 229" class="cls-2" d="M32.12,38.44a1,1,0,0,1-.19-2.06l8.12-1.45a1,1,0,0,1,.36,2L32.3,38.43Z"/></g><g id="Group_207" data-name="Group 207"><path id="Path_230" data-name="Path 230" class="cls-2" d="M173.48,288.09a1,1,0,0,1-1-.9l-1.8-13.2a1,1,0,0,1,2.06-.33v0l1.8,13.2a1,1,0,0,1-.89,1.17h-.14Z"/></g><g id="Group_208" data-name="Group 208"><path id="Path_231" data-name="Path 231" class="cls-2" d="M28.41,14.71a1,1,0,0,1-.9-.51l-2.39-4.06a1,1,0,1,1,1.8-1.06l2.39,4.07a1,1,0,0,1-.37,1.42,1.08,1.08,0,0,1-.53.14Z"/></g><g id="Group_209" data-name="Group 209"><path id="Path_232" data-name="Path 232" class="cls-2" d="M39.6,270a1,1,0,0,1-1-.83L36.13,257a1.05,1.05,0,0,1,.82-1.23,1,1,0,0,1,1.22.81l2.45,12.11a1,1,0,0,1-.81,1.22A.75.75,0,0,1,39.6,270Z"/></g><g id="Group_210" data-name="Group 210"><path id="Path_233" data-name="Path 233" class="cls-2" d="M111.23,240.53a1,1,0,0,1-.93-1.5l2.25-4.52a1,1,0,0,1,1.41-.43,1,1,0,0,1,.45,1.35L112.16,240A1,1,0,0,1,111.23,240.53Z"/></g><g id="Group_211" data-name="Group 211"><path id="Path_234" data-name="Path 234" class="cls-2" d="M161.86,102.52a1,1,0,0,1-.78-.36l-4.3-4.88a1,1,0,0,1,1.56-1.38l4.3,4.89a1,1,0,0,1-.1,1.47,1.07,1.07,0,0,1-.68.26Z"/></g><g id="Group_212" data-name="Group 212"><path id="Path_235" data-name="Path 235" class="cls-2" d="M158.07,80.16a1,1,0,0,1-.89-.5l-1.79-2.93a1,1,0,1,1,1.75-1.12l0,0L159,78.57a1.05,1.05,0,0,1-.35,1.43,1,1,0,0,1-.54.15Z"/></g><g id="Group_213" data-name="Group 213"><path id="Path_236" data-name="Path 236" class="cls-2" d="M241.53,39.88h-.14l-8.57-1.13a1,1,0,1,1,.22-2.07h.05l8.57,1.13a1,1,0,0,1-.13,2.07Z"/></g><g id="Group_214" data-name="Group 214"><path id="Path_237" data-name="Path 237" class="cls-2" d="M83.63,31.88a1,1,0,0,1-.95-.62l-6.41-14.4a1,1,0,0,1,1.9-.85l6.41,14.4a1,1,0,0,1-.52,1.38,1.07,1.07,0,0,1-.43.09Z"/></g><g id="Group_215" data-name="Group 215"><path id="Path_238" data-name="Path 238" class="cls-2" d="M9.93,196a1,1,0,0,1-1-.95l-.64-7.93a1,1,0,0,1,2.07-.22V187l.64,7.93A1,1,0,0,1,10,196H9.93Z"/></g><g id="Group_216" data-name="Group 216"><path id="Path_239" data-name="Path 239" class="cls-2" d="M86.63,103.73a1.06,1.06,0,0,1-.93-.56l-4.29-8.23a1,1,0,0,1,1.81-1l0,0,4.3,8.23a1.05,1.05,0,0,1-.44,1.4A1,1,0,0,1,86.63,103.73Z"/></g><g id="Group_217" data-name="Group 217"><path id="Path_240" data-name="Path 240" class="cls-2" d="M187.71,48.27a1,1,0,0,1-1-1,1,1,0,0,1,.44-.85l11.18-7.84a1,1,0,0,1,1.44.26,1,1,0,0,1-.25,1.45L188.3,48.08A1,1,0,0,1,187.71,48.27Z"/></g><g id="Group_218" data-name="Group 218"><path id="Path_241" data-name="Path 241" class="cls-2" d="M40.81,236.87a1,1,0,0,1-.56-.17L29.6,229.79a1,1,0,0,1-.3-1.44,1,1,0,0,1,1.43-.3L41.38,235a1,1,0,0,1,.31,1.43,1.06,1.06,0,0,1-.88.48Z"/></g><g id="Group_219" data-name="Group 219"><path id="Path_242" data-name="Path 242" class="cls-2" d="M11.28,287.5h-.16a1,1,0,0,1-.86-1.19l1.87-11.95a1.05,1.05,0,0,1,1.17-.9,1,1,0,0,1,.89,1.16v.06l-1.88,12A1,1,0,0,1,11.28,287.5Z"/></g><g id="Group_220" data-name="Group 220"><path id="Path_243" data-name="Path 243" class="cls-2" d="M93.84,168.84a1,1,0,0,1-1-.76L92,165.17a1,1,0,0,1,.72-1.28,1,1,0,0,1,1.28.72l.81,2.91a1,1,0,0,1-.72,1.28.9.9,0,0,1-.28,0Z"/></g><g id="Group_221" data-name="Group 221"><path id="Path_244" data-name="Path 244" class="cls-2" d="M61.16,112.13a1,1,0,0,1-1-1,1,1,0,0,1,.26-.68l1.78-2a1,1,0,1,1,1.58,1.35h0l-1.78,2A1,1,0,0,1,61.16,112.13Z"/></g><g id="Group_222" data-name="Group 222"><path id="Path_245" data-name="Path 245" class="cls-2" d="M110.24,61.58a1,1,0,0,1-1-1,1.07,1.07,0,0,1,.14-.52l3.9-6.8a1.05,1.05,0,0,1,1.42-.38,1,1,0,0,1,.38,1.42h0l-3.9,6.8A1,1,0,0,1,110.24,61.58Z"/></g><g id="Group_223" data-name="Group 223"><path id="Path_246" data-name="Path 246" class="cls-2" d="M154.62,197.46a1,1,0,0,1-.88-.49l-3.24-5.13a1,1,0,1,1,1.76-1.11l3.24,5.13a1,1,0,0,1-.88,1.6Z"/></g><g id="Group_224" data-name="Group 224"><path id="Path_247" data-name="Path 247" class="cls-2" d="M272.78,13.93a1,1,0,0,1-.2-2.06l13.28-2.6a1,1,0,1,1,.4,2h0L273,13.91Z"/></g><g id="Group_225" data-name="Group 225"><path id="Path_248" data-name="Path 248" class="cls-2" d="M80.44,125.56l-.21,0-3.53-.7a1,1,0,1,1,.4-2h0l3.54.7a1,1,0,0,1-.2,2.06Z"/></g><g id="Group_226" data-name="Group 226"><path id="Path_249" data-name="Path 249" class="cls-2" d="M69.18,75.07a1,1,0,0,1-.89-.51L64.4,68.07A1,1,0,0,1,66.16,67l0,.05,3.89,6.48a1,1,0,0,1-.9,1.58Z"/></g><g id="Group_227" data-name="Group 227"><path id="Path_250" data-name="Path 250" class="cls-2" d="M13.39,51.09l-.26,0L8.76,49.92a1,1,0,0,1,.52-2L13.65,49a1,1,0,0,1,.75,1.26,1,1,0,0,1-1,.79Z"/></g><g id="Group_228" data-name="Group 228"><path id="Path_251" data-name="Path 251" class="cls-2" d="M286.19,171.45h-.13l-3.2-.37A1,1,0,1,1,283,169h.06l3.2.37a1,1,0,0,1-.11,2.07Z"/></g><g id="Group_229" data-name="Group 229"><path id="Path_252" data-name="Path 252" class="cls-2" d="M271.11,154.27a1.15,1.15,0,0,1-.26,0L265.93,153a1,1,0,1,1,.51-2h0l4.92,1.24a1,1,0,0,1,.75,1.27,1,1,0,0,1-1,.78Z"/></g><g id="Group_230" data-name="Group 230"><path id="Path_253" data-name="Path 253" class="cls-2" d="M172.8,226.34a1,1,0,0,1-1-.93l-1-9.62a1,1,0,1,1,2.06-.25v0l1,9.62a1,1,0,0,1-.92,1.15h-.11Z"/></g><g id="Group_231" data-name="Group 231"><path id="Path_254" data-name="Path 254" class="cls-2" d="M230.54,100.36a1,1,0,0,1-1-.79L225.9,85a1,1,0,1,1,2-.55v0l3.64,14.59a1,1,0,0,1-.75,1.26h0A1.15,1.15,0,0,1,230.54,100.36Z"/></g><g id="Group_232" data-name="Group 232"><path id="Path_255" data-name="Path 255" class="cls-2" d="M198,287.48h0l-4.46-.08a1,1,0,0,1-1-1.06h0a1.05,1.05,0,0,1,1.06-1l4.46.09a1,1,0,1,1,0,2.07Z"/></g></g></g></g></svg>