<?xml version="1.0" standalone="no"?>
<svg xmlns:xlink="http://www.w3.org/1999/xlink" id="wave" style="transform:rotate(180deg); transition: 0.3s" viewBox="0 0 1440 490" version="1.1" xmlns="http://www.w3.org/2000/svg"><defs><linearGradient id="sw-gradient-0" x1="0" x2="0" y1="1" y2="0"><stop stop-color="rgba(212, 222, 244, 1)" offset="0%"/><stop stop-color="rgba(246, 232, 252, 1)" offset="100%"/></linearGradient></defs><path style="transform:translate(0, 0px); opacity:1" fill="url(#sw-gradient-0)" d="M0,0L80,57.2C160,114,320,229,480,294C640,359,800,376,960,343C1120,310,1280,229,1440,163.3C1600,98,1760,49,1920,89.8C2080,131,2240,261,2400,318.5C2560,376,2720,359,2880,302.2C3040,245,3200,147,3360,130.7C3520,114,3680,180,3840,204.2C4000,229,4160,212,4320,171.5C4480,131,4640,65,4800,32.7C4960,0,5120,0,5280,40.8C5440,82,5600,163,5760,196C5920,229,6080,212,6240,179.7C6400,147,6560,98,6720,130.7C6880,163,7040,278,7200,285.8C7360,294,7520,196,7680,138.8C7840,82,8000,65,8160,49C8320,33,8480,16,8640,8.2C8800,0,8960,0,9120,65.3C9280,131,9440,261,9600,302.2C9760,343,9920,294,10080,228.7C10240,163,10400,82,10560,114.3C10720,147,10880,294,11040,343C11200,392,11360,343,11440,318.5L11520,294L11520,490L11440,490C11360,490,11200,490,11040,490C10880,490,10720,490,10560,490C10400,490,10240,490,10080,490C9920,490,9760,490,9600,490C9440,490,9280,490,9120,490C8960,490,8800,490,8640,490C8480,490,8320,490,8160,490C8000,490,7840,490,7680,490C7520,490,7360,490,7200,490C7040,490,6880,490,6720,490C6560,490,6400,490,6240,490C6080,490,5920,490,5760,490C5600,490,5440,490,5280,490C5120,490,4960,490,4800,490C4640,490,4480,490,4320,490C4160,490,4000,490,3840,490C3680,490,3520,490,3360,490C3200,490,3040,490,2880,490C2720,490,2560,490,2400,490C2240,490,2080,490,1920,490C1760,490,1600,490,1440,490C1280,490,1120,490,960,490C800,490,640,490,480,490C320,490,160,490,80,490L0,490Z"/></svg>