<svg xmlns="http://www.w3.org/2000/svg" viewBox="0 0 361.8 379.23"><defs><style>.cls-1{isolation:isolate;}.cls-2{fill:#f39c12;}.cls-2,.cls-3{stroke:#083330;stroke-width:3px;}.cls-2,.cls-3,.cls-4,.cls-5,.cls-8{stroke-miterlimit:10;}.cls-3{fill:#f2af10;}.cls-4{fill:#603813;}.cls-4,.cls-5,.cls-8{stroke:#222844;}.cls-4,.cls-5{stroke-width:5.48px;}.cls-5{fill:#8c6239;}.cls-6{fill:#cbcbcb;mix-blend-mode:multiply;}.cls-7{fill:#ffb93b;}.cls-8{fill:#4b2330;stroke-width:2.06px;}</style></defs><g class="cls-1"><g id="Layer_1" data-name="Layer 1"><path class="cls-2" d="M314.52,263.2c-4.79-7.28-16.1-12.39-29.31-12.39s-24.51,5.11-29.3,12.39h-2.43v7.74c0,11.11,14.21,20.12,31.73,20.12s31.74-9,31.74-20.12V263.2Z"/><path class="cls-3" d="M317,263.2c0,11.11-14.21,20.12-31.74,20.12s-31.73-9-31.73-20.12,14.21-20.13,31.73-20.13S317,252.08,317,263.2Z"/><path class="cls-2" d="M314.52,249.26c-4.79-7.27-16.1-12.38-29.31-12.38s-24.51,5.11-29.3,12.38h-2.43V257c0,11.12,14.21,20.13,31.73,20.13S317,268.12,317,257v-7.74Z"/><path class="cls-3" d="M317,249.26c0,11.12-14.21,20.13-31.74,20.13s-31.73-9-31.73-20.13,14.21-20.12,31.73-20.12S317,238.15,317,249.26Z"/><path class="cls-2" d="M320.12,235.33c-4.78-7.27-16.1-12.39-29.3-12.39s-24.52,5.12-29.3,12.39h-2.44v7.74c0,11.12,14.21,20.13,31.74,20.13s31.73-9,31.73-20.13v-7.74Z"/><path class="cls-3" d="M322.55,235.33c0,11.11-14.21,20.12-31.73,20.12s-31.74-9-31.74-20.12,14.21-20.13,31.74-20.13S322.55,224.21,322.55,235.33Z"/><path class="cls-2" d="M314.52,221.4c-4.79-7.28-16.1-12.39-29.31-12.39s-24.51,5.11-29.3,12.39h-2.43v7.74c0,11.11,14.21,20.12,31.73,20.12s31.74-9,31.74-20.12V221.4Z"/><path class="cls-3" d="M317,221.4c0,11.11-14.21,20.12-31.74,20.12s-31.73-9-31.73-20.12,14.21-20.13,31.73-20.13S317,210.28,317,221.4Z"/><path class="cls-2" d="M310.59,207.46c-4.78-7.27-16.1-12.38-29.3-12.38s-24.52,5.11-29.3,12.38h-2.44v7.74c0,11.12,14.21,20.13,31.74,20.13s31.74-9,31.74-20.13v-7.74Z"/><path class="cls-3" d="M313,207.46c0,11.12-14.21,20.13-31.74,20.13s-31.74-9-31.74-20.13,14.21-20.12,31.74-20.12S313,196.35,313,207.46Z"/><path class="cls-4" d="M211,61c3-4.67.34-9.42-3.92-10.83S193.77,52.16,189.35,53s-9,1.69-13.34.53a41.94,41.94,0,0,1-7.59-3.42,49.36,49.36,0,0,0-42.21-.48c-5.65,2.64-11.27,6.47-17.48,5.91-8.56-.77-16.22-9.82-24.24-6.71-5.39,2.09-7.22,10.13-3.26,14.35l4.3,11.89,41.28,17.18,57-1.31Z"/><path class="cls-2" d="M188.32,62.88c-4.1-5.75-14.15-10.08-26.06-10.54S140,55.41,135.45,60.83l-2.2-.08-.23,6c-.33,8.54,12.22,16,28,16.57s28.9-5.81,29.23-14.35l.23-6Z"/><path class="cls-3" d="M190.52,63c-.33,8.54-13.42,15-29.23,14.36s-28.37-8-28-16.58,13.42-15,29.24-14.36S190.85,54.43,190.52,63Z"/><path class="cls-2" d="M149.29,42.9c-6.88-2.29-17.6.22-27.36,7.06S106.15,66,106,73.26l-1.81,1.27,3.56,5.07c5.11,7.3,19.76,5.84,32.72-3.24S159.76,54,154.65,46.72l-3.56-5.08Z"/><path class="cls-3" d="M151.09,41.64c5.11,7.29-1.26,20.56-14.22,29.64s-27.61,10.54-32.72,3.25S105.41,54,118.37,44.88,146,34.35,151.09,41.64Z"/><path class="cls-5" d="M112,110.63c6.65-9.88-8.63-19.91-18.07-27.18s-12.14-8-13.63-20.92c7.68,9.41,13.34,9,22.6,13.64,7,3.48,16,.38,23.57-1.52,5.39-1.35,10-5.24,15.45-6.08,14.2-2.16,26,16.5,39.92,12.82,12.13-3.21,17.34-22,29.84-20.93-5.64,18.17-25.09,30.85-26.55,49.82-1.08,14.11,8.37,26.75,18.31,36.83,15,15.21,32.25,28,47.65,42.86S280.32,222.2,286,242.79s1.82,44.84-13.87,59.34C261.91,311.6,248,316,234.31,318.69a203.77,203.77,0,0,1-87-1.88c-20.7-5-41-13.58-56.54-28.15-22.15-20.8-32.42-53.48-26.14-83.21C72.07,170.39,112,110.63,112,110.63Z"/><path class="cls-6" d="M287.16,249c-4,15-15,28-31,30-19,3-37,3-55-5-30-14-40-47-60-73-15-19-41-17-63-14a20.06,20.06,0,0,0-8.93,3.25,113,113,0,0,0-4.57,15.25c-6.28,29.73,4,62.41,26.14,83.21,15.52,14.57,35.84,23.14,56.54,28.15a203.77,203.77,0,0,0,87,1.88c13.68-2.7,27.6-7.09,37.84-16.56,14.28-13.2,18.77-34.46,15.17-53.7C287.27,248.6,287.22,248.78,287.16,249Z"/><path class="cls-7" d="M193,284.4l-9.29,1.34L181.84,273q-25.9,1.58-36.33-20.05l14.3-5.58q6.09,14,20.22,13l-3.92-27.19q-18.86-1.58-25.28-7.21a23.09,23.09,0,0,1-7.73-14.59q-3.34-23.21,25.4-31l-1.43-9.91,9.29-1.34,1.43,9.91q21.81-.33,30.1,17.24l-13.55,5q-5.1-10.08-14.72-9.54l3.46,24q14,1.92,19,3.3t9.6,6.84a26.16,26.16,0,0,1,5.77,13.5,25.65,25.65,0,0,1-5,20.12q-6.69,8.7-21.29,12.14Zm-22.65-91.31a17.08,17.08,0,0,0-9.58,4.44q-3.6,3.5-2.78,9.21,1.38,9.64,15.7,9.48Zm19,66a16.62,16.62,0,0,0,10.3-5.35,12.3,12.3,0,0,0,3-10.34q-1.46-10-17.07-10.68Z"/><path class="cls-8" d="M136.86,130.08a61.18,61.18,0,0,0-27.07,46.57,7.22,7.22,0,0,0,2.11,5.09,7.32,7.32,0,0,0,5.09,2.11,7.24,7.24,0,0,0,5.09-2.11,8,8,0,0,0,2.11-5.09c.08-1,.18-1.92.31-2.88l-.26,1.91A54.66,54.66,0,0,1,128,162l-.72,1.72a55.87,55.87,0,0,1,7.18-12.26l-1.13,1.46a54.3,54.3,0,0,1,9.67-9.67l-1.46,1.12c.84-.64,1.7-1.26,2.57-1.85a7.64,7.64,0,0,0,3.31-4.3,7.19,7.19,0,0,0-5-8.86,7.19,7.19,0,0,0-5.54.73Z"/><path class="cls-8" d="M140.15,137.43a313.85,313.85,0,0,0,9.08,41.67q1.68,5.78,3.58,11.48a7.72,7.72,0,0,0,3.31,4.31,7.37,7.37,0,0,0,5.55.72,7.21,7.21,0,0,0,5-8.85A311.33,311.33,0,0,1,156,145.47q-1.09-5.92-2-11.87a7.16,7.16,0,0,0-3.3-4.3,7.19,7.19,0,0,0-9.85,2.58l-.73,1.72a7.32,7.32,0,0,0,0,3.83Z"/><path class="cls-8" d="M133.34,152.91l.56-.7c.19-.26.37-.51.57-.76C134.09,151.93,133.72,152.42,133.34,152.91Z"/><path class="cls-8" d="M127.29,163.71l.34-.78c.13-.31.25-.63.38-.94Z"/><path class="cls-8" d="M124.24,175.68c.05-.37.11-.74.17-1.11s0-.54.09-.8C124.41,174.4,124.32,175,124.24,175.68Z"/><path class="cls-8" d="M141.55,144.36l.5-.35,1-.77Z"/><path class="cls-6" d="M141.55,144.36l1.46-1.12-1,.77c.68-.51,1.37-1,2.07-1.5a7.64,7.64,0,0,0,3.31-4.3,7.19,7.19,0,0,0-5-8.86,7.19,7.19,0,0,0-5.54.73,62.48,62.48,0,0,0-14.81,14.11,71.41,71.41,0,0,0,16.69,2.74c1.06-1,2.16-2,3.31-2.92Z"/><path class="cls-6" d="M156.12,146c0-.19-.07-.37-.11-.55q-1.09-5.92-2-11.87a7.16,7.16,0,0,0-3.3-4.3,7.19,7.19,0,0,0-9.85,2.58l-.73,1.72a7.32,7.32,0,0,0,0,3.83c.47,3.2,1,6.4,1.57,9.59A94.57,94.57,0,0,0,156.12,146Z"/><path class="cls-8" d="M96.69,123.86a46,46,0,0,0,14.3,11,60.59,60.59,0,0,0,21.41,6.24,105.72,105.72,0,0,0,19.73,0A101.35,101.35,0,0,0,172,137.49a109,109,0,0,0,21.58-9.14,7.2,7.2,0,0,0-7.27-12.43,110.93,110.93,0,0,1-10.11,4.92l1.72-.72a91.52,91.52,0,0,1-23.13,6.32l1.91-.26a106.9,106.9,0,0,1-12.51.89,91.48,91.48,0,0,1-13.24-.56l1.91.26a52.09,52.09,0,0,1-13-3.53l1.72.72a48.37,48.37,0,0,1-10.66-6.15l1.46,1.13a36.22,36.22,0,0,1-5.53-5.26,7.2,7.2,0,0,0-12.29,5.09,8.1,8.1,0,0,0,2.11,5.09Z"/><path class="cls-6" d="M112.49,124.88a60.13,60.13,0,0,0,21.4,6.24,105.72,105.72,0,0,0,19.73,0,101.45,101.45,0,0,0,19.86-3.59,109.16,109.16,0,0,0,21.57-9.14,8.18,8.18,0,0,0,.69-.45,7.31,7.31,0,0,0-9.45-2q-4.48,2.46-9.19,4.52l.8-.32-1.72.72.92-.4a91.13,91.13,0,0,1-21.37,5.85l1-.11-1.91.26c.32,0,.64-.1,1-.15a106.52,106.52,0,0,1-11.56.78,96.57,96.57,0,0,1-12.26-.44l.93.14-1.91-.26,1,.12a51.81,51.81,0,0,1-11.28-3.1l1,.43-1.72-.72.75.29a48.61,48.61,0,0,1-8.87-5.11l.64.52-1.46-1.13.82.61a35.33,35.33,0,0,1-4.89-4.74,7.26,7.26,0,0,0-5.09-2.11A7.57,7.57,0,0,0,97.49,113c.21.3.44.61.69.91A46,46,0,0,0,112.49,124.88Z"/><path class="cls-8" d="M98.18,109.73a46,46,0,0,0,14.31,11,60.33,60.33,0,0,0,21.4,6.24,104.88,104.88,0,0,0,19.73,0,100.71,100.71,0,0,0,19.86-3.59,108,108,0,0,0,21.57-9.14,7.27,7.27,0,0,0,2.58-9.85,7.36,7.36,0,0,0-9.85-2.58,108.28,108.28,0,0,1-10.1,4.93l1.72-.73a91.2,91.2,0,0,1-23.14,6.33l1.91-.26a106.59,106.59,0,0,1-12.51.89,92.93,92.93,0,0,1-13.24-.56l1.92.26a52,52,0,0,1-13-3.54l1.72.73a48.77,48.77,0,0,1-10.66-6.15l1.46,1.13a36.78,36.78,0,0,1-5.54-5.26,7.22,7.22,0,0,0-5.09-2.11,7.36,7.36,0,0,0-5.09,2.11,7.26,7.26,0,0,0-2.11,5.09,8.1,8.1,0,0,0,2.11,5.09Z"/><path class="cls-2" d="M246.51,322.76c-5.07-7.72-17.08-13.14-31.09-13.14s-26,5.42-31.08,13.14h-2.59V331c0,11.8,15.08,21.36,33.67,21.36S249.1,342.77,249.1,331v-8.21Z"/><path class="cls-3" d="M249.1,322.76c0,11.79-15.08,21.35-33.68,21.35s-33.67-9.56-33.67-21.35,15.08-21.35,33.67-21.35S249.1,311,249.1,322.76Z"/><path class="cls-2" d="M256,308C251,300.26,239,294.84,225,294.84s-26,5.42-31.09,13.14h-2.58v8.21c0,11.8,15.07,21.35,33.67,21.35s33.67-9.55,33.67-21.35V308Z"/><path class="cls-3" d="M258.62,308c0,11.79-15.07,21.35-33.67,21.35s-33.67-9.56-33.67-21.35,15.07-21.36,33.67-21.36S258.62,296.18,258.62,308Z"/><path class="cls-2" d="M252.68,293.2c-5.08-7.72-17.08-13.14-31.09-13.14s-26,5.42-31.09,13.14h-2.59v8.21c0,11.79,15.08,21.35,33.68,21.35s33.67-9.56,33.67-21.35V293.2Z"/><path class="cls-3" d="M255.26,293.2c0,11.79-15.08,21.35-33.67,21.35S187.91,305,187.91,293.2s15.08-21.36,33.68-21.36S255.26,281.4,255.26,293.2Z"/><path class="cls-2" d="M256,278.41C251,270.7,239,265.27,225,265.27s-26,5.43-31.09,13.14h-2.58v8.21c0,11.8,15.07,21.36,33.67,21.36s33.67-9.56,33.67-21.36v-8.21Z"/><path class="cls-3" d="M258.62,278.41c0,11.8-15.07,21.36-33.67,21.36s-33.67-9.56-33.67-21.36,15.07-21.35,33.67-21.35S258.62,266.62,258.62,278.41Z"/><path class="cls-2" d="M312,329.33c-5.07-7.71-17.08-13.14-31.08-13.14s-26,5.43-31.09,13.14h-2.59v8.21c0,11.8,15.08,21.36,33.68,21.36s33.67-9.56,33.67-21.36v-8.21Z"/><path class="cls-3" d="M314.61,329.33c0,11.8-15.08,21.36-33.67,21.36s-33.68-9.56-33.68-21.36S262.34,308,280.94,308,314.61,317.54,314.61,329.33Z"/><path class="cls-2" d="M325.16,312.91c-5.07-7.72-17.08-13.14-31.08-13.14s-26,5.42-31.09,13.14H260.4v8.21c0,11.79,15.08,21.35,33.68,21.35s33.67-9.56,33.67-21.35v-8.21Z"/><ellipse class="cls-3" cx="294.08" cy="312.91" rx="33.67" ry="21.35"/><path class="cls-2" d="M305.45,303.05c-5.07-7.71-17.08-13.14-31.09-13.14s-26,5.43-31.08,13.14h-2.59v8.21c0,11.8,15.08,21.36,33.67,21.36S308,323.06,308,311.26v-8.21Z"/><path class="cls-3" d="M308,303.05c0,11.79-15.08,21.35-33.68,21.35s-33.67-9.56-33.67-21.35,15.08-21.35,33.67-21.35S308,291.26,308,303.05Z"/><path class="cls-2" d="M270.05,264.75C265,257,253,251.61,239,251.61s-26,5.42-31.09,13.14h-2.58V273c0,11.8,15.07,21.36,33.67,21.36s33.67-9.56,33.67-21.36v-8.21Z"/><path class="cls-3" d="M272.63,264.75c0,11.79-15.07,21.35-33.67,21.35s-33.67-9.56-33.67-21.35S220.36,243.4,239,243.4,272.63,253,272.63,264.75Z"/><path class="cls-2" d="M115.25,300.7c-5.2-7.92-17.52-13.48-31.89-13.48s-26.69,5.56-31.9,13.48H48.81v8.43c0,12.1,15.47,21.9,34.55,21.9s34.54-9.8,34.54-21.9V300.7Z"/><path class="cls-3" d="M117.9,300.7c0,12.1-15.46,21.91-34.54,21.91S48.81,312.8,48.81,300.7s15.47-21.91,34.55-21.91S117.9,288.6,117.9,300.7Z"/><path class="cls-2" d="M115.25,285.53c-5.2-7.91-17.52-13.48-31.89-13.48s-26.69,5.57-31.9,13.48H48.81V294c0,12.1,15.47,21.91,34.55,21.91S117.9,306.06,117.9,294v-8.43Z"/><path class="cls-3" d="M117.9,285.53c0,12.1-15.46,21.91-34.54,21.91s-34.55-9.81-34.55-21.91,15.47-21.91,34.55-21.91S117.9,273.43,117.9,285.53Z"/><path class="cls-2" d="M121.35,270.37c-5.21-7.92-17.52-13.49-31.89-13.49s-26.69,5.57-31.9,13.49H54.91v8.42c0,12.1,15.47,21.91,34.55,21.91S124,290.89,124,278.79v-8.42Z"/><path class="cls-3" d="M124,270.37c0,12.1-15.46,21.9-34.54,21.9s-34.55-9.8-34.55-21.9,15.47-21.91,34.55-21.91S124,258.27,124,270.37Z"/><path class="cls-2" d="M115.25,255.2c-5.2-7.92-17.52-13.48-31.89-13.48s-26.69,5.56-31.9,13.48H48.81v8.42c0,12.1,15.47,21.91,34.55,21.91s34.54-9.81,34.54-21.91V255.2Z"/><path class="cls-3" d="M117.9,255.2c0,12.1-15.46,21.91-34.54,21.91S48.81,267.3,48.81,255.2s15.47-21.91,34.55-21.91S117.9,243.1,117.9,255.2Z"/><path class="cls-2" d="M111,240c-5.2-7.91-17.52-13.48-31.89-13.48S52.4,232.12,47.19,240H44.54v8.43c0,12.1,15.47,21.91,34.55,21.91s34.54-9.81,34.54-21.91V240Z"/><path class="cls-3" d="M113.63,240c0,12.1-15.46,21.91-34.54,21.91S44.54,252.13,44.54,240,60,218.12,79.09,218.12,113.63,227.93,113.63,240Z"/></g></g></svg>