<svg xmlns="http://www.w3.org/2000/svg" viewBox="0 0 312.76 314.67"><defs><style>.cls-1{isolation:isolate;}.cls-2{fill:#603813;}.cls-2,.cls-3,.cls-6{stroke:#222844;}.cls-2,.cls-3,.cls-6,.cls-7,.cls-8{stroke-miterlimit:10;}.cls-2,.cls-3{stroke-width:5.48px;}.cls-3{fill:#8c6239;}.cls-4{fill:#cbcbcb;mix-blend-mode:multiply;}.cls-5{fill:#ffb93b;}.cls-6{fill:#4b2330;stroke-width:2.06px;}.cls-7{fill:#f39c12;}.cls-7,.cls-8{stroke:#083330;stroke-width:3px;}.cls-8{fill:#f2af10;}</style></defs><g class="cls-1"><g id="Layer_1" data-name="Layer 1"><path class="cls-2" d="M211,61c3-4.67.34-9.42-3.92-10.83S193.77,52.16,189.35,53s-9,1.69-13.34.53a41.94,41.94,0,0,1-7.59-3.42,49.36,49.36,0,0,0-42.21-.48c-5.65,2.64-11.27,6.47-17.48,5.91-8.56-.77-16.22-9.82-24.24-6.71-5.39,2.09-7.22,10.13-3.26,14.35l4.3,11.89,41.28,17.18,57-1.31Z"/><path class="cls-3" d="M112.24,119.87c20.41-18-33.81-35.18-31.94-57.34,17.12,19.75,40.7,16.3,61.62,6,14.2-2.16,26,16.5,39.92,12.82,12.13-3.21,17.34-22,29.84-20.93C158.19,131.27,182,139.83,244.1,173.82,430.45,275.71-160.74,286.06,112.24,119.87Z"/><path class="cls-4" d="M273.4,194.94c-8,13.28-20.69,21.9-35.24,26.75-59,17-125,9-172-36-6.38-7-17.47-6.84-24.49-1.42C6,272.27,335.22,262.78,273.4,194.94Z"/><path class="cls-5" d="M204,231.12l-10.4,1.54-5-13.88c-18.71,1.07-32.32-5.62-39.87-18.66l13.78-4.61c4.79,7.82,12.16,11.7,21.75,11.15l-7.84-21.9c-11.54-.75-19.31-2.44-23.27-5s-6.12-5.63-6.86-9.3c-1.78-8.81,4.73-14.18,19-16.74l-1.66-4.63,6.64-.61,1.87,4.6c10.82-.11,19.18,2.7,25.45,8.76l-10,2.74a16.51,16.51,0,0,0-12.87-5.16l5.59,13.71q12.27,1.19,16.84,2.08a27,27,0,0,1,9.89,4.49A28.58,28.58,0,0,1,216,189.3c3.38,5.93,3.9,11.49,1.31,16.56-2.73,5.36-9,9.27-18.85,11.56Zm-36.39-71a15.3,15.3,0,0,0-7.29,2.38,4.38,4.38,0,0,0-1.8,5.19c1.09,3.83,5.72,5.78,13.84,5.71Zm25.92,45.35c4.24-.6,7.28-2.17,9.11-4.68s1.87-5.26.33-8.42c-2.49-5.08-8.47-7.66-18-8Z"/><path class="cls-6" d="M139.18,126.82a61.17,61.17,0,0,0-27.06,46.57,7.2,7.2,0,0,0,7.2,7.2,7.33,7.33,0,0,0,5.09-2.11,8,8,0,0,0,2.11-5.09c.07-1,.18-1.93.3-2.89l-.25,1.92a53.71,53.71,0,0,1,3.77-13.69l-.73,1.72a56.5,56.5,0,0,1,7.18-12.27l-1.12,1.46a54.64,54.64,0,0,1,9.67-9.67l-1.46,1.13c.84-.64,1.7-1.26,2.57-1.85a7.72,7.72,0,0,0,3.31-4.31,7.35,7.35,0,0,0-.73-5.54,7.19,7.19,0,0,0-9.85-2.58Z"/><path class="cls-6" d="M142.48,134.16a310.86,310.86,0,0,0,9.08,41.68q1.68,5.78,3.58,11.48a7.58,7.58,0,0,0,3.31,4.3A7.19,7.19,0,0,0,168.3,189a7.24,7.24,0,0,0,.73-5.55,310.93,310.93,0,0,1-10.69-41.29c-.74-3.94-1.39-7.9-2-11.86-.24-1.66-1.93-3.5-3.31-4.31a7.34,7.34,0,0,0-5.54-.72,7.24,7.24,0,0,0-4.31,3.31l-.72,1.72a7.08,7.08,0,0,0,0,3.82Z"/><path class="cls-6" d="M135.67,149.64l.56-.7.56-.76Z"/><path class="cls-6" d="M129.61,160.45c.12-.26.24-.52.35-.78s.25-.63.38-.94Z"/><path class="cls-6" d="M126.57,172.42c.05-.38.11-.74.17-1.11s.05-.54.08-.81C126.74,171.14,126.65,171.78,126.57,172.42Z"/><path class="cls-6" d="M143.88,141.1c.16-.13.33-.24.5-.36.32-.26.63-.52,1-.77Z"/><path class="cls-4" d="M143.88,141.1l1.46-1.13c-.33.25-.64.51-1,.77.68-.51,1.36-1,2.07-1.49a7.72,7.72,0,0,0,3.31-4.31,7.35,7.35,0,0,0-.73-5.54,7.19,7.19,0,0,0-9.85-2.58,62.46,62.46,0,0,0-14.81,14.11,72.1,72.1,0,0,0,16.69,2.73c1.07-1,2.17-2,3.32-2.92C144.21,140.86,144,141,143.88,141.1Z"/><path class="cls-4" d="M158.45,142.75c0-.18-.08-.36-.11-.55-.74-3.94-1.39-7.9-2-11.86-.24-1.66-1.93-3.5-3.31-4.31a7.34,7.34,0,0,0-5.54-.72,7.24,7.24,0,0,0-4.31,3.31l-.72,1.72a7.08,7.08,0,0,0,0,3.82c.47,3.21,1,6.4,1.57,9.59A93.4,93.4,0,0,0,158.45,142.75Z"/><path class="cls-6" d="M99,120.6a45.85,45.85,0,0,0,14.3,11,60.33,60.33,0,0,0,21.4,6.24,104.88,104.88,0,0,0,19.73,0,100.58,100.58,0,0,0,19.86-3.59,107.73,107.73,0,0,0,21.57-9.14,7.27,7.27,0,0,0,2.59-9.85,7.36,7.36,0,0,0-9.85-2.58,109.69,109.69,0,0,1-10.11,4.93l1.72-.73a90.65,90.65,0,0,1-23.14,6.32l1.92-.25a106.9,106.9,0,0,1-12.51.89,92.87,92.87,0,0,1-13.24-.56l1.91.26a52,52,0,0,1-13-3.54l1.72.73a48.77,48.77,0,0,1-10.66-6.15l1.46,1.13a36.24,36.24,0,0,1-5.53-5.26,7.2,7.2,0,0,0-12.29,5.09A8.1,8.1,0,0,0,99,120.6Z"/><path class="cls-4" d="M114.81,121.62a60.65,60.65,0,0,0,21.41,6.24,104.88,104.88,0,0,0,19.73,0,101.35,101.35,0,0,0,19.85-3.59,108.4,108.4,0,0,0,21.58-9.14,5.1,5.1,0,0,0,.69-.45,7.32,7.32,0,0,0-9.45-2q-4.5,2.47-9.19,4.52l.8-.32-1.72.73.92-.41A91.15,91.15,0,0,1,158.06,123l.95-.11-1.92.25,1-.14a109.11,109.11,0,0,1-11.56.78,96.51,96.51,0,0,1-12.26-.45l.93.15-1.91-.26,1,.11A51.79,51.79,0,0,1,123,120.27l1,.43-1.72-.73c.25.11.5.2.75.3a48.52,48.52,0,0,1-8.87-5.11l.64.52-1.46-1.13.82.61a35.35,35.35,0,0,1-4.89-4.74,7.26,7.26,0,0,0-5.09-2.11,7.63,7.63,0,0,0-4.29,1.41,11,11,0,0,0,.69.92A46,46,0,0,0,114.81,121.62Z"/><path class="cls-6" d="M100.51,106.47a46.12,46.12,0,0,0,14.3,11,60.65,60.65,0,0,0,21.41,6.24,105.72,105.72,0,0,0,19.73,0,101.35,101.35,0,0,0,19.85-3.59A108.4,108.4,0,0,0,197.38,111a7.2,7.2,0,0,0-7.27-12.43A111,111,0,0,1,180,103.45l1.72-.73A91.52,91.52,0,0,1,158.59,109l1.91-.26a106.74,106.74,0,0,1-12.51.89,91.48,91.48,0,0,1-13.24-.55l1.91.25a52,52,0,0,1-13-3.53l1.71.72a48,48,0,0,1-10.65-6.14l1.45,1.12a36.15,36.15,0,0,1-5.53-5.25,7.2,7.2,0,0,0-12.29,5.09,8.12,8.12,0,0,0,2.11,5.09Z"/><path class="cls-7" d="M263.21,260.35c-5.08-7.72-17.09-13.14-31.09-13.14s-26,5.42-31.09,13.14h-2.59v8.21c0,11.79,15.08,21.35,33.68,21.35s33.67-9.56,33.67-21.35v-8.21Z"/><path class="cls-8" d="M265.79,260.35c0,11.79-15.08,21.35-33.67,21.35s-33.68-9.56-33.68-21.35S213.52,239,232.12,239,265.79,248.55,265.79,260.35Z"/><path class="cls-7" d="M276.2,251.31c-5.08-7.71-17.08-13.14-31.09-13.14s-26,5.43-31.09,13.14h-2.58v8.21c0,11.8,15.07,21.36,33.67,21.36s33.67-9.56,33.67-21.36v-8.21Z"/><path class="cls-8" d="M278.78,251.31c0,11.79-15.07,21.35-33.67,21.35s-33.67-9.56-33.67-21.35S226.51,230,245.11,230,278.78,239.52,278.78,251.31Z"/><path class="cls-7" d="M272.84,236.53c-5.08-7.72-17.08-13.14-31.09-13.14s-26,5.42-31.09,13.14h-2.58v8.21c0,11.79,15.07,21.35,33.67,21.35s33.67-9.56,33.67-21.35v-8.21Z"/><path class="cls-8" d="M275.42,236.53c0,11.79-15.08,21.35-33.67,21.35s-33.67-9.56-33.67-21.35,15.07-21.36,33.67-21.36S275.42,224.73,275.42,236.53Z"/><path class="cls-7" d="M282.19,219.57c-5.07-7.72-17.08-13.15-31.09-13.15s-26,5.43-31.08,13.15h-2.59v8.21c0,11.79,15.08,21.35,33.67,21.35s33.68-9.56,33.68-21.35v-8.21Z"/><path class="cls-8" d="M284.78,219.57c0,11.79-15.08,21.35-33.68,21.35s-33.67-9.56-33.67-21.35,15.08-21.36,33.67-21.36S284.78,207.77,284.78,219.57Z"/><path class="cls-7" d="M204.42,256.32c-7-6-20.09-7.8-33.53-3.85S147.45,265,144.75,273.83l-2.47.72,2.31,7.89c3.32,11.31,20.47,16.24,38.32,11s29.62-18.66,26.3-30l-2.31-7.88Z"/><path class="cls-8" d="M206.9,255.6c3.32,11.31-8.46,24.73-26.3,30s-35,.3-38.32-11,8.45-24.73,26.29-30S203.58,244.28,206.9,255.6Z"/><path class="cls-7" d="M105.89,248.14c-5.2-7.91-17.52-13.48-31.89-13.48s-26.69,5.57-31.9,13.48H39.45v8.43c0,12.1,15.47,21.91,34.55,21.91s34.55-9.81,34.55-21.91v-8.43Z"/><path class="cls-8" d="M108.55,248.14c0,12.1-15.47,21.91-34.55,21.91s-34.55-9.81-34.55-21.91,15.47-21.9,34.55-21.9S108.55,236,108.55,248.14Z"/><path class="cls-7" d="M98.54,232.16c-5.21-7.92-17.53-13.48-31.9-13.48S40,224.24,34.75,232.16H32.09v8.43c0,12.1,15.47,21.9,34.55,21.9s34.55-9.8,34.55-21.9v-8.43Z"/><path class="cls-8" d="M101.19,232.16c0,12.1-15.47,21.91-34.55,21.91s-34.55-9.81-34.55-21.91,15.47-21.91,34.55-21.91S101.19,220.06,101.19,232.16Z"/><path class="cls-7" d="M112,217.81c-5.2-7.92-17.52-13.48-31.89-13.48s-26.69,5.56-31.9,13.48H45.55v8.43c0,12.1,15.47,21.9,34.55,21.9s34.55-9.8,34.55-21.9v-8.43Z"/><path class="cls-8" d="M114.65,217.81c0,12.1-15.47,21.91-34.55,21.91s-34.55-9.81-34.55-21.91S61,195.9,80.1,195.9,114.65,205.71,114.65,217.81Z"/></g></g></svg>