<svg xmlns="http://www.w3.org/2000/svg" viewBox="0 0 208.14 301.86"><defs><style>.cls-1{isolation:isolate;}.cls-2{fill:#97ebf2;}.cls-10,.cls-11,.cls-12,.cls-2,.cls-4,.cls-8,.cls-9{stroke:#222844;stroke-miterlimit:10;}.cls-10,.cls-2,.cls-4,.cls-8,.cls-9{stroke-width:3.36px;}.cls-3{opacity:0.9;}.cls-4{fill:#f071aa;}.cls-5{fill:#edbad5;}.cls-6{fill:#cbcbcb;}.cls-6,.cls-7{mix-blend-mode:multiply;}.cls-7{fill:#e5e5e5;}.cls-8{fill:#7cd5d8;}.cls-9{fill:#bf8b34;}.cls-10,.cls-11{fill:#edbd50;}.cls-11{stroke-width:3.21px;}.cls-12{fill:#e21950;stroke-width:3.87px;}.cls-13{fill:#8cc63f;}.cls-14{fill:#222844;}</style></defs><g class="cls-1"><g id="Layer_1" data-name="Layer 1"><path class="cls-2" d="M151.72,138.22C136.11,130.54,126,107.89,135.91,87c16.93-35.6-79.33-30.63-61-.41,12.6,20.73,3.25,43.38-15.87,52.38-10.52,4.95-17.15,16.42-17.15,28.81l-2.24,75.69a32.92,32.92,0,0,0,32.83,32.82h67.15a32.93,32.93,0,0,0,32.83-32.82l-2.24-75.69A33,33,0,0,0,151.72,138.22Z"/><g class="cls-3"><path class="cls-4" d="M161.12,171.27c0-11.26-6.48-20.35-15.86-25.7-5.49-3.14-12.93-14.23-14.33-15.33h-.43c-3-3.76-12.75-6.52-24.31-6.52-12.5,0-22.87,3.22-24.91,7.45-2.06,2.59-6.44,11.34-15.34,15-9.23,3.82-14.69,14.3-14.69,25.09l-1.91,65.91c0,15.72,12.65,28.58,28.1,28.58h57.49c15.46,0,28.1-12.86,28.1-28.58Z"/><ellipse class="cls-5" cx="106.41" cy="134" rx="24.71" ry="8.77"/></g><path class="cls-6" d="M134.38,118a39.9,39.9,0,0,1,1.53-31c16.93-35.59-79.33-30.62-61-.4a37.16,37.16,0,0,1,5.7,21.29A64.7,64.7,0,0,0,134.38,118Z"/><path class="cls-7" d="M161.12,171.27c0-11.26-6.48-20.35-15.86-25.7-4.25-2.43-9.66-9.61-12.54-13.25,11.37,40,4.19,93.28-34.23,118.53a83.48,83.48,0,0,1-32.27,12.51,27.44,27.44,0,0,0,11.22,2.4h57.49c15.46,0,28.1-12.86,28.1-28.58Z"/><path class="cls-8" d="M69.82,69.16V80.38c0,11.26,16.06,20.39,35.86,20.39s35.86-9.13,35.86-20.39V69.16Z"/><ellipse class="cls-2" cx="105.68" cy="70.28" rx="35.86" ry="17.38"/><path class="cls-9" d="M80.08,38.49l3.8,28c0,6.06,9.42,11,21,11s21-4.92,21-11l5.32-28Z"/><ellipse class="cls-10" cx="105.68" cy="38.49" rx="25.6" ry="10.97"/><path class="cls-11" d="M148.3,241.73a17.32,17.32,0,0,1-10.92,4.15c-6.5,0-58.75-.47-63.27-.47s-10.52-3.68-10.52-3.68V166.6s5.53,3.11,11.18,3.11h62.8c4.23,0,10.73-3.11,10.73-3.11Z"/><path class="cls-12" d="M130.93,186.53a15.58,15.58,0,0,0-22,0l-3.57,3.57-3.57-3.57a15.58,15.58,0,0,0-22,22l3.57,3.57,22,22,22-22,3.57-3.57A15.58,15.58,0,0,0,130.93,186.53Z"/><polygon class="cls-13" points="100.19 221.56 100.19 213.06 91.7 213.06 91.7 203.17 100.19 203.17 100.19 194.66 110.09 194.66 110.09 203.17 118.59 203.17 118.59 213.06 110.09 213.06 110.09 221.56 100.19 221.56"/><path class="cls-14" d="M108.41,196.34v8.51h8.5v6.54h-8.5v8.49h-6.54v-8.49H93.38v-6.54h8.49v-8.51h6.54m3.36-3.35H98.52v8.5H90v13.25h8.5v8.5h13.25v-8.5h8.5V201.49h-8.5V193Z"/><path class="cls-7" d="M63.59,228.52v13.21s6,3.68,10.52,3.68,56.77.47,63.27.47a17.32,17.32,0,0,0,10.92-4.15V191.17C127.29,215.09,95.1,227.91,63.59,228.52Z"/></g></g></svg>