<svg xmlns="http://www.w3.org/2000/svg" viewBox="0 0 208.14 301.86"><defs><style>.cls-1{isolation:isolate;}.cls-2{fill:#97ebf2;}.cls-10,.cls-12,.cls-13,.cls-2,.cls-4,.cls-8,.cls-9{stroke:#222844;stroke-miterlimit:10;}.cls-10,.cls-2,.cls-8,.cls-9{stroke-width:3.36px;}.cls-3{opacity:0.9;}.cls-4{fill:#ff0000;stroke-width:3.33px;}.cls-5{fill:#edbad5;}.cls-6{fill:#cbcbcb;}.cls-6,.cls-7{mix-blend-mode:multiply;}.cls-7{fill:#e5e5e5;}.cls-8{fill:#7cd5d8;}.cls-9{fill:#bf8b34;}.cls-10,.cls-12{fill:#edbd50;}.cls-11{fill:#fff;opacity:0.5;}.cls-12{stroke-width:3.21px;}.cls-13{fill:#e21950;stroke-width:3.87px;}.cls-14{fill:#8cc63f;}.cls-15{fill:#222844;}.cls-16{fill:#c18742;}</style></defs><g class="cls-1"><g id="Layer_1" data-name="Layer 1"><path class="cls-2" d="M151.72,138.22C136.11,130.54,126,107.89,135.91,87c16.93-35.6-79.33-30.63-61-.41,12.6,20.73,3.25,43.38-15.87,52.38-10.52,4.95-17.15,16.42-17.15,28.81l-2.24,75.69a32.92,32.92,0,0,0,32.83,32.82h67.15a32.93,32.93,0,0,0,32.83-32.82l-2.24-75.69A33,33,0,0,0,151.72,138.22Z"/><g class="cls-3"><path class="cls-4" d="M161.76,192c0-9.95-25.06-17.64-55.67-17.64-29.22,0-54.42,7.74-55.28,17.19l-1.47,47c0,14.94,12.65,27.16,28.1,27.16h57.49c15.46,0,28.1-12.22,28.1-27.16C163,238.6,161.76,192.12,161.76,192Z"/><ellipse class="cls-5" cx="106.31" cy="193.55" rx="53.89" ry="17.72"/></g><path class="cls-6" d="M134.38,118a39.9,39.9,0,0,1,1.53-31c16.93-35.59-79.33-30.62-61-.4a37.16,37.16,0,0,1,5.7,21.29A64.7,64.7,0,0,0,134.38,118Z"/><path class="cls-7" d="M161.12,171.27c0-11.26-6.48-20.35-15.86-25.7-4.25-2.43-9.66-9.61-12.54-13.25,11.37,40,4.19,93.28-34.23,118.53a83.48,83.48,0,0,1-32.27,12.51,27.44,27.44,0,0,0,11.22,2.4h57.49c15.46,0,28.1-12.86,28.1-28.58Z"/><path class="cls-8" d="M69.82,69.16V80.38c0,11.26,16.06,20.39,35.86,20.39s35.86-9.13,35.86-20.39V69.16Z"/><ellipse class="cls-2" cx="105.68" cy="70.28" rx="35.86" ry="17.38"/><path class="cls-9" d="M80.08,38.49l3.8,28c0,6.06,9.42,11,21,11s21-4.92,21-11l5.32-28Z"/><ellipse class="cls-10" cx="105.68" cy="38.49" rx="25.6" ry="10.97"/><rect class="cls-11" x="56.67" y="144.94" width="43.8" height="41.57" rx="20.78"/><path class="cls-12" d="M103.71,169.71H74.77c-5.65,0-11.18-3.11-11.18-3.11v75.13s6,3.68,10.52,3.68,56.77.47,63.27.47a17.32,17.32,0,0,0,10.92-4.15V218.5C132,193.43,130.41,183.8,103.71,169.71Z"/><path class="cls-13" d="M130.93,186.53a15.58,15.58,0,0,0-22,0l-1.66,1.66-1.91,1.91-3.57-3.57a15.58,15.58,0,0,0-22,22l3.57,3.57,22,22,21.27-21.27.77-.77,3.57-3.57A15.58,15.58,0,0,0,130.93,186.53Z"/><polygon class="cls-14" points="100.19 221.56 100.19 213.06 91.7 213.06 91.7 203.17 100.19 203.17 100.19 194.66 110.09 194.66 110.09 203.17 118.59 203.17 118.59 213.06 110.09 213.06 110.09 221.56 100.19 221.56"/><path class="cls-15" d="M108.41,196.34v8.51h8.5v6.54h-8.5v8.49h-6.54v-8.49H93.38v-6.54h8.49v-8.51h6.54m3.36-3.35H98.52v8.5H90v13.25h8.5v8.5h13.25v-8.5h8.5V201.49h-8.5V193Z"/><path class="cls-7" d="M133.35,205c-19.84,15-45,23-69.76,23.5v13.21s6,3.68,10.52,3.68,56.77.47,63.27.47a17.32,17.32,0,0,0,10.92-4.15V214.28C144.52,209.91,138.55,208.3,133.35,205Z"/><path class="cls-16" d="M147.74,216.55c-5.31-3.18-17.19-9.17-31.43-9.17h-.37c4.47-15-2.07-28.47-6.36-35.12C139.52,184.42,146.25,207.93,147.74,216.55Z"/><path class="cls-15" d="M113.43,175.7c12.25,5.87,21.4,14.35,27.25,25.31a53.25,53.25,0,0,1,4.78,12.43A64.56,64.56,0,0,0,118,205.8c2.86-12.05-.83-22.91-4.59-30.1m-8.27-6.79s16.35,18.89,8.54,40.14c.87-.05,1.75-.07,2.61-.07,18.67,0,33.44,10.79,33.44,10.79s-1.36-36.33-44.59-50.86Z"/></g></g></svg>
