<svg width="115" height="67" viewBox="0 0 115 67" fill="none" xmlns="http://www.w3.org/2000/svg">
<path d="M23.0264 13.2578C29.7435 11.612 38.2787 13.4491 44.2495 18.1377" stroke="black" stroke-miterlimit="10" stroke-linecap="round" stroke-linejoin="round"/>
<path d="M48.1916 22.1949C48.3447 22.4055 48.4978 22.6351 48.6509 22.8456C53.0333 29.4479 52.7654 38.3085 52.3635 52.1064C52.2295 56.9481 51.4066 63.5887 51.4066 63.5887L45.6081 65.8086L46.4884 45.7337L50.201 42.844L50.1436 35.3805L50.0862 31.9932L47.694 33.3136L38.8527 38.2128L32.0015 35.3039L22.7774 31.3808L19.2179 29.869L19.1414 29.8307L19.1222 31.0172V31.0363L18.95 39.7629L30.4514 45.1978L29.9539 65.7129C29.9539 65.7129 15.6967 62.0003 9.01778 58.9192C8.63504 58.747 8.08006 58.1729 8.08006 58.1729L7.98438 57.4839L8.19488 50.3457" stroke="black" stroke-miterlimit="10" stroke-linecap="round" stroke-linejoin="round"/>
<path d="M8.8269 30.3857C8.8269 30.3283 8.84604 30.2517 8.84604 30.1943C9.24792 26.807 10.4536 23.5537 12.4056 20.7788C13.1519 19.688 14.0131 18.6737 14.9891 17.7551C15.391 17.3724 16.4626 16.3773 17.9553 15.4204" stroke="black" stroke-miterlimit="10" stroke-linecap="round" stroke-linejoin="round"/>
<path d="M41.054 37.1026L47.6946 33.3135L46.7377 37.6002L42.0108 38.5188L41.054 37.1026Z" stroke="black" stroke-miterlimit="10" stroke-linecap="round" stroke-linejoin="round"/>
<path d="M32.0203 35.2846L30.2596 37.3897L24.2888 35.5908L22.7961 31.3615L32.0203 35.2846Z" stroke="black" stroke-miterlimit="10" stroke-linecap="round" stroke-linejoin="round"/>
<path d="M30.6239 45.638L35.0637 40.2605L41.1876 40.5667L45.2064 46.5758L44.7662 60.6033L42.3358 63.2251L32.0209 62.7658L30.2603 61.2349L30.6239 45.638Z" stroke="black" stroke-miterlimit="10" stroke-linecap="round" stroke-linejoin="round"/>
<path d="M12.406 20.7597C13.7839 20.3961 14.7216 20.5875 15.2957 20.798C18.0515 21.7931 19.7738 25.9076 19.1423 30.9981" stroke="black" stroke-miterlimit="10" stroke-linecap="round" stroke-linejoin="round"/>
<path d="M38.2601 33.0455L62.4878 6.57873L38.2601 21.9459L1 0.703613L38.2601 33.0455Z" stroke="black" stroke-miterlimit="10" stroke-linecap="round" stroke-linejoin="round"/>
<path d="M50.1244 35.3995C50.2967 33.6962 50.3541 31.5529 50.067 29.0842C49.78 26.5772 49.2059 24.4721 48.6509 22.8455" stroke="black" stroke-miterlimit="10" stroke-linecap="round" stroke-linejoin="round"/>
<path d="M8.11792 30.194H8.86427H10.7206C12.6343 30.194 14.2035 34.3467 14.3184 39.5903C14.3184 39.82 14.3184 40.0305 14.3184 40.2601C14.3184 45.8099 12.7108 50.3263 10.7206 50.3263H10.223H8.17533H8.11792" stroke="black" stroke-miterlimit="10" stroke-linecap="round" stroke-linejoin="round"/>
<path d="M8.11854 50.327C10.1055 50.327 11.7163 45.8202 11.7163 40.2609C11.7163 34.7015 10.1055 30.1947 8.11854 30.1947C6.13154 30.1947 4.52075 34.7015 4.52075 40.2609C4.52075 45.8202 6.13154 50.327 8.11854 50.327Z" stroke="black" stroke-miterlimit="10" stroke-linecap="round" stroke-linejoin="round"/>
<path d="M35.6766 47.2072H33.6672V57.0628H35.6766V47.2072Z" stroke="black" stroke-miterlimit="10" stroke-linecap="round" stroke-linejoin="round"/>
<path d="M40.193 47.4368H38.1836V57.2924H40.193V47.4368Z" stroke="black" stroke-miterlimit="10" stroke-linecap="round" stroke-linejoin="round"/>
<path d="M44.0021 47.6473H41.9927V57.503H44.0021V47.6473Z" stroke="black" stroke-miterlimit="10" stroke-linecap="round" stroke-linejoin="round"/>
<path d="M60.2676 48.3937C61.9899 43.9922 63.3869 39.7437 64.4586 35.6484L69.817 34.7489C69.2046 38.3084 68.9367 42.5186 68.9941 47.3794L65.2624 48.2406L65.5303 46.0398L64.3438 46.2695L63.9802 47.8196L60.2676 48.3937ZM65.7982 43.6668L66.602 37.0071H66.5828L64.9179 43.8199L65.7982 43.6668Z" fill="#6DC5A0"/>
<path d="M71.1567 35.7633L74.1995 35.1509C74.1803 35.5145 74.1612 36.0312 74.1612 36.701C74.1612 38.3085 74.2186 39.7055 74.3143 40.9112C74.3717 41.6001 74.4674 42.1551 74.5822 42.5952L75.7879 35.725L78.8115 35.17C77.5868 39.8778 76.783 43.9731 76.4194 47.4178L73.6254 48.2024C73.6062 48.1833 73.5297 47.9728 73.3957 47.59L72.4771 44.9874C72.324 44.5664 72.2283 44.2985 72.2092 44.1836C71.9604 45.5615 71.7691 46.9202 71.6351 48.2216L68.8411 49.0253L71.1567 35.7633Z" fill="#6DC5A0"/>
<path d="M84.0172 34.3662C85.2612 34.3662 86.1415 35.0552 86.6582 36.4522C86.9261 37.1602 87.0601 37.964 87.0601 38.806C87.0601 39.6289 86.9452 40.5284 86.6964 41.4852C86.2563 43.131 85.5099 44.6429 84.4383 46.0399C83.1369 47.724 81.7591 48.5851 80.3046 48.5851C79.0416 48.5851 78.1613 47.8962 77.6254 46.4992C77.3575 45.8103 77.2427 45.0448 77.2427 44.2027C77.2427 43.3607 77.3766 42.4612 77.6254 41.4852C78.0656 39.8203 78.8119 38.3085 79.8645 36.9115C81.1467 35.2274 82.5437 34.3662 84.0172 34.3662ZM83.3666 38.7486C82.7159 38.7486 82.0652 39.2845 81.3954 40.337C80.8596 41.1791 80.4769 41.9828 80.2664 42.7866C80.1515 43.2076 80.1133 43.5903 80.1133 43.9348C80.1133 44.4132 80.2281 44.8151 80.4577 45.1213C80.7256 45.4658 81.1084 45.638 81.5868 45.638C82.2375 45.638 82.8307 45.2935 83.3666 44.6046C83.7876 44.0496 84.0938 43.399 84.2852 42.6526C84.5148 41.7723 84.5531 40.9111 84.4191 40.05C84.2852 39.1696 83.9407 38.7486 83.3666 38.7486Z" fill="#6DC5A0"/>
<path d="M88.094 35.7633L91.1368 35.1509C91.1177 35.5145 91.0986 36.0312 91.0986 36.701C91.0986 38.3085 91.156 39.7055 91.2517 40.9112C91.3091 41.6001 91.4047 42.1551 91.5196 42.5952L92.7252 35.725L95.7489 35.17C94.5241 39.8778 93.7203 43.9731 93.3567 47.4178L90.5627 48.2024C90.5436 48.1833 90.467 47.9728 90.3331 47.59L89.4145 44.9874C89.2614 44.5664 89.1657 44.2985 89.1466 44.1836C88.8978 45.5615 88.7064 46.9202 88.5724 48.2216L85.7593 49.0636L88.094 35.7633Z" fill="#6DC5A0"/>
<path d="M107.594 34.6534C105.91 38.6148 104.398 42.8633 103.059 47.3988L97.3943 48.2791C97.7579 46.5568 97.9684 44.4517 98.0641 41.9638C98.1024 39.8396 98.1406 37.7345 98.198 35.6103L102.466 34.7874L100.628 46.4228H100.648L103.767 35.2467L107.594 34.6534Z" fill="black"/>
<path d="M114.866 38.4617C114.407 38.6148 113.871 38.787 113.239 38.9975L111.651 39.5334C111.651 38.9593 111.46 38.6722 111.096 38.6722C110.579 38.6722 110.044 38.921 109.527 39.4377C109.163 39.8204 109.01 40.1841 109.068 40.5285C109.106 40.7582 109.374 40.873 109.871 40.873C110.139 40.873 110.503 40.8347 110.943 40.7582C111.555 40.6433 112.091 40.5859 112.57 40.5859C113.756 40.5859 114.464 40.9304 114.656 41.6385C114.713 41.849 114.732 42.0978 114.732 42.3274C114.732 43.112 114.388 43.9349 113.718 44.8535C112.838 46.04 111.594 47.016 110.005 47.8198C109.163 48.2408 108.34 48.4513 107.537 48.4513C106.79 48.4513 106.082 48.2791 105.355 47.9155C105.719 47.1883 106.274 46.1166 107.058 44.6813C107.517 44.9492 107.996 45.0832 108.513 45.0832C108.742 45.0832 108.972 45.0449 109.221 44.9875C109.661 44.8918 110.082 44.7578 110.484 44.5665C111.058 44.2985 111.345 44.0306 111.345 43.7436C111.345 43.4374 111.058 43.2843 110.465 43.2843C110.063 43.2843 109.489 43.3608 108.723 43.4948C107.958 43.6287 107.383 43.7053 106.982 43.7053C106.465 43.7053 106.044 43.6287 105.776 43.4565C105.221 43.1312 104.991 42.6527 105.087 41.9829C105.278 40.6242 106.293 39.0741 108.13 37.2943C110.024 35.4763 111.651 34.5194 113.01 34.4238C114.33 34.3472 115 35.2084 115 36.969C114.962 37.4474 114.924 37.9259 114.866 38.4617Z" fill="black"/>
<path d="M57.1677 63.9527C58.8327 59.7425 60.0957 55.4558 60.976 51.1116L65.3967 50.3844L64.7652 57.159L66.4875 50.9011L70.736 50.1548C70.2384 54.1736 69.9705 57.7905 69.9705 61.0056C69.9705 61.6371 69.9705 62.2878 69.9705 62.9002L66.2005 63.57L66.8703 55.4941L64.4399 64.4503L62.4113 64.7182L63.6361 53.3507L60.9952 63.436L57.1677 63.9527Z" fill="#EB1E50"/>
<path d="M77.1856 49.4083C78.4869 49.4083 79.4055 50.1355 79.9605 51.59C80.2475 52.3363 80.3815 53.1592 80.3815 54.0587C80.3815 54.9198 80.2475 55.8576 79.9988 56.8718C79.5395 58.5942 78.7548 60.1826 77.6449 61.637C76.2861 63.4167 74.8317 64.2971 73.3007 64.2971C71.9803 64.2971 71.0426 63.5698 70.4876 62.1154C70.2197 61.4073 70.0857 60.6036 70.0857 59.7233C70.0857 58.843 70.2197 57.9052 70.4876 56.8718C70.9469 55.1303 71.7315 53.542 72.8223 52.0875C74.2002 50.2886 75.6546 49.4083 77.1856 49.4083ZM76.5158 53.9821C75.846 53.9821 75.157 54.5371 74.449 55.647C73.8749 56.5274 73.4921 57.3694 73.2625 58.2114C73.1476 58.6516 73.0902 59.0535 73.0902 59.4171C73.0902 59.9146 73.2051 60.3357 73.4538 60.661C73.7409 61.0246 74.1236 61.1968 74.6403 61.1968C75.3293 61.1968 75.9417 60.8332 76.4967 60.106C76.9368 59.5319 77.2621 58.843 77.4535 58.0583C77.6832 57.1398 77.7406 56.2212 77.6066 55.3217C77.4726 54.4223 77.109 53.9821 76.5158 53.9821Z" fill="#EB1E50"/>
<path d="M81.3185 50.8053L84.4953 50.212C83.615 53.6185 82.926 56.757 82.4476 59.6467L85.7009 59.1491L85.433 62.5747C83.7681 62.7278 81.6438 63.1488 79.0603 63.8568L81.3185 50.8053Z" fill="#EB1E50"/>
<path d="M92.4944 49.4083C93.7958 49.4083 94.7143 50.1355 95.2693 51.59C95.5564 52.3363 95.6903 53.1592 95.6903 54.0587C95.6903 54.9198 95.5564 55.8576 95.3076 56.8718C94.8483 58.5942 94.0637 60.1826 92.9537 61.637C91.595 63.4167 90.1406 64.2971 88.6096 64.2971C87.2891 64.2971 86.3514 63.5698 85.7964 62.1154C85.5285 61.4073 85.3945 60.6036 85.3945 59.7233C85.3945 58.843 85.5285 57.9052 85.7964 56.8718C86.2557 55.1303 87.0403 53.542 88.1311 52.0875C89.4899 50.2886 90.9443 49.4083 92.4944 49.4083ZM91.8246 53.9821C91.1548 53.9821 90.4659 54.5371 89.7578 55.647C89.1837 56.5274 88.801 57.3694 88.5713 58.2114C88.4565 58.6516 88.3991 59.0535 88.3991 59.4171C88.3991 59.9146 88.5139 60.3357 88.7627 60.661C89.0497 61.0246 89.4325 61.1968 89.9492 61.1968C90.6381 61.1968 91.2505 60.8332 91.8055 60.106C92.2456 59.5319 92.571 58.843 92.7623 58.0583C92.992 57.1398 93.0494 56.2212 92.9154 55.3217C92.7815 54.4223 92.4179 53.9821 91.8246 53.9821Z" fill="#EB1E50"/>
<path d="M101.069 49.9059C102.351 49.9059 103.289 50.5948 103.901 51.9918L101.815 54.2883C101.528 54.0012 101.203 53.8481 100.839 53.8481C100.189 53.8481 99.5187 54.4031 98.8107 55.5322C98.2366 56.4508 97.8538 57.312 97.6816 58.1157C97.5859 58.4985 97.5476 58.8429 97.5476 59.1491C97.5476 59.972 97.8538 60.5462 98.4471 60.8524C98.6384 60.948 98.8489 61.0055 99.0786 61.0055C99.7101 61.0055 100.38 60.527 101.088 59.5893L101.681 61.7901C100.456 63.1488 99.2317 63.8186 97.9686 63.8186C96.6864 63.8186 95.7487 63.1488 95.1555 61.7901C94.7919 61.0055 94.6196 60.1251 94.6196 59.1491C94.6196 58.4411 94.7153 57.6756 94.8875 56.8718C95.2512 55.226 95.9592 53.7333 96.9926 52.3937C98.2557 50.7288 99.5953 49.9059 101.069 49.9059Z" fill="#EB1E50"/>
<path d="M104.034 50.8053L107.441 50.212C106.828 52.5659 106.331 54.7093 105.948 56.6421L107.479 56.3168L108.417 50.8053L111.823 50.212C110.522 55.2451 109.699 59.5127 109.354 63.0339L106.178 63.8377L107.02 58.8238C106.675 58.9003 106.159 59.0151 105.45 59.1491C105.221 60.6609 105.049 61.9623 104.953 63.0339L101.776 63.8377L104.034 50.8053Z" fill="#EB1E50"/>
</svg>