<svg width="200" height="200" xmlns="http://www.w3.org/2000/svg"><g transform="translate(-658, -1000) scale(3 3)"><style>.st0{fill:#436984}</style><path id="XMLID_42_" class="st0" d="m251.5 348.7-.9.5-2.8-4.6h-3.4l2.2-2.4h-2.1l-1.2-1.9c-.1.1-.3.1-.5.1-1 0-1.8-.8-1.8-1.8s.8-1.9 1.8-1.9 1.8.8 1.8 1.9c0 .5-.2.9-.5 1.3l.9 1.4h3.8l-2.2 2.4h1.6l3.3 5z"/><path id="XMLID_20_" class="st0" d="m254.9 348.7.9.5 2.8-4.6h3.4l-2.2-2.4h2.1l1.2-1.9c.1.1.3.1.5.1 1 0 1.8-.8 1.8-1.8s-.8-1.9-1.8-1.9-1.8.8-1.8 1.9c0 .5.2.9.5 1.3l-.9 1.4h-3.8l2.2 2.4H258l-3.1 5z"/></g><g transform="translate(-826, -1065) scale(3 3)"><style>.st0{fill:#848383}.st1{fill:#f79918}.st5{fill:#9c1845}.st6{fill:#ffdf00}</style><g id="XMLID_2_"><linearGradient id="XMLID_8_" gradientUnits="userSpaceOnUse" x1="309.3" y1="422.2" x2="309.3" y2="393.5" gradientTransform="matrix(1 0 0 -1 0 792)"><stop offset="0" style="stop-color:#ffdf00"/><stop offset=".3" style="stop-color:#ffdc01"/><stop offset=".5" style="stop-color:#fed205"/><stop offset=".7" style="stop-color:#fcc20c"/><stop offset=".9" style="stop-color:#faac16"/><stop offset="1" style="stop-color:#f8961f"/></linearGradient><path id="XMLID_36_" d="M324.7 373.3v17.6c0 1.8-1.5 3.3-3.3 3.3h-7.5a4.5 4.5 0 0 1-9 0h-7.7a3.3 3.3 0 0 1-3.3-3.3v-17.6c0-2 1.6-3.5 3.5-3.5h23.9c1.9 0 3.4 1.6 3.4 3.5z" style="fill:url(#XMLID_8_)"/></g><g id="XMLID_1_"><path id="XMLID_29_" class="st1" d="M293 376.4c1 0 1.8.8 1.8 1.8v5.6c0 1-.8 1.8-1.8 1.8"/><linearGradient id="XMLID_11_" gradientUnits="userSpaceOnUse" x1="293" y1="379.1" x2="295.4" y2="379.1" gradientTransform="translate(0 2)"><stop offset=".3" style="stop-color:#fff"/><stop offset="1" style="stop-color:#acacac"/></linearGradient><path id="XMLID_22_" d="M293 375.9c1.3 0 2.4 1 2.4 2.4v5.6c0 1.3-1 2.4-2.4 2.4m0-1.2c.7 0 1.2-.5 1.2-1.2v-5.6c0-.7-.5-1.2-1.2-1.2" style="fill:url(#XMLID_11_)"/></g><g id="XMLID_5_"><path id="XMLID_21_" class="st1" d="M325.3 385.7c-1 0-1.8-.8-1.8-1.8v-5.6c0-1 .8-1.8 1.8-1.8"/><linearGradient id="XMLID_12_" gradientUnits="userSpaceOnUse" x1="33.7" y1="142.5" x2="36" y2="142.5" gradientTransform="rotate(180 179.5 261.8)"><stop offset=".3" style="stop-color:#fff"/><stop offset="1" style="stop-color:#acacac"/></linearGradient><path id="XMLID_18_" d="M325.3 386.2c-1.3 0-2.4-1-2.4-2.4v-5.6c0-1.3 1-2.4 2.4-2.4m0 1.2c-.7 0-1.2.5-1.2 1.2v5.6c0 .7.5 1.2 1.2 1.2" style="fill:url(#XMLID_12_)"/></g><g id="XMLID_24_"><path id="XMLID_15_" style="fill:#848383" d="M303.4 387.8H315v1h-11.6z"/></g><circle id="XMLID_13_" class="st5" cx="314.9" cy="379.9" r="2.6"/><circle id="XMLID_27_" class="st5" cx="303.3" cy="379.9" r="2.6"/><g id="XMLID_7_"><path id="XMLID_17_" class="st6" d="M322.4 396.2h-25.5c-.4 0-.8.3-.8.8v10.5h27V397c0-.5-.3-.8-.7-.8z"/></g><g id="XMLID_6_"><path id="XMLID_35_" d="M319.9 405.4h-21a.4.4 0 0 1-.4-.4v-6.2c0-.2.2-.4.4-.4h21c.2 0 .4.2.4.4v6.2c0 .2-.2.4-.4.4z" style="fill:#525252"/></g><g id="XMLID_32_"><path id="XMLID_9_" class="st6" d="M327.9 396.8v10.7h-4.4v-10.7c0-.3.3-.6.6-.6h3.2c.3 0 .6.2.6.6z"/></g><g id="XMLID_30_"><path id="XMLID_10_" class="st6" d="M295.7 396.7v10.8h-4.4v-10.8c0-.3.3-.6.6-.6h3.2c.4 0 .6.3.6.6z"/></g><g id="XMLID_4_"><linearGradient id="XMLID_16_" gradientUnits="userSpaceOnUse" x1="299.6" y1="401.9" x2="319" y2="401.9"><stop offset="0.8" style="stop-color:#00e90f"/><stop offset="0" style="stop-color:#00e70f;stop-opacity:.5331"/><stop offset="0" style="stop-color:#00e011;stop-opacity:.365"/><stop offset="0" style="stop-color:#00d513;stop-opacity:.2451"/><stop offset=".9" style="stop-color:#00c416;stop-opacity:.1482"/><stop offset=".9" style="stop-color:#00ae1a;stop-opacity:6.611276e-002"/><stop offset="1" style="stop-color:#00961f;stop-opacity:0"/></linearGradient><path id="XMLID_14_" style="fill:url(#XMLID_16_)" d="M299.6 399.4H319v5h-19.4z"/></g></g><g transform="translate(-601, -1265) scale(3 3)"><linearGradient id="a" gradientUnits="userSpaceOnUse" x1="220.464" y1="444.928" x2="211.179" y2="444.928"><stop offset="0" style="stop-color:#97999c"/><stop offset="1" style="stop-color:#b05fa1"/></linearGradient><path d="M220.5 453.2c0 .6-.6 1.1-1.1.9-1.4-.5-1.3-2-1.3-4V447h-2.2c-.5 0-1-.4-1.2-.9l-3.5-9.4c-.1-.4.2-.8.4-.9.2-.1.8.1.9.4l3.1 8.3h2.7c.2-.9.3-1.7.5-2.4.3-1 1.8-.8 1.8.2l-.1 10.9z" style="fill:url(#a)"/><linearGradient id="b" gradientUnits="userSpaceOnUse" x1="357.885" y1="444.928" x2="348.599" y2="444.928" gradientTransform="matrix(-1 0 0 1 605.832 0)"><stop offset="0" style="stop-color:#97999c"/><stop offset="1" style="stop-color:#b05fa1"/></linearGradient><path d="M247.9 453.2c0 .6.6 1.1 1.1.9 1.4-.5 1.3-2 1.3-4V447h2.2c.5 0 1-.4 1.2-.9l3.4-9.4c.1-.4-.2-.8-.4-.9-.2-.1-.8.1-.9.4l-3.1 8.3H250c-.2-.9-.3-1.7-.5-2.4-.3-1-1.8-.8-1.8.2l.2 10.9z" style="fill:url(#b)"/></g><g transform="translate(-994, -849) scale(3 3)"><style type="text/css">.st10{fill:url(#XMLID_222_);stroke:#ac5d61;stroke-miterlimit:10;}</style><linearGradient id="XMLID_222_" gradientUnits="userSpaceOnUse" x1="377.8606" y1="307.8719" x2="352.5506" y2="307.8719"><stop  offset="0" style="stop-color:#FFFFFF;stop-opacity:0.3"/><stop  offset="1" style="stop-color:#8DD4E0"/></linearGradient><path id="XMLID_39_" class="st10" d="M377.9,305.3v6.9h-9l-3.7-3.5l-3.7,3.5h-9v-6.9c0-1,0.8-1.8,1.8-1.8h21.7C377.1,303.5,377.9,304.3,377.9,305.3z"/></g></svg>