<svg width="500" height="500" xmlns="http://www.w3.org/2000/svg"><defs><linearGradient id="a" x1="0" x2="0" y1="0" y2="1"><stop offset="0"  stop-color="#498855"/><stop offset="1"  stop-color="#a6f3fc"/></linearGradient></defs><pattern id="b"  width="24" height="24" patternUnits="userSpaceOnUse"><circle  fill="#ffffff" cx="12" cy="12" r="12"/></pattern><rect width="100%" height="100%" fill="url(#a)"/><rect width="100%" height="100%" fill="url(#b)" fill-opacity="0.1"/><g id="branch"><line x1="250" y1="500" x2="139" y2="278" stroke="#c2a11f" stroke-width="2" /><line x1="250" y1="500" x2="361" y2="278" stroke="#1b2894" stroke-width="2" /></g><g id="branch"><line x1="139" y1="278" x2="84" y2="168" stroke="#c2a11f" stroke-width="2" /><line x1="139" y1="278" x2="194" y2="168" stroke="#1b2894" stroke-width="2" /></g><g id="branch"><line x1="84" y1="168" x2="57" y2="114" stroke="#c2a11f" stroke-width="2" /><line x1="84" y1="168" x2="111" y2="114" stroke="#1b2894" stroke-width="2" /></g><g id="branch"><line x1="57" y1="114" x2="44" y2="88" stroke="#c2a11f" stroke-width="2" /><line x1="57" y1="114" x2="70" y2="88" stroke="#1b2894" stroke-width="2" /></g><g id="branch"><line x1="44" y1="88" x2="38" y2="76" stroke="#c2a11f" stroke-width="2" /><line x1="44" y1="88" x2="50" y2="76" stroke="#1b2894" stroke-width="2" /></g><g id="branch"><line x1="38" y1="76" x2="35" y2="70" stroke="#c2a11f" stroke-width="2" /><line x1="38" y1="76" x2="41" y2="70" stroke="#1b2894" stroke-width="2" /></g><g id="branch"><line x1="35" y1="70" x2="34" y2="68" stroke="#c2a11f" stroke-width="2" /><line x1="35" y1="70" x2="36" y2="68" stroke="#1b2894" stroke-width="2" /></g><g id="branch"><line x1="35" y1="70" x2="34" y2="68" stroke="#c2a11f" stroke-width="2" /><line x1="35" y1="70" x2="36" y2="68" stroke="#1b2894" stroke-width="2" /></g><g id="branch"><line x1="35" y1="70" x2="34" y2="68" stroke="#c2a11f" stroke-width="2" /><line x1="35" y1="70" x2="36" y2="68" stroke="#1b2894" stroke-width="2" /></g><g id="branch"><line x1="41" y1="70" x2="40" y2="68" stroke="#c2a11f" stroke-width="2" /><line x1="41" y1="70" x2="42" y2="68" stroke="#1b2894" stroke-width="2" /></g><g id="branch"><line x1="41" y1="70" x2="40" y2="68" stroke="#c2a11f" stroke-width="2" /><line x1="41" y1="70" x2="42" y2="68" stroke="#1b2894" stroke-width="2" /></g><g id="branch"><line x1="41" y1="70" x2="40" y2="68" stroke="#c2a11f" stroke-width="2" /><line x1="41" y1="70" x2="42" y2="68" stroke="#1b2894" stroke-width="2" /></g><g id="branch"><line x1="50" y1="76" x2="47" y2="70" stroke="#c2a11f" stroke-width="2" /><line x1="50" y1="76" x2="53" y2="70" stroke="#1b2894" stroke-width="2" /></g><g id="branch"><line x1="47" y1="70" x2="46" y2="68" stroke="#c2a11f" stroke-width="2" /><line x1="47" y1="70" x2="48" y2="68" stroke="#1b2894" stroke-width="2" /></g><g id="branch"><line x1="47" y1="70" x2="46" y2="68" stroke="#c2a11f" stroke-width="2" /><line x1="47" y1="70" x2="48" y2="68" stroke="#1b2894" stroke-width="2" /></g><g id="branch"><line x1="47" y1="70" x2="46" y2="68" stroke="#c2a11f" stroke-width="2" /><line x1="47" y1="70" x2="48" y2="68" stroke="#1b2894" stroke-width="2" /></g><g id="branch"><line x1="53" y1="70" x2="52" y2="68" stroke="#c2a11f" stroke-width="2" /><line x1="53" y1="70" x2="54" y2="68" stroke="#1b2894" stroke-width="2" /></g><g id="branch"><line x1="53" y1="70" x2="52" y2="68" stroke="#c2a11f" stroke-width="2" /><line x1="53" y1="70" x2="54" y2="68" stroke="#1b2894" stroke-width="2" /></g><g id="branch"><line x1="53" y1="70" x2="52" y2="68" stroke="#c2a11f" stroke-width="2" /><line x1="53" y1="70" x2="54" y2="68" stroke="#1b2894" stroke-width="2" /></g><g id="branch"><line x1="70" y1="88" x2="64" y2="76" stroke="#c2a11f" stroke-width="2" /><line x1="70" y1="88" x2="76" y2="76" stroke="#1b2894" stroke-width="2" /></g><g id="branch"><line x1="64" y1="76" x2="61" y2="70" stroke="#c2a11f" stroke-width="2" /><line x1="64" y1="76" x2="67" y2="70" stroke="#1b2894" stroke-width="2" /></g><g id="branch"><line x1="61" y1="70" x2="60" y2="68" stroke="#c2a11f" stroke-width="2" /><line x1="61" y1="70" x2="62" y2="68" stroke="#1b2894" stroke-width="2" /></g><g id="branch"><line x1="61" y1="70" x2="60" y2="68" stroke="#c2a11f" stroke-width="2" /><line x1="61" y1="70" x2="62" y2="68" stroke="#1b2894" stroke-width="2" /></g><g id="branch"><line x1="61" y1="70" x2="60" y2="68" stroke="#c2a11f" stroke-width="2" /><line x1="61" y1="70" x2="62" y2="68" stroke="#1b2894" stroke-width="2" /></g><g id="branch"><line x1="67" y1="70" x2="66" y2="68" stroke="#c2a11f" stroke-width="2" /><line x1="67" y1="70" x2="68" y2="68" stroke="#1b2894" stroke-width="2" /></g><g id="branch"><line x1="67" y1="70" x2="66" y2="68" stroke="#c2a11f" stroke-width="2" /><line x1="67" y1="70" x2="68" y2="68" stroke="#1b2894" stroke-width="2" /></g><g id="branch"><line x1="67" y1="70" x2="66" y2="68" stroke="#c2a11f" stroke-width="2" /><line x1="67" y1="70" x2="68" y2="68" stroke="#1b2894" stroke-width="2" /></g><g id="branch"><line x1="76" y1="76" x2="73" y2="70" stroke="#c2a11f" stroke-width="2" /><line x1="76" y1="76" x2="79" y2="70" stroke="#1b2894" stroke-width="2" /></g><g id="branch"><line x1="73" y1="70" x2="72" y2="68" stroke="#c2a11f" stroke-width="2" /><line x1="73" y1="70" x2="74" y2="68" stroke="#1b2894" stroke-width="2" /></g><g id="branch"><line x1="73" y1="70" x2="72" y2="68" stroke="#c2a11f" stroke-width="2" /><line x1="73" y1="70" x2="74" y2="68" stroke="#1b2894" stroke-width="2" /></g><g id="branch"><line x1="73" y1="70" x2="72" y2="68" stroke="#c2a11f" stroke-width="2" /><line x1="73" y1="70" x2="74" y2="68" stroke="#1b2894" stroke-width="2" /></g><g id="branch"><line x1="79" y1="70" x2="78" y2="68" stroke="#c2a11f" stroke-width="2" /><line x1="79" y1="70" x2="80" y2="68" stroke="#1b2894" stroke-width="2" /></g><g id="branch"><line x1="79" y1="70" x2="78" y2="68" stroke="#c2a11f" stroke-width="2" /><line x1="79" y1="70" x2="80" y2="68" stroke="#1b2894" stroke-width="2" /></g><g id="branch"><line x1="79" y1="70" x2="78" y2="68" stroke="#c2a11f" stroke-width="2" /><line x1="79" y1="70" x2="80" y2="68" stroke="#1b2894" stroke-width="2" /></g><g id="branch"><line x1="111" y1="114" x2="98" y2="88" stroke="#c2a11f" stroke-width="2" /><line x1="111" y1="114" x2="124" y2="88" stroke="#1b2894" stroke-width="2" /></g><g id="branch"><line x1="98" y1="88" x2="92" y2="76" stroke="#c2a11f" stroke-width="2" /><line x1="98" y1="88" x2="104" y2="76" stroke="#1b2894" stroke-width="2" /></g><g id="branch"><line x1="92" y1="76" x2="89" y2="70" stroke="#c2a11f" stroke-width="2" /><line x1="92" y1="76" x2="95" y2="70" stroke="#1b2894" stroke-width="2" /></g><g id="branch"><line x1="89" y1="70" x2="88" y2="68" stroke="#c2a11f" stroke-width="2" /><line x1="89" y1="70" x2="90" y2="68" stroke="#1b2894" stroke-width="2" /></g><g id="branch"><line x1="89" y1="70" x2="88" y2="68" stroke="#c2a11f" stroke-width="2" /><line x1="89" y1="70" x2="90" y2="68" stroke="#1b2894" stroke-width="2" /></g><g id="branch"><line x1="89" y1="70" x2="88" y2="68" stroke="#c2a11f" stroke-width="2" /><line x1="89" y1="70" x2="90" y2="68" stroke="#1b2894" stroke-width="2" /></g><g id="branch"><line x1="95" y1="70" x2="94" y2="68" stroke="#c2a11f" stroke-width="2" /><line x1="95" y1="70" x2="96" y2="68" stroke="#1b2894" stroke-width="2" /></g><g id="branch"><line x1="95" y1="70" x2="94" y2="68" stroke="#c2a11f" stroke-width="2" /><line x1="95" y1="70" x2="96" y2="68" stroke="#1b2894" stroke-width="2" /></g><g id="branch"><line x1="95" y1="70" x2="94" y2="68" stroke="#c2a11f" stroke-width="2" /><line x1="95" y1="70" x2="96" y2="68" stroke="#1b2894" stroke-width="2" /></g><g id="branch"><line x1="104" y1="76" x2="101" y2="70" stroke="#c2a11f" stroke-width="2" /><line x1="104" y1="76" x2="107" y2="70" stroke="#1b2894" stroke-width="2" /></g><g id="branch"><line x1="101" y1="70" x2="100" y2="68" stroke="#c2a11f" stroke-width="2" /><line x1="101" y1="70" x2="102" y2="68" stroke="#1b2894" stroke-width="2" /></g><g id="branch"><line x1="101" y1="70" x2="100" y2="68" stroke="#c2a11f" stroke-width="2" /><line x1="101" y1="70" x2="102" y2="68" stroke="#1b2894" stroke-width="2" /></g><g id="branch"><line x1="101" y1="70" x2="100" y2="68" stroke="#c2a11f" stroke-width="2" /><line x1="101" y1="70" x2="102" y2="68" stroke="#1b2894" stroke-width="2" /></g><g id="branch"><line x1="107" y1="70" x2="106" y2="68" stroke="#c2a11f" stroke-width="2" /><line x1="107" y1="70" x2="108" y2="68" stroke="#1b2894" stroke-width="2" /></g><g id="branch"><line x1="107" y1="70" x2="106" y2="68" stroke="#c2a11f" stroke-width="2" /><line x1="107" y1="70" x2="108" y2="68" stroke="#1b2894" stroke-width="2" /></g><g id="branch"><line x1="107" y1="70" x2="106" y2="68" stroke="#c2a11f" stroke-width="2" /><line x1="107" y1="70" x2="108" y2="68" stroke="#1b2894" stroke-width="2" /></g><g id="branch"><line x1="124" y1="88" x2="118" y2="76" stroke="#c2a11f" stroke-width="2" /><line x1="124" y1="88" x2="130" y2="76" stroke="#1b2894" stroke-width="2" /></g><g id="branch"><line x1="118" y1="76" x2="115" y2="70" stroke="#c2a11f" stroke-width="2" /><line x1="118" y1="76" x2="121" y2="70" stroke="#1b2894" stroke-width="2" /></g><g id="branch"><line x1="115" y1="70" x2="114" y2="68" stroke="#c2a11f" stroke-width="2" /><line x1="115" y1="70" x2="116" y2="68" stroke="#1b2894" stroke-width="2" /></g><g id="branch"><line x1="115" y1="70" x2="114" y2="68" stroke="#c2a11f" stroke-width="2" /><line x1="115" y1="70" x2="116" y2="68" stroke="#1b2894" stroke-width="2" /></g><g id="branch"><line x1="115" y1="70" x2="114" y2="68" stroke="#c2a11f" stroke-width="2" /><line x1="115" y1="70" x2="116" y2="68" stroke="#1b2894" stroke-width="2" /></g><g id="branch"><line x1="121" y1="70" x2="120" y2="68" stroke="#c2a11f" stroke-width="2" /><line x1="121" y1="70" x2="122" y2="68" stroke="#1b2894" stroke-width="2" /></g><g id="branch"><line x1="121" y1="70" x2="120" y2="68" stroke="#c2a11f" stroke-width="2" /><line x1="121" y1="70" x2="122" y2="68" stroke="#1b2894" stroke-width="2" /></g><g id="branch"><line x1="121" y1="70" x2="120" y2="68" stroke="#c2a11f" stroke-width="2" /><line x1="121" y1="70" x2="122" y2="68" stroke="#1b2894" stroke-width="2" /></g><g id="branch"><line x1="130" y1="76" x2="127" y2="70" stroke="#c2a11f" stroke-width="2" /><line x1="130" y1="76" x2="133" y2="70" stroke="#1b2894" stroke-width="2" /></g><g id="branch"><line x1="127" y1="70" x2="126" y2="68" stroke="#c2a11f" stroke-width="2" /><line x1="127" y1="70" x2="128" y2="68" stroke="#1b2894" stroke-width="2" /></g><g id="branch"><line x1="127" y1="70" x2="126" y2="68" stroke="#c2a11f" stroke-width="2" /><line x1="127" y1="70" x2="128" y2="68" stroke="#1b2894" stroke-width="2" /></g><g id="branch"><line x1="127" y1="70" x2="126" y2="68" stroke="#c2a11f" stroke-width="2" /><line x1="127" y1="70" x2="128" y2="68" stroke="#1b2894" stroke-width="2" /></g><g id="branch"><line x1="133" y1="70" x2="132" y2="68" stroke="#c2a11f" stroke-width="2" /><line x1="133" y1="70" x2="134" y2="68" stroke="#1b2894" stroke-width="2" /></g><g id="branch"><line x1="133" y1="70" x2="132" y2="68" stroke="#c2a11f" stroke-width="2" /><line x1="133" y1="70" x2="134" y2="68" stroke="#1b2894" stroke-width="2" /></g><g id="branch"><line x1="133" y1="70" x2="132" y2="68" stroke="#c2a11f" stroke-width="2" /><line x1="133" y1="70" x2="134" y2="68" stroke="#1b2894" stroke-width="2" /></g><g id="branch"><line x1="194" y1="168" x2="167" y2="114" stroke="#c2a11f" stroke-width="2" /><line x1="194" y1="168" x2="221" y2="114" stroke="#1b2894" stroke-width="2" /></g><g id="branch"><line x1="167" y1="114" x2="154" y2="88" stroke="#c2a11f" stroke-width="2" /><line x1="167" y1="114" x2="180" y2="88" stroke="#1b2894" stroke-width="2" /></g><g id="branch"><line x1="154" y1="88" x2="148" y2="76" stroke="#c2a11f" stroke-width="2" /><line x1="154" y1="88" x2="160" y2="76" stroke="#1b2894" stroke-width="2" /></g><g id="branch"><line x1="148" y1="76" x2="145" y2="70" stroke="#c2a11f" stroke-width="2" /><line x1="148" y1="76" x2="151" y2="70" stroke="#1b2894" stroke-width="2" /></g><g id="branch"><line x1="145" y1="70" x2="144" y2="68" stroke="#c2a11f" stroke-width="2" /><line x1="145" y1="70" x2="146" y2="68" stroke="#1b2894" stroke-width="2" /></g><g id="branch"><line x1="145" y1="70" x2="144" y2="68" stroke="#c2a11f" stroke-width="2" /><line x1="145" y1="70" x2="146" y2="68" stroke="#1b2894" stroke-width="2" /></g><g id="branch"><line x1="145" y1="70" x2="144" y2="68" stroke="#c2a11f" stroke-width="2" /><line x1="145" y1="70" x2="146" y2="68" stroke="#1b2894" stroke-width="2" /></g><g id="branch"><line x1="151" y1="70" x2="150" y2="68" stroke="#c2a11f" stroke-width="2" /><line x1="151" y1="70" x2="152" y2="68" stroke="#1b2894" stroke-width="2" /></g><g id="branch"><line x1="151" y1="70" x2="150" y2="68" stroke="#c2a11f" stroke-width="2" /><line x1="151" y1="70" x2="152" y2="68" stroke="#1b2894" stroke-width="2" /></g><g id="branch"><line x1="151" y1="70" x2="150" y2="68" stroke="#c2a11f" stroke-width="2" /><line x1="151" y1="70" x2="152" y2="68" stroke="#1b2894" stroke-width="2" /></g><g id="branch"><line x1="160" y1="76" x2="157" y2="70" stroke="#c2a11f" stroke-width="2" /><line x1="160" y1="76" x2="163" y2="70" stroke="#1b2894" stroke-width="2" /></g><g id="branch"><line x1="157" y1="70" x2="156" y2="68" stroke="#c2a11f" stroke-width="2" /><line x1="157" y1="70" x2="158" y2="68" stroke="#1b2894" stroke-width="2" /></g><g id="branch"><line x1="157" y1="70" x2="156" y2="68" stroke="#c2a11f" stroke-width="2" /><line x1="157" y1="70" x2="158" y2="68" stroke="#1b2894" stroke-width="2" /></g><g id="branch"><line x1="157" y1="70" x2="156" y2="68" stroke="#c2a11f" stroke-width="2" /><line x1="157" y1="70" x2="158" y2="68" stroke="#1b2894" stroke-width="2" /></g><g id="branch"><line x1="163" y1="70" x2="162" y2="68" stroke="#c2a11f" stroke-width="2" /><line x1="163" y1="70" x2="164" y2="68" stroke="#1b2894" stroke-width="2" /></g><g id="branch"><line x1="163" y1="70" x2="162" y2="68" stroke="#c2a11f" stroke-width="2" /><line x1="163" y1="70" x2="164" y2="68" stroke="#1b2894" stroke-width="2" /></g><g id="branch"><line x1="163" y1="70" x2="162" y2="68" stroke="#c2a11f" stroke-width="2" /><line x1="163" y1="70" x2="164" y2="68" stroke="#1b2894" stroke-width="2" /></g><g id="branch"><line x1="180" y1="88" x2="174" y2="76" stroke="#c2a11f" stroke-width="2" /><line x1="180" y1="88" x2="186" y2="76" stroke="#1b2894" stroke-width="2" /></g><g id="branch"><line x1="174" y1="76" x2="171" y2="70" stroke="#c2a11f" stroke-width="2" /><line x1="174" y1="76" x2="177" y2="70" stroke="#1b2894" stroke-width="2" /></g><g id="branch"><line x1="171" y1="70" x2="170" y2="68" stroke="#c2a11f" stroke-width="2" /><line x1="171" y1="70" x2="172" y2="68" stroke="#1b2894" stroke-width="2" /></g><g id="branch"><line x1="171" y1="70" x2="170" y2="68" stroke="#c2a11f" stroke-width="2" /><line x1="171" y1="70" x2="172" y2="68" stroke="#1b2894" stroke-width="2" /></g><g id="branch"><line x1="171" y1="70" x2="170" y2="68" stroke="#c2a11f" stroke-width="2" /><line x1="171" y1="70" x2="172" y2="68" stroke="#1b2894" stroke-width="2" /></g><g id="branch"><line x1="177" y1="70" x2="176" y2="68" stroke="#c2a11f" stroke-width="2" /><line x1="177" y1="70" x2="178" y2="68" stroke="#1b2894" stroke-width="2" /></g><g id="branch"><line x1="177" y1="70" x2="176" y2="68" stroke="#c2a11f" stroke-width="2" /><line x1="177" y1="70" x2="178" y2="68" stroke="#1b2894" stroke-width="2" /></g><g id="branch"><line x1="177" y1="70" x2="176" y2="68" stroke="#c2a11f" stroke-width="2" /><line x1="177" y1="70" x2="178" y2="68" stroke="#1b2894" stroke-width="2" /></g><g id="branch"><line x1="186" y1="76" x2="183" y2="70" stroke="#c2a11f" stroke-width="2" /><line x1="186" y1="76" x2="189" y2="70" stroke="#1b2894" stroke-width="2" /></g><g id="branch"><line x1="183" y1="70" x2="182" y2="68" stroke="#c2a11f" stroke-width="2" /><line x1="183" y1="70" x2="184" y2="68" stroke="#1b2894" stroke-width="2" /></g><g id="branch"><line x1="183" y1="70" x2="182" y2="68" stroke="#c2a11f" stroke-width="2" /><line x1="183" y1="70" x2="184" y2="68" stroke="#1b2894" stroke-width="2" /></g><g id="branch"><line x1="183" y1="70" x2="182" y2="68" stroke="#c2a11f" stroke-width="2" /><line x1="183" y1="70" x2="184" y2="68" stroke="#1b2894" stroke-width="2" /></g><g id="branch"><line x1="189" y1="70" x2="188" y2="68" stroke="#c2a11f" stroke-width="2" /><line x1="189" y1="70" x2="190" y2="68" stroke="#1b2894" stroke-width="2" /></g><g id="branch"><line x1="189" y1="70" x2="188" y2="68" stroke="#c2a11f" stroke-width="2" /><line x1="189" y1="70" x2="190" y2="68" stroke="#1b2894" stroke-width="2" /></g><g id="branch"><line x1="189" y1="70" x2="188" y2="68" stroke="#c2a11f" stroke-width="2" /><line x1="189" y1="70" x2="190" y2="68" stroke="#1b2894" stroke-width="2" /></g><g id="branch"><line x1="221" y1="114" x2="208" y2="88" stroke="#c2a11f" stroke-width="2" /><line x1="221" y1="114" x2="234" y2="88" stroke="#1b2894" stroke-width="2" /></g><g id="branch"><line x1="208" y1="88" x2="202" y2="76" stroke="#c2a11f" stroke-width="2" /><line x1="208" y1="88" x2="214" y2="76" stroke="#1b2894" stroke-width="2" /></g><g id="branch"><line x1="202" y1="76" x2="199" y2="70" stroke="#c2a11f" stroke-width="2" /><line x1="202" y1="76" x2="205" y2="70" stroke="#1b2894" stroke-width="2" /></g><g id="branch"><line x1="199" y1="70" x2="198" y2="68" stroke="#c2a11f" stroke-width="2" /><line x1="199" y1="70" x2="200" y2="68" stroke="#1b2894" stroke-width="2" /></g><g id="branch"><line x1="199" y1="70" x2="198" y2="68" stroke="#c2a11f" stroke-width="2" /><line x1="199" y1="70" x2="200" y2="68" stroke="#1b2894" stroke-width="2" /></g><g id="branch"><line x1="199" y1="70" x2="198" y2="68" stroke="#c2a11f" stroke-width="2" /><line x1="199" y1="70" x2="200" y2="68" stroke="#1b2894" stroke-width="2" /></g><g id="branch"><line x1="205" y1="70" x2="204" y2="68" stroke="#c2a11f" stroke-width="2" /><line x1="205" y1="70" x2="206" y2="68" stroke="#1b2894" stroke-width="2" /></g><g id="branch"><line x1="205" y1="70" x2="204" y2="68" stroke="#c2a11f" stroke-width="2" /><line x1="205" y1="70" x2="206" y2="68" stroke="#1b2894" stroke-width="2" /></g><g id="branch"><line x1="205" y1="70" x2="204" y2="68" stroke="#c2a11f" stroke-width="2" /><line x1="205" y1="70" x2="206" y2="68" stroke="#1b2894" stroke-width="2" /></g><g id="branch"><line x1="214" y1="76" x2="211" y2="70" stroke="#c2a11f" stroke-width="2" /><line x1="214" y1="76" x2="217" y2="70" stroke="#1b2894" stroke-width="2" /></g><g id="branch"><line x1="211" y1="70" x2="210" y2="68" stroke="#c2a11f" stroke-width="2" /><line x1="211" y1="70" x2="212" y2="68" stroke="#1b2894" stroke-width="2" /></g><g id="branch"><line x1="211" y1="70" x2="210" y2="68" stroke="#c2a11f" stroke-width="2" /><line x1="211" y1="70" x2="212" y2="68" stroke="#1b2894" stroke-width="2" /></g><g id="branch"><line x1="211" y1="70" x2="210" y2="68" stroke="#c2a11f" stroke-width="2" /><line x1="211" y1="70" x2="212" y2="68" stroke="#1b2894" stroke-width="2" /></g><g id="branch"><line x1="217" y1="70" x2="216" y2="68" stroke="#c2a11f" stroke-width="2" /><line x1="217" y1="70" x2="218" y2="68" stroke="#1b2894" stroke-width="2" /></g><g id="branch"><line x1="217" y1="70" x2="216" y2="68" stroke="#c2a11f" stroke-width="2" /><line x1="217" y1="70" x2="218" y2="68" stroke="#1b2894" stroke-width="2" /></g><g id="branch"><line x1="217" y1="70" x2="216" y2="68" stroke="#c2a11f" stroke-width="2" /><line x1="217" y1="70" x2="218" y2="68" stroke="#1b2894" stroke-width="2" /></g><g id="branch"><line x1="234" y1="88" x2="228" y2="76" stroke="#c2a11f" stroke-width="2" /><line x1="234" y1="88" x2="240" y2="76" stroke="#1b2894" stroke-width="2" /></g><g id="branch"><line x1="228" y1="76" x2="225" y2="70" stroke="#c2a11f" stroke-width="2" /><line x1="228" y1="76" x2="231" y2="70" stroke="#1b2894" stroke-width="2" /></g><g id="branch"><line x1="225" y1="70" x2="224" y2="68" stroke="#c2a11f" stroke-width="2" /><line x1="225" y1="70" x2="226" y2="68" stroke="#1b2894" stroke-width="2" /></g><g id="branch"><line x1="225" y1="70" x2="224" y2="68" stroke="#c2a11f" stroke-width="2" /><line x1="225" y1="70" x2="226" y2="68" stroke="#1b2894" stroke-width="2" /></g><g id="branch"><line x1="225" y1="70" x2="224" y2="68" stroke="#c2a11f" stroke-width="2" /><line x1="225" y1="70" x2="226" y2="68" stroke="#1b2894" stroke-width="2" /></g><g id="branch"><line x1="231" y1="70" x2="230" y2="68" stroke="#c2a11f" stroke-width="2" /><line x1="231" y1="70" x2="232" y2="68" stroke="#1b2894" stroke-width="2" /></g><g id="branch"><line x1="231" y1="70" x2="230" y2="68" stroke="#c2a11f" stroke-width="2" /><line x1="231" y1="70" x2="232" y2="68" stroke="#1b2894" stroke-width="2" /></g><g id="branch"><line x1="231" y1="70" x2="230" y2="68" stroke="#c2a11f" stroke-width="2" /><line x1="231" y1="70" x2="232" y2="68" stroke="#1b2894" stroke-width="2" /></g><g id="branch"><line x1="240" y1="76" x2="237" y2="70" stroke="#c2a11f" stroke-width="2" /><line x1="240" y1="76" x2="243" y2="70" stroke="#1b2894" stroke-width="2" /></g><g id="branch"><line x1="237" y1="70" x2="236" y2="68" stroke="#c2a11f" stroke-width="2" /><line x1="237" y1="70" x2="238" y2="68" stroke="#1b2894" stroke-width="2" /></g><g id="branch"><line x1="237" y1="70" x2="236" y2="68" stroke="#c2a11f" stroke-width="2" /><line x1="237" y1="70" x2="238" y2="68" stroke="#1b2894" stroke-width="2" /></g><g id="branch"><line x1="237" y1="70" x2="236" y2="68" stroke="#c2a11f" stroke-width="2" /><line x1="237" y1="70" x2="238" y2="68" stroke="#1b2894" stroke-width="2" /></g><g id="branch"><line x1="243" y1="70" x2="242" y2="68" stroke="#c2a11f" stroke-width="2" /><line x1="243" y1="70" x2="244" y2="68" stroke="#1b2894" stroke-width="2" /></g><g id="branch"><line x1="243" y1="70" x2="242" y2="68" stroke="#c2a11f" stroke-width="2" /><line x1="243" y1="70" x2="244" y2="68" stroke="#1b2894" stroke-width="2" /></g><g id="branch"><line x1="243" y1="70" x2="242" y2="68" stroke="#c2a11f" stroke-width="2" /><line x1="243" y1="70" x2="244" y2="68" stroke="#1b2894" stroke-width="2" /></g><g id="branch"><line x1="361" y1="278" x2="306" y2="168" stroke="#c2a11f" stroke-width="2" /><line x1="361" y1="278" x2="416" y2="168" stroke="#1b2894" stroke-width="2" /></g><g id="branch"><line x1="306" y1="168" x2="279" y2="114" stroke="#c2a11f" stroke-width="2" /><line x1="306" y1="168" x2="333" y2="114" stroke="#1b2894" stroke-width="2" /></g><g id="branch"><line x1="279" y1="114" x2="266" y2="88" stroke="#c2a11f" stroke-width="2" /><line x1="279" y1="114" x2="292" y2="88" stroke="#1b2894" stroke-width="2" /></g><g id="branch"><line x1="266" y1="88" x2="260" y2="76" stroke="#c2a11f" stroke-width="2" /><line x1="266" y1="88" x2="272" y2="76" stroke="#1b2894" stroke-width="2" /></g><g id="branch"><line x1="260" y1="76" x2="257" y2="70" stroke="#c2a11f" stroke-width="2" /><line x1="260" y1="76" x2="263" y2="70" stroke="#1b2894" stroke-width="2" /></g><g id="branch"><line x1="257" y1="70" x2="256" y2="68" stroke="#c2a11f" stroke-width="2" /><line x1="257" y1="70" x2="258" y2="68" stroke="#1b2894" stroke-width="2" /></g><g id="branch"><line x1="257" y1="70" x2="256" y2="68" stroke="#c2a11f" stroke-width="2" /><line x1="257" y1="70" x2="258" y2="68" stroke="#1b2894" stroke-width="2" /></g><g id="branch"><line x1="257" y1="70" x2="256" y2="68" stroke="#c2a11f" stroke-width="2" /><line x1="257" y1="70" x2="258" y2="68" stroke="#1b2894" stroke-width="2" /></g><g id="branch"><line x1="263" y1="70" x2="262" y2="68" stroke="#c2a11f" stroke-width="2" /><line x1="263" y1="70" x2="264" y2="68" stroke="#1b2894" stroke-width="2" /></g><g id="branch"><line x1="263" y1="70" x2="262" y2="68" stroke="#c2a11f" stroke-width="2" /><line x1="263" y1="70" x2="264" y2="68" stroke="#1b2894" stroke-width="2" /></g><g id="branch"><line x1="263" y1="70" x2="262" y2="68" stroke="#c2a11f" stroke-width="2" /><line x1="263" y1="70" x2="264" y2="68" stroke="#1b2894" stroke-width="2" /></g><g id="branch"><line x1="272" y1="76" x2="269" y2="70" stroke="#c2a11f" stroke-width="2" /><line x1="272" y1="76" x2="275" y2="70" stroke="#1b2894" stroke-width="2" /></g><g id="branch"><line x1="269" y1="70" x2="268" y2="68" stroke="#c2a11f" stroke-width="2" /><line x1="269" y1="70" x2="270" y2="68" stroke="#1b2894" stroke-width="2" /></g><g id="branch"><line x1="269" y1="70" x2="268" y2="68" stroke="#c2a11f" stroke-width="2" /><line x1="269" y1="70" x2="270" y2="68" stroke="#1b2894" stroke-width="2" /></g><g id="branch"><line x1="269" y1="70" x2="268" y2="68" stroke="#c2a11f" stroke-width="2" /><line x1="269" y1="70" x2="270" y2="68" stroke="#1b2894" stroke-width="2" /></g><g id="branch"><line x1="275" y1="70" x2="274" y2="68" stroke="#c2a11f" stroke-width="2" /><line x1="275" y1="70" x2="276" y2="68" stroke="#1b2894" stroke-width="2" /></g><g id="branch"><line x1="275" y1="70" x2="274" y2="68" stroke="#c2a11f" stroke-width="2" /><line x1="275" y1="70" x2="276" y2="68" stroke="#1b2894" stroke-width="2" /></g><g id="branch"><line x1="275" y1="70" x2="274" y2="68" stroke="#c2a11f" stroke-width="2" /><line x1="275" y1="70" x2="276" y2="68" stroke="#1b2894" stroke-width="2" /></g><g id="branch"><line x1="292" y1="88" x2="286" y2="76" stroke="#c2a11f" stroke-width="2" /><line x1="292" y1="88" x2="298" y2="76" stroke="#1b2894" stroke-width="2" /></g><g id="branch"><line x1="286" y1="76" x2="283" y2="70" stroke="#c2a11f" stroke-width="2" /><line x1="286" y1="76" x2="289" y2="70" stroke="#1b2894" stroke-width="2" /></g><g id="branch"><line x1="283" y1="70" x2="282" y2="68" stroke="#c2a11f" stroke-width="2" /><line x1="283" y1="70" x2="284" y2="68" stroke="#1b2894" stroke-width="2" /></g><g id="branch"><line x1="283" y1="70" x2="282" y2="68" stroke="#c2a11f" stroke-width="2" /><line x1="283" y1="70" x2="284" y2="68" stroke="#1b2894" stroke-width="2" /></g><g id="branch"><line x1="283" y1="70" x2="282" y2="68" stroke="#c2a11f" stroke-width="2" /><line x1="283" y1="70" x2="284" y2="68" stroke="#1b2894" stroke-width="2" /></g><g id="branch"><line x1="289" y1="70" x2="288" y2="68" stroke="#c2a11f" stroke-width="2" /><line x1="289" y1="70" x2="290" y2="68" stroke="#1b2894" stroke-width="2" /></g><g id="branch"><line x1="289" y1="70" x2="288" y2="68" stroke="#c2a11f" stroke-width="2" /><line x1="289" y1="70" x2="290" y2="68" stroke="#1b2894" stroke-width="2" /></g><g id="branch"><line x1="289" y1="70" x2="288" y2="68" stroke="#c2a11f" stroke-width="2" /><line x1="289" y1="70" x2="290" y2="68" stroke="#1b2894" stroke-width="2" /></g><g id="branch"><line x1="298" y1="76" x2="295" y2="70" stroke="#c2a11f" stroke-width="2" /><line x1="298" y1="76" x2="301" y2="70" stroke="#1b2894" stroke-width="2" /></g><g id="branch"><line x1="295" y1="70" x2="294" y2="68" stroke="#c2a11f" stroke-width="2" /><line x1="295" y1="70" x2="296" y2="68" stroke="#1b2894" stroke-width="2" /></g><g id="branch"><line x1="295" y1="70" x2="294" y2="68" stroke="#c2a11f" stroke-width="2" /><line x1="295" y1="70" x2="296" y2="68" stroke="#1b2894" stroke-width="2" /></g><g id="branch"><line x1="295" y1="70" x2="294" y2="68" stroke="#c2a11f" stroke-width="2" /><line x1="295" y1="70" x2="296" y2="68" stroke="#1b2894" stroke-width="2" /></g><g id="branch"><line x1="301" y1="70" x2="300" y2="68" stroke="#c2a11f" stroke-width="2" /><line x1="301" y1="70" x2="302" y2="68" stroke="#1b2894" stroke-width="2" /></g><g id="branch"><line x1="301" y1="70" x2="300" y2="68" stroke="#c2a11f" stroke-width="2" /><line x1="301" y1="70" x2="302" y2="68" stroke="#1b2894" stroke-width="2" /></g><g id="branch"><line x1="301" y1="70" x2="300" y2="68" stroke="#c2a11f" stroke-width="2" /><line x1="301" y1="70" x2="302" y2="68" stroke="#1b2894" stroke-width="2" /></g><g id="branch"><line x1="333" y1="114" x2="320" y2="88" stroke="#c2a11f" stroke-width="2" /><line x1="333" y1="114" x2="346" y2="88" stroke="#1b2894" stroke-width="2" /></g><g id="branch"><line x1="320" y1="88" x2="314" y2="76" stroke="#c2a11f" stroke-width="2" /><line x1="320" y1="88" x2="326" y2="76" stroke="#1b2894" stroke-width="2" /></g><g id="branch"><line x1="314" y1="76" x2="311" y2="70" stroke="#c2a11f" stroke-width="2" /><line x1="314" y1="76" x2="317" y2="70" stroke="#1b2894" stroke-width="2" /></g><g id="branch"><line x1="311" y1="70" x2="310" y2="68" stroke="#c2a11f" stroke-width="2" /><line x1="311" y1="70" x2="312" y2="68" stroke="#1b2894" stroke-width="2" /></g><g id="branch"><line x1="311" y1="70" x2="310" y2="68" stroke="#c2a11f" stroke-width="2" /><line x1="311" y1="70" x2="312" y2="68" stroke="#1b2894" stroke-width="2" /></g><g id="branch"><line x1="311" y1="70" x2="310" y2="68" stroke="#c2a11f" stroke-width="2" /><line x1="311" y1="70" x2="312" y2="68" stroke="#1b2894" stroke-width="2" /></g><g id="branch"><line x1="317" y1="70" x2="316" y2="68" stroke="#c2a11f" stroke-width="2" /><line x1="317" y1="70" x2="318" y2="68" stroke="#1b2894" stroke-width="2" /></g><g id="branch"><line x1="317" y1="70" x2="316" y2="68" stroke="#c2a11f" stroke-width="2" /><line x1="317" y1="70" x2="318" y2="68" stroke="#1b2894" stroke-width="2" /></g><g id="branch"><line x1="317" y1="70" x2="316" y2="68" stroke="#c2a11f" stroke-width="2" /><line x1="317" y1="70" x2="318" y2="68" stroke="#1b2894" stroke-width="2" /></g><g id="branch"><line x1="326" y1="76" x2="323" y2="70" stroke="#c2a11f" stroke-width="2" /><line x1="326" y1="76" x2="329" y2="70" stroke="#1b2894" stroke-width="2" /></g><g id="branch"><line x1="323" y1="70" x2="322" y2="68" stroke="#c2a11f" stroke-width="2" /><line x1="323" y1="70" x2="324" y2="68" stroke="#1b2894" stroke-width="2" /></g><g id="branch"><line x1="323" y1="70" x2="322" y2="68" stroke="#c2a11f" stroke-width="2" /><line x1="323" y1="70" x2="324" y2="68" stroke="#1b2894" stroke-width="2" /></g><g id="branch"><line x1="323" y1="70" x2="322" y2="68" stroke="#c2a11f" stroke-width="2" /><line x1="323" y1="70" x2="324" y2="68" stroke="#1b2894" stroke-width="2" /></g><g id="branch"><line x1="329" y1="70" x2="328" y2="68" stroke="#c2a11f" stroke-width="2" /><line x1="329" y1="70" x2="330" y2="68" stroke="#1b2894" stroke-width="2" /></g><g id="branch"><line x1="329" y1="70" x2="328" y2="68" stroke="#c2a11f" stroke-width="2" /><line x1="329" y1="70" x2="330" y2="68" stroke="#1b2894" stroke-width="2" /></g><g id="branch"><line x1="329" y1="70" x2="328" y2="68" stroke="#c2a11f" stroke-width="2" /><line x1="329" y1="70" x2="330" y2="68" stroke="#1b2894" stroke-width="2" /></g><g id="branch"><line x1="346" y1="88" x2="340" y2="76" stroke="#c2a11f" stroke-width="2" /><line x1="346" y1="88" x2="352" y2="76" stroke="#1b2894" stroke-width="2" /></g><g id="branch"><line x1="340" y1="76" x2="337" y2="70" stroke="#c2a11f" stroke-width="2" /><line x1="340" y1="76" x2="343" y2="70" stroke="#1b2894" stroke-width="2" /></g><g id="branch"><line x1="337" y1="70" x2="336" y2="68" stroke="#c2a11f" stroke-width="2" /><line x1="337" y1="70" x2="338" y2="68" stroke="#1b2894" stroke-width="2" /></g><g id="branch"><line x1="337" y1="70" x2="336" y2="68" stroke="#c2a11f" stroke-width="2" /><line x1="337" y1="70" x2="338" y2="68" stroke="#1b2894" stroke-width="2" /></g><g id="branch"><line x1="337" y1="70" x2="336" y2="68" stroke="#c2a11f" stroke-width="2" /><line x1="337" y1="70" x2="338" y2="68" stroke="#1b2894" stroke-width="2" /></g><g id="branch"><line x1="343" y1="70" x2="342" y2="68" stroke="#c2a11f" stroke-width="2" /><line x1="343" y1="70" x2="344" y2="68" stroke="#1b2894" stroke-width="2" /></g><g id="branch"><line x1="343" y1="70" x2="342" y2="68" stroke="#c2a11f" stroke-width="2" /><line x1="343" y1="70" x2="344" y2="68" stroke="#1b2894" stroke-width="2" /></g><g id="branch"><line x1="343" y1="70" x2="342" y2="68" stroke="#c2a11f" stroke-width="2" /><line x1="343" y1="70" x2="344" y2="68" stroke="#1b2894" stroke-width="2" /></g><g id="branch"><line x1="352" y1="76" x2="349" y2="70" stroke="#c2a11f" stroke-width="2" /><line x1="352" y1="76" x2="355" y2="70" stroke="#1b2894" stroke-width="2" /></g><g id="branch"><line x1="349" y1="70" x2="348" y2="68" stroke="#c2a11f" stroke-width="2" /><line x1="349" y1="70" x2="350" y2="68" stroke="#1b2894" stroke-width="2" /></g><g id="branch"><line x1="349" y1="70" x2="348" y2="68" stroke="#c2a11f" stroke-width="2" /><line x1="349" y1="70" x2="350" y2="68" stroke="#1b2894" stroke-width="2" /></g><g id="branch"><line x1="349" y1="70" x2="348" y2="68" stroke="#c2a11f" stroke-width="2" /><line x1="349" y1="70" x2="350" y2="68" stroke="#1b2894" stroke-width="2" /></g><g id="branch"><line x1="355" y1="70" x2="354" y2="68" stroke="#c2a11f" stroke-width="2" /><line x1="355" y1="70" x2="356" y2="68" stroke="#1b2894" stroke-width="2" /></g><g id="branch"><line x1="355" y1="70" x2="354" y2="68" stroke="#c2a11f" stroke-width="2" /><line x1="355" y1="70" x2="356" y2="68" stroke="#1b2894" stroke-width="2" /></g><g id="branch"><line x1="355" y1="70" x2="354" y2="68" stroke="#c2a11f" stroke-width="2" /><line x1="355" y1="70" x2="356" y2="68" stroke="#1b2894" stroke-width="2" /></g><g id="branch"><line x1="416" y1="168" x2="389" y2="114" stroke="#c2a11f" stroke-width="2" /><line x1="416" y1="168" x2="443" y2="114" stroke="#1b2894" stroke-width="2" /></g><g id="branch"><line x1="389" y1="114" x2="376" y2="88" stroke="#c2a11f" stroke-width="2" /><line x1="389" y1="114" x2="402" y2="88" stroke="#1b2894" stroke-width="2" /></g><g id="branch"><line x1="376" y1="88" x2="370" y2="76" stroke="#c2a11f" stroke-width="2" /><line x1="376" y1="88" x2="382" y2="76" stroke="#1b2894" stroke-width="2" /></g><g id="branch"><line x1="370" y1="76" x2="367" y2="70" stroke="#c2a11f" stroke-width="2" /><line x1="370" y1="76" x2="373" y2="70" stroke="#1b2894" stroke-width="2" /></g><g id="branch"><line x1="367" y1="70" x2="366" y2="68" stroke="#c2a11f" stroke-width="2" /><line x1="367" y1="70" x2="368" y2="68" stroke="#1b2894" stroke-width="2" /></g><g id="branch"><line x1="367" y1="70" x2="366" y2="68" stroke="#c2a11f" stroke-width="2" /><line x1="367" y1="70" x2="368" y2="68" stroke="#1b2894" stroke-width="2" /></g><g id="branch"><line x1="367" y1="70" x2="366" y2="68" stroke="#c2a11f" stroke-width="2" /><line x1="367" y1="70" x2="368" y2="68" stroke="#1b2894" stroke-width="2" /></g><g id="branch"><line x1="373" y1="70" x2="372" y2="68" stroke="#c2a11f" stroke-width="2" /><line x1="373" y1="70" x2="374" y2="68" stroke="#1b2894" stroke-width="2" /></g><g id="branch"><line x1="373" y1="70" x2="372" y2="68" stroke="#c2a11f" stroke-width="2" /><line x1="373" y1="70" x2="374" y2="68" stroke="#1b2894" stroke-width="2" /></g><g id="branch"><line x1="373" y1="70" x2="372" y2="68" stroke="#c2a11f" stroke-width="2" /><line x1="373" y1="70" x2="374" y2="68" stroke="#1b2894" stroke-width="2" /></g><g id="branch"><line x1="382" y1="76" x2="379" y2="70" stroke="#c2a11f" stroke-width="2" /><line x1="382" y1="76" x2="385" y2="70" stroke="#1b2894" stroke-width="2" /></g><g id="branch"><line x1="379" y1="70" x2="378" y2="68" stroke="#c2a11f" stroke-width="2" /><line x1="379" y1="70" x2="380" y2="68" stroke="#1b2894" stroke-width="2" /></g><g id="branch"><line x1="379" y1="70" x2="378" y2="68" stroke="#c2a11f" stroke-width="2" /><line x1="379" y1="70" x2="380" y2="68" stroke="#1b2894" stroke-width="2" /></g><g id="branch"><line x1="379" y1="70" x2="378" y2="68" stroke="#c2a11f" stroke-width="2" /><line x1="379" y1="70" x2="380" y2="68" stroke="#1b2894" stroke-width="2" /></g><g id="branch"><line x1="385" y1="70" x2="384" y2="68" stroke="#c2a11f" stroke-width="2" /><line x1="385" y1="70" x2="386" y2="68" stroke="#1b2894" stroke-width="2" /></g><g id="branch"><line x1="385" y1="70" x2="384" y2="68" stroke="#c2a11f" stroke-width="2" /><line x1="385" y1="70" x2="386" y2="68" stroke="#1b2894" stroke-width="2" /></g><g id="branch"><line x1="385" y1="70" x2="384" y2="68" stroke="#c2a11f" stroke-width="2" /><line x1="385" y1="70" x2="386" y2="68" stroke="#1b2894" stroke-width="2" /></g><g id="branch"><line x1="402" y1="88" x2="396" y2="76" stroke="#c2a11f" stroke-width="2" /><line x1="402" y1="88" x2="408" y2="76" stroke="#1b2894" stroke-width="2" /></g><g id="branch"><line x1="396" y1="76" x2="393" y2="70" stroke="#c2a11f" stroke-width="2" /><line x1="396" y1="76" x2="399" y2="70" stroke="#1b2894" stroke-width="2" /></g><g id="branch"><line x1="393" y1="70" x2="392" y2="68" stroke="#c2a11f" stroke-width="2" /><line x1="393" y1="70" x2="394" y2="68" stroke="#1b2894" stroke-width="2" /></g><g id="branch"><line x1="393" y1="70" x2="392" y2="68" stroke="#c2a11f" stroke-width="2" /><line x1="393" y1="70" x2="394" y2="68" stroke="#1b2894" stroke-width="2" /></g><g id="branch"><line x1="393" y1="70" x2="392" y2="68" stroke="#c2a11f" stroke-width="2" /><line x1="393" y1="70" x2="394" y2="68" stroke="#1b2894" stroke-width="2" /></g><g id="branch"><line x1="399" y1="70" x2="398" y2="68" stroke="#c2a11f" stroke-width="2" /><line x1="399" y1="70" x2="400" y2="68" stroke="#1b2894" stroke-width="2" /></g><g id="branch"><line x1="399" y1="70" x2="398" y2="68" stroke="#c2a11f" stroke-width="2" /><line x1="399" y1="70" x2="400" y2="68" stroke="#1b2894" stroke-width="2" /></g><g id="branch"><line x1="399" y1="70" x2="398" y2="68" stroke="#c2a11f" stroke-width="2" /><line x1="399" y1="70" x2="400" y2="68" stroke="#1b2894" stroke-width="2" /></g><g id="branch"><line x1="408" y1="76" x2="405" y2="70" stroke="#c2a11f" stroke-width="2" /><line x1="408" y1="76" x2="411" y2="70" stroke="#1b2894" stroke-width="2" /></g><g id="branch"><line x1="405" y1="70" x2="404" y2="68" stroke="#c2a11f" stroke-width="2" /><line x1="405" y1="70" x2="406" y2="68" stroke="#1b2894" stroke-width="2" /></g><g id="branch"><line x1="405" y1="70" x2="404" y2="68" stroke="#c2a11f" stroke-width="2" /><line x1="405" y1="70" x2="406" y2="68" stroke="#1b2894" stroke-width="2" /></g><g id="branch"><line x1="405" y1="70" x2="404" y2="68" stroke="#c2a11f" stroke-width="2" /><line x1="405" y1="70" x2="406" y2="68" stroke="#1b2894" stroke-width="2" /></g><g id="branch"><line x1="411" y1="70" x2="410" y2="68" stroke="#c2a11f" stroke-width="2" /><line x1="411" y1="70" x2="412" y2="68" stroke="#1b2894" stroke-width="2" /></g><g id="branch"><line x1="411" y1="70" x2="410" y2="68" stroke="#c2a11f" stroke-width="2" /><line x1="411" y1="70" x2="412" y2="68" stroke="#1b2894" stroke-width="2" /></g><g id="branch"><line x1="411" y1="70" x2="410" y2="68" stroke="#c2a11f" stroke-width="2" /><line x1="411" y1="70" x2="412" y2="68" stroke="#1b2894" stroke-width="2" /></g><g id="branch"><line x1="443" y1="114" x2="430" y2="88" stroke="#c2a11f" stroke-width="2" /><line x1="443" y1="114" x2="456" y2="88" stroke="#1b2894" stroke-width="2" /></g><g id="branch"><line x1="430" y1="88" x2="424" y2="76" stroke="#c2a11f" stroke-width="2" /><line x1="430" y1="88" x2="436" y2="76" stroke="#1b2894" stroke-width="2" /></g><g id="branch"><line x1="424" y1="76" x2="421" y2="70" stroke="#c2a11f" stroke-width="2" /><line x1="424" y1="76" x2="427" y2="70" stroke="#1b2894" stroke-width="2" /></g><g id="branch"><line x1="421" y1="70" x2="420" y2="68" stroke="#c2a11f" stroke-width="2" /><line x1="421" y1="70" x2="422" y2="68" stroke="#1b2894" stroke-width="2" /></g><g id="branch"><line x1="421" y1="70" x2="420" y2="68" stroke="#c2a11f" stroke-width="2" /><line x1="421" y1="70" x2="422" y2="68" stroke="#1b2894" stroke-width="2" /></g><g id="branch"><line x1="421" y1="70" x2="420" y2="68" stroke="#c2a11f" stroke-width="2" /><line x1="421" y1="70" x2="422" y2="68" stroke="#1b2894" stroke-width="2" /></g><g id="branch"><line x1="427" y1="70" x2="426" y2="68" stroke="#c2a11f" stroke-width="2" /><line x1="427" y1="70" x2="428" y2="68" stroke="#1b2894" stroke-width="2" /></g><g id="branch"><line x1="427" y1="70" x2="426" y2="68" stroke="#c2a11f" stroke-width="2" /><line x1="427" y1="70" x2="428" y2="68" stroke="#1b2894" stroke-width="2" /></g><g id="branch"><line x1="427" y1="70" x2="426" y2="68" stroke="#c2a11f" stroke-width="2" /><line x1="427" y1="70" x2="428" y2="68" stroke="#1b2894" stroke-width="2" /></g><g id="branch"><line x1="436" y1="76" x2="433" y2="70" stroke="#c2a11f" stroke-width="2" /><line x1="436" y1="76" x2="439" y2="70" stroke="#1b2894" stroke-width="2" /></g><g id="branch"><line x1="433" y1="70" x2="432" y2="68" stroke="#c2a11f" stroke-width="2" /><line x1="433" y1="70" x2="434" y2="68" stroke="#1b2894" stroke-width="2" /></g><g id="branch"><line x1="433" y1="70" x2="432" y2="68" stroke="#c2a11f" stroke-width="2" /><line x1="433" y1="70" x2="434" y2="68" stroke="#1b2894" stroke-width="2" /></g><g id="branch"><line x1="433" y1="70" x2="432" y2="68" stroke="#c2a11f" stroke-width="2" /><line x1="433" y1="70" x2="434" y2="68" stroke="#1b2894" stroke-width="2" /></g><g id="branch"><line x1="439" y1="70" x2="438" y2="68" stroke="#c2a11f" stroke-width="2" /><line x1="439" y1="70" x2="440" y2="68" stroke="#1b2894" stroke-width="2" /></g><g id="branch"><line x1="439" y1="70" x2="438" y2="68" stroke="#c2a11f" stroke-width="2" /><line x1="439" y1="70" x2="440" y2="68" stroke="#1b2894" stroke-width="2" /></g><g id="branch"><line x1="439" y1="70" x2="438" y2="68" stroke="#c2a11f" stroke-width="2" /><line x1="439" y1="70" x2="440" y2="68" stroke="#1b2894" stroke-width="2" /></g><g id="branch"><line x1="456" y1="88" x2="450" y2="76" stroke="#c2a11f" stroke-width="2" /><line x1="456" y1="88" x2="462" y2="76" stroke="#1b2894" stroke-width="2" /></g><g id="branch"><line x1="450" y1="76" x2="447" y2="70" stroke="#c2a11f" stroke-width="2" /><line x1="450" y1="76" x2="453" y2="70" stroke="#1b2894" stroke-width="2" /></g><g id="branch"><line x1="447" y1="70" x2="446" y2="68" stroke="#c2a11f" stroke-width="2" /><line x1="447" y1="70" x2="448" y2="68" stroke="#1b2894" stroke-width="2" /></g><g id="branch"><line x1="447" y1="70" x2="446" y2="68" stroke="#c2a11f" stroke-width="2" /><line x1="447" y1="70" x2="448" y2="68" stroke="#1b2894" stroke-width="2" /></g><g id="branch"><line x1="447" y1="70" x2="446" y2="68" stroke="#c2a11f" stroke-width="2" /><line x1="447" y1="70" x2="448" y2="68" stroke="#1b2894" stroke-width="2" /></g><g id="branch"><line x1="453" y1="70" x2="452" y2="68" stroke="#c2a11f" stroke-width="2" /><line x1="453" y1="70" x2="454" y2="68" stroke="#1b2894" stroke-width="2" /></g><g id="branch"><line x1="453" y1="70" x2="452" y2="68" stroke="#c2a11f" stroke-width="2" /><line x1="453" y1="70" x2="454" y2="68" stroke="#1b2894" stroke-width="2" /></g><g id="branch"><line x1="453" y1="70" x2="452" y2="68" stroke="#c2a11f" stroke-width="2" /><line x1="453" y1="70" x2="454" y2="68" stroke="#1b2894" stroke-width="2" /></g><g id="branch"><line x1="462" y1="76" x2="459" y2="70" stroke="#c2a11f" stroke-width="2" /><line x1="462" y1="76" x2="465" y2="70" stroke="#1b2894" stroke-width="2" /></g><g id="branch"><line x1="459" y1="70" x2="458" y2="68" stroke="#c2a11f" stroke-width="2" /><line x1="459" y1="70" x2="460" y2="68" stroke="#1b2894" stroke-width="2" /></g><g id="branch"><line x1="459" y1="70" x2="458" y2="68" stroke="#c2a11f" stroke-width="2" /><line x1="459" y1="70" x2="460" y2="68" stroke="#1b2894" stroke-width="2" /></g><g id="branch"><line x1="459" y1="70" x2="458" y2="68" stroke="#c2a11f" stroke-width="2" /><line x1="459" y1="70" x2="460" y2="68" stroke="#1b2894" stroke-width="2" /></g><g id="branch"><line x1="465" y1="70" x2="464" y2="68" stroke="#c2a11f" stroke-width="2" /><line x1="465" y1="70" x2="466" y2="68" stroke="#1b2894" stroke-width="2" /></g><g id="branch"><line x1="465" y1="70" x2="464" y2="68" stroke="#c2a11f" stroke-width="2" /><line x1="465" y1="70" x2="466" y2="68" stroke="#1b2894" stroke-width="2" /></g><g id="branch"><line x1="465" y1="70" x2="464" y2="68" stroke="#c2a11f" stroke-width="2" /><line x1="465" y1="70" x2="466" y2="68" stroke="#1b2894" stroke-width="2" /></g></svg>