<svg id="Layer_1" data-name="Layer 1" xmlns="http://www.w3.org/2000/svg" viewBox="0 0 353.08 653.85"><defs><style>.cls-1{fill:#9ae4da;}.cls-1,.cls-2,.cls-3,.cls-4,.cls-5,.cls-6,.cls-7{stroke:#222844;stroke-miterlimit:10;stroke-width:3px;}.cls-2{fill:#ffb93b;}.cls-3{fill:#9b0e00;}.cls-4{fill:#ff4803;}.cls-5{fill:none;}.cls-6{fill:#fff;}.cls-7{fill:#603813;}</style></defs><path class="cls-1" d="M114.24,228.1s-11,9.22-14.48,19.12-18.37,38.1-29.51,44.4S58.31,298.57,52.62,297s-5.08-16.5-6.86-21-4.38-32.48,13.5-48.75,31.47-29.63,31.47-29.63Z"/><circle class="cls-2" cx="79.35" cy="279.34" r="23.25"/><circle class="cls-3" cx="87.56" cy="283.47" r="18.34"/><path class="cls-1" d="M238.45,228.1s11,9.22,14.48,19.12,18.38,38.1,29.52,44.4,11.93,6.95,17.62,5.34,5.08-16.5,6.86-21,4.38-32.48-13.49-48.75S262,197.54,262,197.54Z"/><path class="cls-3" d="M281,581.91l-4.15-37.44H80.15L76,581.91a5.87,5.87,0,0,0-.13,1.24c0,13.17,38,28.2,102.62,28.2,60.16,0,102.63-15,102.63-28.2A5.87,5.87,0,0,0,281,581.91Z"/><ellipse class="cls-4" cx="178.5" cy="544.47" rx="98.35" ry="23.84"/><path class="cls-1" d="M218.14,173.72c-15.26-8.72-23.43-26.15-23.43-26.15H157.78S149.6,165,134.35,173.72s-3.82,51.22,11.44,65.93c4.08,3.93,56.82,3.93,60.9,0C222,224.94,233.39,182.44,218.14,173.72Z"/><path class="cls-1" d="M129.14,315.48c-18.66,12.44-14.72,47.95-10.36,74.11s7.63,34.32,7.63,34.32-5.45,12-4.36,20.16,48.5,10.36,48.5,10.36S168.37,449,166.73,437s6-44.13,2.18-68.11S137.31,310,129.14,315.48Z"/><path class="cls-1" d="M223.58,315.48c18.66,12.44,14.72,47.95,10.36,74.11s-7.63,34.32-7.63,34.32,5.45,12,4.36,20.16-48.5,10.36-48.5,10.36S184.35,449,186,437s-6-44.13-2.18-68.11S215.41,310,223.58,315.48Z"/><path class="cls-3" d="M130.72,477.59c2.93,41.64,31.32,44.34-14.56,70.35-3.1,2.08-.64,5,2.66,4.84,13.74.3,26.72-5.74,39.12-11.65,4,5,13.59-1.73,12-7.27C166.75,491.68,189,475,131.31,476"/><path class="cls-3" d="M223.53,477.59c-2.93,41.64-31.32,44.34,14.56,70.35,3.1,2.08.64,5-2.66,4.84-13.73.3-26.72-5.74-39.12-11.65-4,5-13.59-1.73-12-7.27,3.23-42.18-19-58.85,38.67-57.82"/><path class="cls-2" d="M174.1,453.5a198,198,0,0,1-57.26-14.65,171.24,171.24,0,0,0,2.8,28.22,15.82,15.82,0,0,0,1.86,5.69c2,3.1,5.68,4.53,9.19,5.64a156.74,156.74,0,0,0,43.51,7.22q-.78-15.58-.28-31.2"/><path class="cls-2" d="M179.62,453.5a198,198,0,0,0,57.25-14.65,169.1,169.1,0,0,1-2.8,28.22,15.81,15.81,0,0,1-1.85,5.69c-2,3.1-5.69,4.53-9.19,5.64a156.87,156.87,0,0,1-43.52,7.22q.78-15.58.29-31.2"/><path class="cls-1" d="M143.13,133.1S133.5,121,128.5,125.45s1.94,17.79,6.43,17.94,11.6-6.56,11.6-6.56Z"/><path class="cls-1" d="M209.35,133.1S219,121,224,125.45s-1.94,17.79-6.43,17.94-11.6-6.56-11.6-6.56Z"/><ellipse class="cls-1" cx="176.24" cy="121.96" rx="36.78" ry="40.32"/><polyline class="cls-5" points="154.45 111.97 177.33 131.58 198.04 114.51"/><path class="cls-5" d="M160.8,129.22v4"/><path class="cls-5" d="M193.64,128.32a40.48,40.48,0,0,1,.23,4.54"/><path class="cls-6" d="M160.83,147.29c9-4.44,28-10.6,27.1,5.07C160.92,154.74,160.83,147.29,160.83,147.29Z"/><path class="cls-5" d="M170.08,144.84c-.05,1.82-.1,5.55-.15,7.36"/><path class="cls-5" d="M176.27,143c-.13,2.54-.05,7,0,9.54"/><path class="cls-5" d="M181.81,144.12q-.08,3.63.1,7.26"/><path class="cls-3" d="M254.93,197.07c-6.17-11.56-36-24.53-36-24.53l-12.35,27.34L176.72,219l-30.36-19.16L134,172.54s-29.78,13-36,24.53-2.54,41.35,9.81,46.26,12,3.85,14.89,6.3c2.17,1.83,1.68,25.7,14.71,34.35l-8.74,31.5s34.42,26.7,38.42,45.59c1,.91,5.64,4.55,9.35,4,3.71.51,8.31-3.13,9.35-4,4-18.89,38.42-45.59,38.42-45.59l-9.09-32.39c13.45-8,12.87-31.61,15.06-33.46,2.91-2.45,2.54-1.4,14.89-6.3S261.11,208.64,254.93,197.07Z"/><path class="cls-2" d="M212.52,168.79s-3.08,28.88-32.14,32.8c-.7,4.51-3.43,6.07-3.84,10.37-.41-4.3-3.09-5.86-3.79-10.37-29.06-3.92-32.14-32.8-32.14-32.8,0-2-9.08-4.21-8.72,6.45,1,23.86,38.7,42.92,44.34,45.64l0,.34.37-.17.36.17,0-.34c5.64-2.72,43.33-21.78,44.34-45.64C221.6,164.58,212.52,166.83,212.52,168.79Z"/><line class="cls-5" x1="176.43" y1="242.65" x2="176.43" y2="209.23"/><line class="cls-5" x1="183.64" y1="238.87" x2="169.43" y2="224.67"/><line class="cls-5" x1="169.43" y1="238.87" x2="183.64" y2="224.67"/><path class="cls-2" d="M271.9,188.31c14.63,12.83,18.57,31.83,11.83,39.51s-24.06,3.51-38.69-9.32S224,189,230.76,181.36,257.27,175.49,271.9,188.31Z"/><path class="cls-2" d="M273.65,185.18c13,11.42,16.54,28.34,10.53,35.18s-21.42,3.13-34.45-8.3S231,185.83,237,179,260.62,173.75,273.65,185.18Z"/><circle class="cls-2" cx="273.35" cy="279.34" r="23.25"/><circle class="cls-3" cx="265.13" cy="283.47" r="18.34"/><path class="cls-1" d="M84.32,269.53a5.83,5.83,0,0,1,5.81-5.81h25.79a5.81,5.81,0,0,1,2.63,11h1.55a5.81,5.81,0,1,1,0,11.62h-.81a5.81,5.81,0,0,1-3.37,10.54h-1.85a5.31,5.31,0,0,1,2.86,4.69v1a5.35,5.35,0,0,1-5.33,5.33H90.74a5.35,5.35,0,0,1-5.33-5.33S84.32,272.07,84.32,269.53Z"/><line class="cls-5" x1="119.19" y1="274.62" x2="101.03" y2="274.62"/><line class="cls-5" x1="119.33" y1="286.29" x2="100.8" y2="286.29"/><line class="cls-5" x1="113.74" y1="296.78" x2="99.58" y2="296.78"/><path class="cls-1" d="M268.94,269.53a5.83,5.83,0,0,0-5.81-5.81H237.34a5.81,5.81,0,0,0-2.62,11h-1.56a5.81,5.81,0,1,0,0,11.62H234a5.81,5.81,0,0,0,3.37,10.54h1.86a5.3,5.3,0,0,0-2.87,4.69v1a5.35,5.35,0,0,0,5.33,5.33h20.86a5.35,5.35,0,0,0,5.33-5.33S268.94,272.07,268.94,269.53Z"/><line class="cls-5" x1="234.07" y1="274.62" x2="252.24" y2="274.62"/><line class="cls-5" x1="233.94" y1="286.29" x2="252.46" y2="286.29"/><line class="cls-5" x1="239.52" y1="296.78" x2="253.69" y2="296.78"/><path class="cls-2" d="M80.79,188.31C66.16,201.14,62.22,220.14,69,227.82s24.06,3.51,38.69-9.32,21-29.46,14.28-37.14S95.42,175.49,80.79,188.31Z"/><path class="cls-2" d="M79,185.18c-13,11.42-16.53,28.34-10.53,35.18s21.43,3.13,34.45-8.3,18.72-26.23,12.72-33.08S92.07,173.75,79,185.18Z"/><path class="cls-2" d="M214.76,120.55c-1.09-16.89-1.09-33.78-14.71-45.77a237.87,237.87,0,0,1-23-24l-.2.23-.19-.23a239.18,239.18,0,0,1-23,24c-13.63,12-13.63,28.88-14.72,45.77s6,31.06,6,31.06l6-13.08s-5.45-8.71-6.54-15.25,4.36-25.07,13.08-25.07c7.76,0,17.23,10.78,19.23,13.16,0,0,.07.38.19.23.12.15.2-.23.2-.23,2-2.38,11.47-13.16,19.22-13.16,8.72,0,14.17,18.53,13.08,25.07s-6.54,15.25-6.54,15.25l6,13.08S215.85,137.44,214.76,120.55Z"/><line class="cls-5" x1="176.81" y1="95.53" x2="176.81" y2="62.12"/><line class="cls-5" x1="167.96" y1="93.45" x2="167.96" y2="70.83"/><line class="cls-5" x1="159.1" y1="90.45" x2="159.1" y2="77.64"/><line class="cls-5" x1="185.67" y1="93.45" x2="185.67" y2="70.83"/><line class="cls-5" x1="194.52" y1="90.45" x2="194.52" y2="77.64"/><path class="cls-7" d="M132.36,280.79v21.47S149,316,176.49,315.47c27.49.52,44.14-13.21,44.14-13.21V280.79Z"/><circle class="cls-2" cx="176.49" cy="298.77" r="20.89"/><circle class="cls-2" cx="176.49" cy="298.77" r="14.15"/></svg>