<svg xmlns="http://www.w3.org/2000/svg" viewBox="0 0 336.73 699.62"><defs><style>.cls-1{isolation:isolate;}.cls-2{fill:#9b0e00;}.cls-10,.cls-11,.cls-2,.cls-3,.cls-5,.cls-6,.cls-7,.cls-8,.cls-9{stroke:#222844;stroke-miterlimit:10;stroke-width:3px;}.cls-3{fill:#ff4803;}.cls-4{fill:#cbcbcb;mix-blend-mode:multiply;}.cls-5{fill:#9ae4da;}.cls-6{fill:#ffb93b;}.cls-11,.cls-7{fill:none;}.cls-8{fill:#fff;}.cls-9{fill:#e5e5e5;}.cls-10{fill:#8c6239;}.cls-11{stroke-linecap:round;}.cls-12{fill:#222844;}</style></defs><g class="cls-1"><g id="Layer_1" data-name="Layer 1"><path class="cls-2" d="M291.62,635.9l-4.14-40.06H90.78L86.64,635.9a11,11,0,0,0-.14,1.72c0,18.26,38,39.12,102.63,39.12,60.15,0,102.63-20.86,102.63-39.12A11,11,0,0,0,291.62,635.9Z"/><ellipse class="cls-3" cx="189.13" cy="595.84" rx="98.35" ry="33.07"/><ellipse class="cls-4" cx="186.21" cy="594.05" rx="74.78" ry="21.39"/><path class="cls-5" d="M124.87,273.87s-11,9.22-14.48,19.12S92,331.09,80.87,337.39s-11.93,6.95-17.62,5.34-5.08-16.5-6.86-21S52,289.21,69.88,272.94s31.47-29.63,31.47-29.63Z"/><path class="cls-4" d="M124.87,273.87s-11,9.22-14.48,19.12S92,331.09,80.87,337.39s-11.93,6.95-17.62,5.34-5.08-16.5-6.86-21S52,289.21,69.88,272.94s31.47-29.63,31.47-29.63Z"/><circle class="cls-6" cx="89.97" cy="325.11" r="23.25"/><circle class="cls-2" cx="98.19" cy="329.24" r="18.34"/><path class="cls-5" d="M249.07,273.87s11,9.22,14.49,19.12,18.37,38.1,29.51,44.4,11.93,6.95,17.62,5.34,5.09-16.5,6.87-21,4.38-32.48-13.5-48.75-31.47-29.63-31.47-29.63Z"/><path class="cls-5" d="M228.76,219.49c-15.26-8.72-23.43-26.15-23.43-26.15H168.4s-8.17,17.43-23.43,26.15-3.81,51.22,11.44,65.93c4.08,3.93,56.83,3.93,60.91,0C232.58,270.71,244,228.21,228.76,219.49Z"/><path class="cls-4" d="M215.57,208.46a71.69,71.69,0,0,1-10.24-15.12H168.4a70.58,70.58,0,0,1-8.79,13.41C173.1,222.06,199.69,221.08,215.57,208.46Z"/><path class="cls-5" d="M139.76,361.25c-18.65,12.44-14.71,47.95-10.35,74.11S137,469.68,137,469.68s-5.45,12-4.36,20.16,48.49,10.36,48.49,10.36-2.18-5.45-3.81-17.44,6-44.13,2.18-68.11S147.93,355.8,139.76,361.25Z"/><path class="cls-5" d="M234.21,361.25c18.65,12.44,14.71,47.95,10.35,74.11s-7.63,34.32-7.63,34.32,5.45,12,4.36,20.16S192.8,500.2,192.8,500.2s2.18-5.45,3.81-17.44-6-44.13-2.18-68.11S226,355.8,234.21,361.25Z"/><path class="cls-2" d="M137.44,519.27c24.11-.43,36.21-.17,41,6.67,6.67,9.53.28,29.14,2.15,53.69,1.55,5.53-8.28,13.06-12.64,6.25-12.4,5.91-22.23,14.87-36,14.57-3.31.21-8.51-2.85-5.59-5.17,39.64-31.61,13.37-32.83,10.45-74.47Z"/><path class="cls-2" d="M236.15,519.27c-24.1-.43-36.2-.17-41,6.67-6.67,9.53-.28,29.14-2.15,53.69-1.55,5.53,8.28,13.06,12.64,6.25,12.4,5.91,22.23,14.87,36,14.57,3.31.21,8.51-2.85,5.59-5.17-39.64-31.61-13.37-32.83-10.45-74.47Z"/><path class="cls-6" d="M179.29,498.65a198.69,198.69,0,0,1-47.65-12.32,3,3,0,0,0-4,2.89,170.42,170.42,0,0,0,2.67,23.62,15.81,15.81,0,0,0,1.85,5.69c2,3.1,5.69,4.53,9.19,5.64a156.7,156.7,0,0,0,40.28,7.11,3,3,0,0,0,3.11-3c-.21-7.2-.14-17.27-.06-23.44A6.11,6.11,0,0,0,179.29,498.65Z"/><path class="cls-6" d="M194,498.65a198.69,198.69,0,0,0,47.65-12.32,3,3,0,0,1,4,2.89,170.42,170.42,0,0,1-2.67,23.62,15.81,15.81,0,0,1-1.85,5.69c-2,3.1-5.69,4.53-9.19,5.64a156.7,156.7,0,0,1-40.28,7.11,3,3,0,0,1-3.11-3c.21-7.2.14-17.27.06-23.44A6.11,6.11,0,0,1,194,498.65Z"/><path class="cls-5" d="M153.76,178.87s-9.63-12.06-14.64-7.65,1.95,17.79,6.44,17.94,11.6-6.56,11.6-6.56Z"/><path class="cls-5" d="M220,178.87s9.64-12.06,14.64-7.65-1.94,17.79-6.43,17.94-11.6-6.56-11.6-6.56Z"/><ellipse class="cls-5" cx="186.87" cy="167.73" rx="36.78" ry="40.32"/><polyline class="cls-7" points="164.39 157.74 187.28 177.35 207.98 160.28"/><path class="cls-8" d="M171.46,191.06c9-4.44,27.95-10.6,27.1,5.07C171.55,198.51,171.46,191.06,171.46,191.06Z"/><path class="cls-7" d="M180.7,188.61c0,1.82-.1,5.55-.14,7.36"/><path class="cls-7" d="M186.89,186.8c-.13,2.54,0,7,0,9.53"/><path class="cls-7" d="M192.43,186.71c-.05,2.42,0,6,.11,8.44"/><path class="cls-2" d="M265.56,242.84c-6.18-11.56-36-24.53-36-24.53l-12.35,27.34-29.89,19.16L157,245.65l-12.35-27.34s-29.79,13-36,24.53-2.55,41.35,9.8,46.26,12,3.85,14.9,6.3c2.17,1.83,1.67,25.69,14.71,34.35l-8.74,31.5s34.42,26.7,38.41,45.59c1,.91,5.65,4.55,9.36,4,3.71.51,8.31-3.13,9.35-4,4-18.89,38.41-45.59,38.41-45.59l-9.08-32.39c13.45-8,12.86-31.61,15-33.46,2.91-2.45,2.55-1.4,14.9-6.3S271.73,254.41,265.56,242.84Z"/><path class="cls-6" d="M223.15,214.56s-3.09,28.88-32.15,32.8c-.7,4.51-3.42,6.07-3.84,10.37-.41-4.3-3.08-5.86-3.78-10.37-29.06-3.92-32.15-32.8-32.15-32.8,0-2-9.08-4.21-8.71,6.45,1,23.86,38.69,42.92,44.33,45.64a.74.74,0,0,0,.68,0c5.64-2.72,43.33-21.78,44.34-45.64C232.23,210.35,223.15,212.59,223.15,214.56Z"/><line class="cls-7" x1="187.13" y1="289.94" x2="187.13" y2="256.53"/><line class="cls-7" x1="194.33" y1="286.17" x2="180.12" y2="271.96"/><line class="cls-7" x1="180.12" y1="286.17" x2="194.33" y2="271.96"/><path class="cls-6" d="M282.53,234.08c14.62,12.83,18.56,31.83,11.83,39.51s-24.06,3.51-38.69-9.32-21-29.46-14.28-37.14S267.9,221.26,282.53,234.08Z"/><path class="cls-6" d="M284.28,231c13,11.42,16.53,28.34,10.53,35.18s-21.43,3.12-34.45-8.3-18.73-26.23-12.72-33.08S271.25,219.52,284.28,231Z"/><circle class="cls-6" cx="283.97" cy="325.11" r="23.25"/><circle class="cls-2" cx="275.76" cy="329.24" r="18.34"/><path class="cls-5" d="M94.94,315.3a5.83,5.83,0,0,1,5.82-5.81h25.79a5.81,5.81,0,0,1,2.62,11h1.56a5.81,5.81,0,0,1,0,11.62h-.81a5.81,5.81,0,0,1-3.37,10.54h-1.86a5.3,5.3,0,0,1,2.87,4.69v1a5.35,5.35,0,0,1-5.34,5.33H101.37A5.36,5.36,0,0,1,96,348.29S94.94,317.84,94.94,315.3Z"/><path class="cls-4" d="M112.51,309.49H100.76a5.83,5.83,0,0,0-5.82,5.81c0,2.54,1.09,33,1.09,33a5.36,5.36,0,0,0,5.34,5.33h5.88C111.7,339.52,114.29,324.53,112.51,309.49Z"/><line class="cls-7" x1="129.82" y1="320.39" x2="111.65" y2="320.39"/><line class="cls-7" x1="129.95" y1="332.06" x2="111.43" y2="332.06"/><line class="cls-7" x1="124.37" y1="342.55" x2="110.2" y2="342.55"/><path class="cls-6" d="M91.42,234.08c-14.63,12.83-18.57,31.83-11.83,39.51s24.06,3.51,38.68-9.32,21-29.46,14.29-37.14S106,221.26,91.42,234.08Z"/><path class="cls-6" d="M89.67,231c-13,11.42-16.54,28.34-10.54,35.18s21.43,3.12,34.46-8.3,18.72-26.23,12.72-33.08S102.69,219.52,89.67,231Z"/><path class="cls-9" d="M16.39,309.73c-4.61,42.28,17.1,78.71,39.3,81.13s44-29.88,48.58-72.16-9.65-78.53-31.85-80.95S21,267.45,16.39,309.73Z"/><path class="cls-4" d="M16.56,333.91c3.84,31.17,21.32,55,39.13,56.95,19.08,2.08,37.8-21.46,45.63-54.92C73.07,336.14,44.81,335.76,16.56,333.91Z"/><path class="cls-10" d="M21.38,309.91c-4.11,37.65,13.71,69.7,30.4,71.53s33.57-27.22,37.68-64.88-6.09-69.66-22.78-71.48S25.5,272.26,21.38,309.91Z"/><path class="cls-4" d="M210.67,128.91a239.91,239.91,0,0,1-23-24l-.19.24-.2-.24a238.59,238.59,0,0,1-23,24c-13.07,11.5-13.6,27.53-14.58,43.73,1.81.23,3.55.35,5.33.4.9-8.08,5.87-20.7,13.07-20.7,7.75,0,17.23,10.78,19.22,13.15,0,0,.08.38.2.23.12.15.19-.23.19-.23,2-2.37,11.47-13.15,19.23-13.15,7.37,0,12.41,13.25,13.13,21.29a24.66,24.66,0,0,0,5.36.46C224.29,157.4,224.14,140.76,210.67,128.91Z"/><path class="cls-6" d="M225.39,166.32c-1.09-16.89-1.09-33.78-14.72-45.77a239.18,239.18,0,0,1-23-24l-.19.23-.2-.23a237.87,237.87,0,0,1-23,24c-13.62,12-13.62,28.88-14.71,45.77s6,31.06,6,31.06l6-13.08s-5.45-8.71-6.54-15.25S159.3,144,168,144c7.75,0,17.23,10.78,19.22,13.16,0,0,.08.38.2.23.12.15.19-.23.19-.23,2-2.38,11.47-13.16,19.23-13.16,8.72,0,14.17,18.53,13.08,25.07s-6.54,15.25-6.54,15.25l6,13.08S226.48,183.21,225.39,166.32Z"/><line class="cls-7" x1="187.44" y1="141.3" x2="187.44" y2="107.89"/><line class="cls-7" x1="178.58" y1="139.22" x2="178.58" y2="116.6"/><line class="cls-7" x1="169.73" y1="136.22" x2="169.73" y2="123.41"/><line class="cls-7" x1="196.29" y1="139.22" x2="196.29" y2="116.6"/><line class="cls-7" x1="205.15" y1="136.22" x2="205.15" y2="123.41"/><path class="cls-4" d="M231.25,334.46H197.71a20.79,20.79,0,0,0-21.18,0H143l-.9,21.07s12.13,9.64,31.35,12.67a20.82,20.82,0,0,0,27.37,0c19.22-3,31.18-12.8,31.18-12.8Z"/><path class="cls-10" d="M143,326.56V348s16.65,13.72,44.14,13.21c27.48.51,44.13-13.21,44.13-13.21V326.56Z"/><circle class="cls-6" cx="187.12" cy="344.54" r="20.89"/><circle class="cls-6" cx="187.12" cy="344.54" r="14.15"/><circle class="cls-6" cx="264.8" cy="366.57" r="14.3"/><path class="cls-4" d="M277.74,360.52a14.28,14.28,0,0,0-25.6-.6C260.19,363.48,269.53,363,277.74,360.52Z"/><path class="cls-5" d="M279.57,315.3a5.83,5.83,0,0,0-5.81-5.81H248a5.81,5.81,0,0,0-2.63,11h-1.55a5.81,5.81,0,1,0,0,11.62h.81A5.8,5.8,0,0,0,248,342.64h1.85a5.31,5.31,0,0,0-2.86,4.69v1a5.35,5.35,0,0,0,5.33,5.33h20.85a5.35,5.35,0,0,0,5.34-5.33S279.57,317.84,279.57,315.3Z"/><line class="cls-7" x1="244.7" y1="320.39" x2="262.86" y2="320.39"/><line class="cls-7" x1="244.56" y1="332.06" x2="263.09" y2="332.06"/><line class="cls-7" x1="250.15" y1="342.55" x2="264.31" y2="342.55"/><path class="cls-9" d="M265.43,22.2c0-.07-.61-1.77-.61-1.77l0,.06,0-.06s-.63,1.57-.63,1.64c-1.09,3.09-25,71.92-19.14,143.84,6,73.56,15.26,133.5,15.26,133.5l4.54-3.05,4.53,3.05s9.27-59.94,15.26-133.5C290.45,94,266.53,25.3,265.43,22.2Z"/><path class="cls-4" d="M264.82,20.43l0,.06,0-.06s-.63,1.57-.63,1.64c-1.09,3.09-25,71.92-19.14,143.84,6,73.56,15.26,133.5,15.26,133.5l4.54-3.05Z"/><path class="cls-6" d="M293,283.24c-3.21,11.2-27.08,16.86-27.35,16.94H264c-.27-.08-24.14-5.74-27.35-16.94-4.08,3.5-9.08,4.36-16.35,1.82,8.94,18.56,34.13,24.29,43.74,24.29h1.61c9.61,0,34.8-5.73,43.74-24.29C302.07,287.6,297.07,286.74,293,283.24Z"/><line class="cls-11" x1="264.8" y1="291.78" x2="264.8" y2="64.57"/><rect class="cls-2" x="259.14" y="290.69" width="11.31" height="11.31" transform="translate(287.1 -100.44) rotate(45)"/><line class="cls-7" x1="30.38" y1="277.21" x2="25.88" y2="350.76"/><line class="cls-7" x1="42.91" y1="258.41" x2="35.69" y2="370.52"/><line class="cls-7" x1="54.62" y1="248.33" x2="46.18" y2="379.78"/><line class="cls-7" x1="65.93" y1="246.01" x2="57.35" y2="381"/><line class="cls-7" x1="76.83" y1="251.32" x2="69.06" y2="372.83"/><line class="cls-7" x1="86.64" y1="270.26" x2="81.46" y2="350.9"/><circle class="cls-12" cx="169.36" cy="174.72" r="2"/><circle class="cls-12" cx="204.96" cy="174.72" r="2"/><path class="cls-7" d="M153.4,479.23a8.55,8.55,0,0,0-.76,9.48"/><path class="cls-7" d="M221.66,479.23a8.55,8.55,0,0,1,.76,9.48"/></g></g></svg>