<svg width="150" height="150" viewBox="0 0 150 150" fill="none" xmlns="http://www.w3.org/2000/svg">
<path d="M59.4068 92.2657C58.9567 92.1346 58.4646 91.9961 57.9428 91.8502C53.6771 90.6583 47.349 88.9273 43.9537 85.9994C40.1405 82.7154 34.8881 77.3863 31.9751 73.2813C33.4712 73.4025 36.0355 73.452 36.0355 73.452L36.0677 73.2986L36.7725 69.9973C36.7725 69.9973 43.3009 77.9625 51.9832 80.2252C53.7908 80.6975 57.3048 81.291 59.1694 81.3627C59.8914 84.8025 60.6457 88.9767 59.4068 92.2657Z" fill="#BA7342"/>
<path d="M58.6352 88.7097C58.2025 90.5619 58.3731 89.9981 57.9428 91.8527C53.6771 90.6608 47.349 88.9298 43.9537 86.0019C40.1405 82.7179 34.8881 77.3888 31.9751 73.2838C33.4712 73.405 35.123 73.4322 35.123 73.4322C35.123 73.4322 49.0676 87.8219 58.833 87.8219C59.1793 87.8219 58.3014 88.8037 58.6352 88.7122V88.7097Z" fill="#99592E"/>
<path d="M40.2369 73.8971C38.8966 75.3734 37.5019 76.7978 36.0553 78.1702C34.9647 76.6445 33.9632 75.0791 32.8727 73.5534C33.9583 73.6745 35.0463 73.766 36.1394 73.8279C36.2778 72.6186 36.3916 71.4959 36.6191 70.2991C36.6982 70.2422 36.7106 70.2496 36.7873 70.309C38.1053 71.3327 39.0969 72.678 40.2369 73.8971Z" fill="#6B3618"/>
<path d="M118.449 54.2253L118.501 54.0522L120.131 46.2948L115.554 44.403C116.397 43.221 117.099 41.7966 117.332 40.1892C114.357 38.342 105.669 36.0768 104.641 36.4453C106.045 35.0778 107.198 33.7919 108.835 32.7162C104.68 29.405 98.7676 27.9979 93.7922 29.855C94.2966 28.7793 94.5513 28.1141 95.2907 27.1794C91.5789 25.713 87.4888 25.2258 83.5396 25.7773L83.2181 25.8242C83.3047 26.4499 81.5489 26.7837 79.442 26.9024C76.3732 27.078 72.56 26.8035 72.6119 26.3312L72.3795 26.3065C68.6331 24.5581 63.9568 25.8193 62.8589 26.0518C64.2981 27.2635 65.6087 28.4653 66.6671 30.0232C60.3415 28.3392 54.7033 28.9475 54.3373 29.2269C55.4996 30.4733 56.7929 32.7137 57.4878 34.4917C55.5194 34.1257 49.263 34.3977 48.3381 34.8725C49.0181 35.8592 49.5152 36.878 50.0741 37.9315H46.4365C46.4365 40.622 46.5008 43.1839 46.6269 45.6197C46.7851 48.6786 47.0423 51.5422 47.3836 54.2204C47.6506 56.3248 47.9746 58.3155 48.3455 60.1973C49.5325 60.6152 50.5686 60.8328 51.7556 61.2483C51.0063 62.6653 50.3857 63.9363 49.6364 65.3508C51.0335 66.1421 52.1859 66.7826 53.4347 67.4898L53.1652 73.4643L56.2513 73.996L56.5258 76.229L57.51 84.2065L60.663 82.708L61.0067 82.5472L61.1452 82.4829L61.254 82.9503L63.027 90.6336L71.8181 85.5691L72.9433 88.3041L73.3563 89.3106L81.9075 84.2733L86.2153 85.9301L90.8569 80.7593L98.0826 81.9537L100.998 76.5826L107.163 76.8472L110.679 71.2907L114.458 70.8159L114.854 65.2469L114.992 64.6732C115.823 64.8686 116.681 64.9799 117.542 65.0095C119.228 65.0664 120.932 64.8092 122.507 64.2306C125.002 63.3181 127.062 61.3324 127.772 58.7705C127.896 58.3229 128.017 57.1928 128.017 57.1928C128.017 57.1928 122.302 55.3678 118.454 54.2228L118.449 54.2253Z" fill="#BA7342"/>
<path d="M60.7446 82.1269C60.8286 82.2703 60.9152 82.4088 61.0018 82.5497L60.658 82.7105C60.6877 82.5176 60.7149 82.3222 60.7446 82.1269Z" fill="#99592E"/>
<path d="M128.012 57.1952C128.012 57.1952 127.891 58.3253 127.767 58.7729C127.057 61.3348 124.997 63.3205 122.502 64.233C120.927 64.8117 119.223 65.0688 117.537 65.012C116.676 64.9823 115.818 64.871 114.987 64.6757L114.849 65.2494L114.453 70.8183L110.675 71.2931L107.158 76.8497L100.993 76.5851L98.0777 81.9562L90.8519 80.7618L86.2103 85.9326L81.9025 84.2757L73.3513 89.313L72.9383 88.3065C75.6214 86.17 80.4312 82.5249 81.8432 81.9191C83.2082 82.2282 83.9748 82.4038 85.3423 82.7129C86.7568 81.6025 90.2213 77.7671 90.2213 77.7671H96.4035L97.7389 72.9277L103.857 72.2872L102.227 66.5699L106.753 64.2132C106.753 64.2132 103.637 58.1992 103.305 55.1897C104.792 53.7505 106.07 51.5916 107.136 49.821C106.169 48.7404 105.227 47.6845 104.26 46.6063C105.462 45.4762 106.856 44.0469 108.15 43.0206C104.621 41.3366 101.441 39.2322 97.907 37.5481C98.3695 36.5417 98.6662 35.1667 98.5154 34.0663C96.082 33.3714 93.535 33.0747 91.0077 33.1934C90.4142 33.2206 89.8331 33.0846 89.2767 33.2972C89.3187 32.1325 89.4943 30.8194 89.5363 29.6547C86.6826 28.9351 83.6583 28.893 80.7848 29.5335C79.8105 29.0488 79.4099 28.0201 79.4346 26.9024C81.5415 26.7837 83.2972 26.4498 83.2107 25.8242L83.5322 25.7772C87.4813 25.2233 91.574 25.7129 95.2833 27.1793C94.5439 28.1116 94.2892 28.7793 93.7847 29.855C98.7602 27.9979 104.675 29.4049 108.827 32.7161C107.19 33.7918 106.038 35.0777 104.633 36.4452C105.662 36.0768 114.352 38.3419 117.324 40.1892C117.092 41.7965 116.389 43.2209 115.546 44.403L120.123 46.2947L118.494 54.0521L118.442 54.2253C122.29 55.3702 128.004 57.1952 128.004 57.1952H128.012Z" fill="#99592E"/>
<path d="M58.9888 88.0197C58.3706 91.8181 57.7746 95.6659 57.8464 99.5162C57.9156 103.364 58.7168 107.279 60.752 110.545C61.9711 112.509 63.6131 114.19 65.4678 115.578L68.2003 124.796H74.934L75.2332 119.796L75.2431 119.727C79.2393 120.36 83.3838 120.192 86.831 119.057L88.567 124.796H97.2888L97.2987 124.801C101.176 117.054 104.908 109.371 106.688 100.809C106.802 100.268 106.906 99.7214 107.002 99.1749L107.052 99.1699C107.309 101.309 107.438 104.178 107.68 106.294L110.979 106.027L113.914 105.864C113.533 99.9588 112.774 91.2864 112.017 86.4148L112.062 86.4074C112.368 86.7684 112.665 87.1344 112.955 87.5078C114.033 88.8803 115.007 90.3319 115.868 91.8477C118.13 86.3258 117.406 80.1362 115.816 74.3892C117.656 75.3957 119.201 76.5703 120.405 78.284C121.041 76.3428 120.843 67.7025 117.532 64.923L117.537 64.7697C116.676 64.74 115.818 64.6287 114.987 64.4334L114.849 65.0071L114.453 70.576L110.675 71.0508L107.158 76.6074L100.993 76.3428L100.229 77.7523L98.0752 81.7139L90.8495 80.5195L86.2078 85.6903L81.9001 84.0334L73.3489 89.0707L71.8107 85.3292L63.942 89.862L63.0196 90.3937L61.1378 82.2431L57.5051 83.9691C58.106 85.3564 58.4225 86.6176 58.9888 88.0222V88.0197Z" fill="#BA7342"/>
<path d="M84.6944 119.23C80.9554 111.428 79.3678 102.61 80.5598 94.0412C77.8173 95.3864 75.8193 97.9088 73.1411 99.3776C73.0175 98.3069 72.7603 97.4043 72.2731 96.4423C71.7167 97.0531 71.1455 97.6491 70.552 98.2253C69.6568 99.0908 68.5539 99.6027 67.5672 100.359C66.7957 98.7891 66.0959 97.382 65.3243 95.8118C64.7383 96.4102 64.0261 97.0185 63.4375 97.617C62.985 97.0111 62.5918 96.4918 62.2184 95.834C61.0017 99.4518 60.1733 103.3 60.7 107.078C61.2268 110.857 63.3015 114.576 66.6943 116.322C67.3793 117.39 76.1704 121.98 84.692 119.232L84.6944 119.23Z" fill="#E29B6A"/>
<path d="M113.907 105.013C114.09 107.872 114.189 110.337 114.159 111.91C113.177 110.926 112.213 110.117 111.073 109.326C110.44 110.456 109.441 111.267 108.548 112.207C108.283 110.043 108.036 107.909 107.791 105.78L113.907 105.013Z" fill="#6B3618"/>
<path d="M97.2913 125.039L97.3012 125.044C96.7077 126.226 96.1093 127.413 95.5183 128.6H89.6452L88.5695 125.039H97.2913Z" fill="#6B3618"/>
<path d="M74.934 125.039L74.7188 128.6H69.2562L68.2003 125.039H74.934Z" fill="#6B3618"/>
<path d="M48.1354 55.5285L47.7199 55.6719C45.1358 54.8138 42.7544 53.3499 40.8255 51.4285C40.0194 50.6273 39.2627 49.6925 39.0525 48.5748C39.0278 48.4363 39.0129 48.2879 39.0648 48.1593C39.1761 47.8922 39.5124 47.8205 39.7968 47.7859C41.7356 47.5436 43.6817 47.3705 45.6328 47.2641L45.6946 47.2493C46.4538 50.2168 47.2699 52.9715 48.1329 55.5335L48.1354 55.5285Z" fill="#BA7342"/>
<path d="M92.6373 66.9013C95.2907 68.7807 94.7813 72.4974 92.6373 74.2581C91.114 75.5069 87.9933 76.9115 86.0619 77.4605C82.5603 78.1578 79.8822 78.5856 76.6625 78.4373C73.4379 78.2889 73.8682 78.2691 68.4427 77.1266C67.6637 76.8324 66.9045 76.4936 66.1627 76.1078C64.4267 75.2027 62.755 73.996 61.8326 72.2674C60.9078 70.5389 60.9127 68.207 62.2604 66.7826L62.2778 66.7455C62.8539 66.9977 63.4474 67.2104 64.0533 67.3909L69.2191 68.3256C71.5956 68.5754 74.0042 68.6991 76.3979 68.662L84.2172 67.606C85.1124 67.2771 85.9086 66.837 86.4452 66.246L86.5244 66.3276C88.5249 66.1297 90.9953 65.7341 92.6398 66.8988L92.6373 66.9013Z" fill="black"/>
<path d="M84.3359 67.8385C84.5411 68.4642 84.7019 69.2011 84.2864 69.7352C83.9724 70.1358 83.4185 70.3015 82.8942 70.4054C81.3338 70.7169 79.7166 70.6972 78.1265 70.5908C77.7382 70.5636 77.3253 70.5265 77.0137 70.3089C76.571 69.9973 76.4672 69.4335 76.3979 68.9266V68.4295C77.2288 68.4196 78.0647 68.3949 78.8956 68.3479C80.268 68.2762 82.4392 68.1006 84.2123 67.569L84.3334 67.841L84.3359 67.8385Z" fill="white"/>
<path d="M70.599 68.6694C70.599 68.6694 70.604 70.0344 70.2058 70.351C69.9338 70.571 69.4912 70.5785 69.093 70.5562C67.9258 70.4894 66.7661 70.2916 65.6533 69.9677C65.2848 69.8613 64.8891 69.7154 64.716 69.431C64.6221 69.2827 64.6048 69.117 64.5899 68.9513C64.5553 68.5853 64.5182 68.2218 64.4811 67.8558L64.5133 67.5665C66.2072 68.0413 67.9951 68.3751 69.7434 68.6397C70.0278 68.6818 70.3122 68.6274 70.5966 68.6669L70.599 68.6694Z" fill="white"/>
<path d="M86.0619 77.4605C83.8091 78.0515 82.904 78.3384 80.6933 78.5313C76.5636 78.8948 72.4413 78.6574 68.4426 77.1267C70.9229 74.8516 74.5136 73.7166 78.0077 73.8649C81.497 74.0133 83.3937 75.3783 86.0619 77.4605Z" fill="#FE5B5B"/>
<path d="M86.4428 66.2484L86.5219 66.33C88.5225 66.1322 90.9929 65.7365 92.6373 66.9013C95.2907 68.7807 94.7813 72.4974 92.6373 74.2581C91.114 75.5069 87.9933 76.9115 86.0619 77.4605C82.5603 78.1578 79.8822 78.5856 76.6625 78.4373C73.4379 78.2889 73.8682 78.2691 68.4427 77.1266C67.6637 76.8324 66.9045 76.4936 66.1627 76.1078C64.4267 75.2027 62.755 73.996 61.8326 72.2674C60.9078 70.5389 60.9127 68.207 62.2604 66.7826L62.2778 66.7455" stroke="black" stroke-width="1.48373" stroke-linecap="round" stroke-linejoin="round"/>
<path d="M87.2242 62.7147C87.8028 64.1465 87.1673 65.4547 86.4428 66.246C85.9061 66.837 85.1123 67.2772 84.2147 67.6061C82.4416 68.2589 80.268 68.4741 78.898 68.5631C78.0671 68.6175 77.2313 68.6496 76.3979 68.662C74.0042 68.7016 71.598 68.5755 69.2191 68.3257C68.9768 68.301 68.7394 68.2738 68.497 68.249C67.0158 68.0784 65.4999 67.8262 64.0533 67.3909C63.4474 67.2104 62.8515 66.9978 62.2777 66.7455C61.4741 66.3919 60.705 65.9666 59.9928 65.4423C59.7233 65.2445 59.4587 65.0343 59.2089 64.8093C58.0071 63.7311 56.8423 61.7157 58.467 60.4446C60.3167 58.9955 64.3748 62.2894 66.1528 62.8631C71.9072 64.7128 75.2307 61.4585 78.6903 60.3828C81.9594 59.3689 85.8122 59.2156 87.2242 62.7123V62.7147Z" fill="#663D2D"/>
<path d="M87.2242 62.7147C87.8028 64.1465 87.1673 65.4547 86.4428 66.246C85.9061 66.837 85.1123 67.2772 84.2147 67.6061C82.4416 68.2589 80.268 68.4741 78.898 68.5631C78.0671 68.6175 77.2313 68.6496 76.3979 68.662C74.0042 68.7016 71.598 68.5755 69.2191 68.3257C68.9768 68.301 68.7394 68.2738 68.497 68.249C67.0158 68.0784 65.4999 67.8262 64.0533 67.3909C63.4474 67.2104 62.8515 66.9978 62.2777 66.7455C61.4741 66.3919 60.705 65.9666 59.9928 65.4423C59.7233 65.2445 59.4587 65.0343 59.2089 64.8093C58.0071 63.7311 56.8423 61.7157 58.467 60.4446C60.3167 58.9955 64.3748 62.2894 66.1528 62.8631C71.9072 64.7128 75.2307 61.4585 78.6903 60.3828C81.9594 59.3689 85.8122 59.2156 87.2242 62.7123V62.7147Z" stroke="#381B0B" stroke-width="1.48373" stroke-linecap="round" stroke-linejoin="round"/>
<path d="M62.6039 65.0185C62.8433 64.7014 62.3341 63.9132 61.4664 63.2582C60.5988 62.6032 59.7013 62.3294 59.4618 62.6466C59.2224 62.9638 59.7316 63.7519 60.5993 64.4069C61.4669 65.0619 62.3644 65.3357 62.6039 65.0185Z" fill="black"/>
<path d="M83.153 66.087C84.4781 65.5833 85.4029 64.7818 85.2185 64.2967C85.0341 63.8115 83.8104 63.8265 82.4853 64.3302C81.1601 64.8338 80.2353 65.6354 80.4197 66.1205C80.6041 66.6056 81.8278 66.5906 83.153 66.087Z" fill="black"/>
<path d="M127.559 57.6948C124.839 56.6388 122.104 55.6274 119.352 54.6556C118.523 54.3638 116.469 53.2213 115.682 53.6368C115.393 53.7901 113.776 56.5078 113.954 56.6463C117.725 59.5247 123.071 60.1849 127.428 58.3105C127.488 58.0434 127.498 57.9594 127.557 57.6948H127.559Z" fill="#BA7342"/>
<path d="M117.534 64.9205L117.539 64.7672C116.679 64.7375 115.821 64.6262 114.99 64.4309L114.851 65.0046L114.456 70.5735L110.677 71.0483L107.161 76.6049L100.996 76.3403L98.0802 81.7114L90.8544 80.517L86.2128 85.6878L81.905 84.0309L73.3538 89.0682L71.8157 85.3267L63.947 89.8595C63.9643 89.9288 63.9816 89.998 63.9989 90.0648C63.7837 90.4011 63.6923 90.3863 63.4746 90.7226C65.7917 89.7977 68.1533 88.9841 70.5446 88.2794C71.1851 89.4738 71.8379 90.6311 72.4784 91.8205C75.4929 90.2626 78.8312 88.6132 81.7913 86.9514C83.0203 87.6809 84.3977 88.5365 85.7355 89.046C87.563 87.1567 89.66 85.5221 91.6432 83.801C93.8614 84.2609 96.1117 85.0152 98.2533 85.7471C99.5936 83.6477 100.424 82.7401 101.772 80.6505C107.054 88.722 108.118 89.2463 109.663 97.6293C110.301 101.086 110.813 102.491 110.984 106.027L113.919 105.864C113.538 99.9588 112.779 91.2864 112.022 86.4148L112.067 86.4074C112.373 86.7684 112.67 87.1344 112.959 87.5078C114.038 88.8803 115.012 90.3319 115.873 91.8477C118.135 86.3258 117.411 80.1362 115.821 74.3892C117.66 75.3956 119.206 76.5703 120.41 78.284C121.046 76.3428 120.848 67.7025 117.537 64.923L117.534 64.9205Z" fill="#99592E"/>
<path d="M71.4546 119.143C71.7217 120.756 71.9887 122.366 72.2533 123.978C72.283 124.163 72.325 124.369 72.4759 124.485C73.2598 124.43 73.9844 124.485 74.7683 124.433C74.7806 123.753 74.8251 123.075 74.8696 122.398C74.9018 121.888 75.2233 120.632 75.0007 120.184C74.6347 119.448 72.3201 119.171 71.4991 118.98" fill="#99592E"/>
<path d="M106.691 100.809C104.91 109.371 101.179 117.054 97.3012 124.801L97.2913 124.796H92.9193C96.9822 114.863 100.078 104.544 102.084 93.9967C103.654 94.7015 105.091 95.5818 106.08 96.9913C106.488 97.5749 106.659 99.0612 106.691 100.812V100.809Z" fill="#99592E"/>
<path d="M61.1847 84.0409L63.1185 91.3334L70.5396 88.2794L71.0218 86.7215L63.0221 90.6336L61.1847 84.0409Z" fill="#99592E"/>
<path d="M60.7545 54.6803C60.4008 52.8801 60.5789 50.9933 61.2639 49.2746" stroke="black" stroke-width="2.22559" stroke-linecap="round" stroke-linejoin="round"/>
<path d="M88.5323 56.4781C88.1787 54.6779 88.3568 52.791 89.0417 51.0724" stroke="black" stroke-width="2.22559" stroke-linecap="round" stroke-linejoin="round"/>
<path d="M114.609 65.0293L114.211 70.5982L110.432 71.073L106.918 76.6296L100.753 76.365L97.8353 81.7361L90.6096 80.5417L85.968 85.7125L81.6577 84.0557L73.3538 89.3105L71.7637 85.7966L63.0221 90.6311L60.8954 82.2653L57.2603 83.9889L56.0016 73.7784L52.9179 73.2492L53.1874 67.2722C51.9386 66.5674 50.7863 65.9269 49.3891 65.1332C50.1384 63.7187 50.7591 62.4451 51.5059 61.0306C50.3214 60.6127 49.2828 60.3976 48.0982 59.9797C46.8766 53.7876 46.1892 46.4406 46.1892 37.7114H49.8268C49.2654 36.6554 48.7684 35.6366 48.0908 34.6524C49.0157 34.1751 55.2696 33.9056 57.2405 34.2716C56.5456 32.4911 55.2523 30.2531 54.09 29.0068C54.4536 28.7298 60.0942 28.119 66.4198 29.8031C65.3639 28.2427 64.0533 27.0458 62.6141 25.8292C63.712 25.5967 68.3858 24.3355 72.1347 26.0814" stroke="#381B0B" stroke-width="1.73102" stroke-linecap="round" stroke-linejoin="round"/>
<path d="M47.438 55.5062C44.8538 54.6481 42.4749 53.1817 40.5436 51.2628C39.7374 50.4615 38.9807 49.5268 38.773 48.409C38.7458 48.2706 38.731 48.1222 38.7854 47.9911C38.8967 47.7265 39.2305 47.6523 39.5174 47.6177C41.4561 47.3779 43.4047 47.2048 45.3534 47.0959" stroke="#381B0B" stroke-width="1.73102" stroke-linecap="round" stroke-linejoin="round"/>
<path d="M83.2899 25.5596C87.2415 25.0057 91.3317 25.4953 95.041 26.9618C94.3041 27.8916 94.0494 28.5592 93.5424 29.6349C98.5179 27.7778 104.433 29.1873 108.587 32.4961C106.948 33.5693 105.796 34.8552 104.391 36.2227C105.42 35.8567 114.109 38.1194 117.084 39.9691C116.854 41.5765 116.15 43.0009 115.304 44.1829L119.881 46.0747L118.254 53.8346" stroke="#381B0B" stroke-width="1.73102" stroke-linecap="round" stroke-linejoin="round"/>
<path d="M74.8329 35.0621C73.8625 33.3638 73.582 31.3688 73.3913 29.4253C72.7325 22.7185 72.934 15.9604 73.1347 9.22516C73.1531 8.58085 73.1756 7.91818 73.4269 7.32444C73.6782 6.7307 74.2061 6.2072 74.8487 6.16053C75.4465 6.11697 76.0033 6.48305 76.4149 6.92084C77.0984 7.65094 77.5061 8.59215 77.8909 9.51744C80.567 15.9146 82.9206 22.4459 84.9437 29.0802C85.3367 30.3685 85.7199 31.6987 85.6022 33.0398C85.1153 38.5629 77.4133 39.5815 74.8338 35.067L74.8329 35.0621Z" fill="#FDFCE5"/>
<path d="M74.8329 35.0621C73.8625 33.3638 73.582 31.3688 73.3913 29.4253C72.7325 22.7185 72.934 15.9604 73.1347 9.22516C73.1531 8.58085 73.1756 7.91818 73.4269 7.32444C73.6782 6.7307 74.2061 6.2072 74.8487 6.16053C75.4465 6.11697 76.0033 6.48305 76.4149 6.92084C77.0984 7.65094 77.5061 8.59215 77.8909 9.51744C80.567 15.9146 82.9206 22.4459 84.9437 29.0802C85.3367 30.3685 85.7199 31.6987 85.6022 33.0398C85.1153 38.5629 77.4133 39.5815 74.8338 35.067L74.8329 35.0621Z" stroke="#F3C830" stroke-width="1.73102" stroke-linecap="round" stroke-linejoin="round"/>
<path d="M73.3886 29.4107C76.8442 32.0288 81.192 33.4461 85.5267 33.3703" stroke="#F3C830" stroke-width="1.23644" stroke-linecap="round" stroke-linejoin="round"/>
<path d="M73.0525 24.558C76.2225 26.7127 82.1533 28.1132 83.9668 27.4988" stroke="#F3C830" stroke-width="1.23644" stroke-linecap="round" stroke-linejoin="round"/>
<path d="M72.667 19.586C73.1894 20.0941 79.1391 22.3432 82.6549 22.0219" stroke="#F3C830" stroke-width="1.23644" stroke-linecap="round" stroke-linejoin="round"/>
<path d="M73.0494 14.4138C74.8968 15.4622 77.3256 15.9899 79.5761 15.9947" stroke="#F3C830" stroke-width="1.23644" stroke-linecap="round" stroke-linejoin="round"/>
<path d="M73.307 9.92287C74.1364 10.5711 76.4521 11.0164 78.0474 10.6529" stroke="#F3C830" stroke-width="1.23644" stroke-linecap="round" stroke-linejoin="round"/>
<path d="M108.625 60.7488C111.755 64.6337 117.574 65.7316 122.258 64.0155C124.755 63.1005 126.813 61.1148 127.522 58.5553C127.646 58.1077 127.767 56.9776 127.767 56.9776C127.767 56.9776 119.201 54.2426 115.981 53.3722" stroke="#381B0B" stroke-width="1.73102" stroke-linecap="round" stroke-linejoin="round"/>
<path d="M58.5239 45.172C60.25 43.9875 62.3346 43.3298 64.4292 43.31" stroke="black" stroke-width="1.73102" stroke-linecap="round" stroke-linejoin="round"/>
<path d="M86.1164 44.7838C88.5769 45.3304 90.8692 46.6014 92.6349 48.3992" stroke="black" stroke-width="1.73102" stroke-linecap="round" stroke-linejoin="round"/>
<path d="M111.815 86.4321C113.249 88.1211 114.525 89.9436 115.62 91.87C117.88 86.3505 117.161 80.1609 115.571 74.4114C117.411 75.4179 118.954 76.5925 120.16 78.3062C120.794 76.365 120.598 67.7223 117.287 64.9452" stroke="#381B0B" stroke-width="1.73102" stroke-linecap="round" stroke-linejoin="round"/>
<path d="M113.914 111.695C114.025 106.03 112.472 88.7888 111.186 83.2693" stroke="#381B0B" stroke-width="1.73102" stroke-linecap="round" stroke-linejoin="round"/>
<path d="M100.326 92.2805C102.432 94.0041 104.524 95.745 106.604 97.5032C107.208 102.385 107.702 107.105 108.305 111.987" stroke="#381B0B" stroke-width="1.73102" stroke-linecap="round" stroke-linejoin="round"/>
<path d="M72.2534 119.183C77.0384 120.41 82.3378 120.479 86.5887 119.082" stroke="#381B0B" stroke-width="1.73102" stroke-linecap="round" stroke-linejoin="round"/>
<path d="M67.1246 116.824C66.7438 116.631 66.4149 116.438 66.0613 116.198C63.8653 114.707 61.9118 112.823 60.5096 110.57C58.4745 107.303 57.6732 103.389 57.604 99.5409C57.5323 95.6931 58.1307 91.8428 58.7465 88.0445" stroke="#381B0B" stroke-width="1.73102" stroke-linecap="round" stroke-linejoin="round"/>
<path d="M65.2254 115.602L69.0139 128.385H74.9587L75.4731 119.821" stroke="#381B0B" stroke-width="1.73102" stroke-linecap="round" stroke-linejoin="round"/>
<path d="M75.1738 124.821H67.958L69.0139 128.385H74.9587L75.1738 124.821Z" stroke="#331D0D" stroke-width="1.73102" stroke-linejoin="round"/>
<path d="M86.0496 117.304L89.4003 128.385H95.2734C99.9966 118.913 104.903 109.751 106.76 99.1996" stroke="#381B0B" stroke-width="1.73102" stroke-linecap="round" stroke-linejoin="round"/>
<path d="M97.0465 124.821L88.4606 124.688C88.8167 125.815 89.0418 127.254 89.3978 128.382H95.2709L97.044 124.821" stroke="#331D0D" stroke-width="1.73102" stroke-linecap="round" stroke-linejoin="round"/>
<path d="M61.6917 94.6866C61.8178 94.9215 63.2076 97.6293 63.2076 97.6293L65.223 95.8711" stroke="#381B0B" stroke-width="1.73102" stroke-linecap="round" stroke-linejoin="round"/>
<path d="M64.2956 93.2671C64.5182 93.2671 67.4733 100.876 67.4733 100.876L75.4533 93.2671" stroke="#381B0B" stroke-width="1.73102" stroke-linecap="round" stroke-linejoin="round"/>
<path d="M72.2534 96.6006L73.2969 99.5037L81.8457 93.2671" stroke="#381B0B" stroke-width="1.73102" stroke-linecap="round" stroke-linejoin="round"/>
<path d="M113.701 105.864L107.68 106.69L108.303 111.989L110.979 109.68L113.914 111.695L113.701 105.864Z" stroke="#331D0D" stroke-width="1.73102" stroke-linecap="round" stroke-linejoin="round"/>
<path d="M36.1715 78.1381L40.4719 73.8427L36.7749 69.9973L36.038 73.452L32.4795 73.6201L36.1715 78.1381Z" stroke="#331D0D" stroke-width="1.73102" stroke-linecap="round" stroke-linejoin="round"/>
<path d="M35.6572 77.5099C38.3427 80.7766 41.3794 83.6106 44.834 86.1279C48.5186 88.816 53.7686 90.8338 58.1728 91.7488" stroke="#331D0D" stroke-width="1.73102" stroke-linecap="round" stroke-linejoin="round"/>
<path d="M40.4719 73.8427C44.0057 77.5421 51.6889 81.2119 56.7806 80.7124" stroke="#381B0B" stroke-width="1.73102" stroke-linecap="round" stroke-linejoin="round"/>
<path d="M21.8617 75.481C21.7263 77.2018 21.876 78.9742 22.3484 80.737L22.5449 81.4703C22.9078 82.8247 22.1052 84.2148 20.7508 84.5777C19.2436 84.9816 17.7154 83.9984 17.4586 82.4569L17.0347 79.9003C16.789 78.133 16.7876 76.3029 17.5082 74.6736C18.9869 75.0327 20.3662 75.193 21.861 75.4786L21.8617 75.481Z" fill="#E0A93E"/>
<path d="M41.9668 59.9378C42.2253 59.6125 42.5445 59.3708 42.9234 59.2847C44.0981 59.016 44.7117 60.6846 45.5376 61.216C46.574 61.883 48.1678 61.2767 49.0466 62.1395C49.5163 62.6025 49.589 63.3229 49.8666 63.9193C50.0863 64.3954 50.4465 64.8033 50.8897 65.0813C51.7511 65.6211 52.9512 65.7143 53.4983 66.5713C54.0867 67.4965 53.451 68.8215 52.4594 69.2869C51.4655 69.7529 50.2897 69.5687 49.2469 69.2311C46.7782 68.4257 43.3876 66.6256 41.8241 64.469C40.8661 63.1487 40.9482 61.2194 41.9668 59.9378Z" fill="#377B34" stroke="#11300F" stroke-width="1.48373" stroke-linecap="round" stroke-linejoin="round"/>
<path d="M15.6822 74.528C15.3663 74.2568 15.1353 73.9295 15.0641 73.5492C14.8367 72.366 16.5267 71.8133 17.0884 71.0048C17.793 69.9942 17.2421 68.3779 18.1397 67.5332C18.6197 67.0794 19.3394 67.0325 19.9493 66.7769C20.4324 66.5733 20.8549 66.2297 21.1481 65.7952C21.7188 64.9536 21.854 63.7577 22.7325 63.2432C23.6793 62.6874 24.9787 63.371 25.4078 64.3799C25.8368 65.3888 25.6124 66.5575 25.2356 67.5878C24.3427 70.0262 22.4197 73.3499 20.2084 74.8333C18.8542 75.7415 16.9298 75.5915 15.6846 74.5273L15.6822 74.528Z" fill="#377B34" stroke="#11300F" stroke-width="1.48373" stroke-linecap="round" stroke-linejoin="round"/>
<path d="M19.0223 75.251C18.5721 74.5166 18.3296 73.6497 18.3882 72.7507C18.4998 71.0747 19.6842 69.6667 21.2749 69.1636C22.7147 68.7087 24.3928 69.0476 25.5024 70.0739C27.5101 71.9296 26.8904 75.2062 24.7838 76.7077C22.8277 78.1022 20.2146 77.1972 19.0247 75.2504L19.0223 75.251Z" fill="#96B050" stroke="#2D330D" stroke-width="1.48373" stroke-linecap="round" stroke-linejoin="round"/>
<path d="M27.365 64.3752C26.9148 63.6408 26.6722 62.7739 26.7309 61.8749C26.8425 60.1989 28.0269 58.7909 29.6176 58.2879C31.0574 57.8329 32.7355 58.1718 33.845 59.1981C35.8528 61.0538 35.2331 64.3304 33.1265 65.8319C31.1704 67.2264 28.5573 66.3214 27.3674 64.3746L27.365 64.3752Z" fill="#96B050" stroke="#2D330D" stroke-width="1.48373" stroke-linecap="round" stroke-linejoin="round"/>
<path d="M34.0132 63.5615C33.5475 62.798 33.2936 61.8983 33.3546 60.9603C33.471 59.2164 34.7019 57.7524 36.3547 57.2327C37.8512 56.7601 39.5973 57.114 40.7477 58.178C42.8364 60.1068 42.1901 63.5134 40 65.0756C37.9669 66.5267 35.2494 65.5856 34.0126 63.5591L34.0132 63.5615Z" fill="#BC3730" stroke="#5E1412" stroke-width="1.48373" stroke-linecap="round" stroke-linejoin="round"/>
<path d="M21.4017 75.5607C18.2437 75.6798 17.617 79.7519 19.489 81.7413C20.2732 82.5757 21.6191 82.9933 22.7247 82.6382C24.2049 82.1622 24.4071 80.5284 24.1921 79.1908C23.9884 77.9243 23.0562 75.4962 21.4041 75.56L21.4017 75.5607Z" fill="#744C2A" stroke="#381B0B" stroke-width="1.48373" stroke-linecap="round" stroke-linejoin="round"/>
<path d="M33.8292 64.6042C32.7332 66.2368 31.6516 67.3407 29.3335 68.1769C28.9251 68.3247 28.4802 68.3364 28.0466 68.3425C26.4285 68.3613 24.8129 67.7395 23.6236 66.645C22.4342 65.5505 21.6827 63.9879 21.568 62.3751C26.0737 63.139 29.8394 63.6252 33.8268 64.6048L33.8292 64.6042Z" fill="#BC3730" stroke="#5E1412" stroke-width="1.48373" stroke-linecap="round" stroke-linejoin="round"/>
<path d="M21.8617 75.4809C22.3641 69.0817 26.8172 63.4006 33.3715 61.6444L33.608 61.581C37.7666 60.4667 41.9805 61.1451 45.438 63.1372C48.8937 65.1323 51.5863 68.4456 52.7006 72.6042C53.1717 74.3622 52.1278 76.1703 50.3674 76.642L20.7508 84.5777C22.1052 84.2148 22.9078 82.8247 22.5449 81.4703L22.3484 80.737C21.8761 78.9742 21.7263 77.2018 21.8617 75.4809Z" fill="#E0A93E"/>
<path d="M25.9803 77.6953C25.8128 77.223 26.1054 76.6428 26.5845 76.4914C27.0636 76.34 27.6381 76.6494 27.7728 77.133" stroke="#774815" stroke-width="1.15731" stroke-linecap="round" stroke-linejoin="round"/>
<path d="M28.4808 72.8676C28.3133 72.3954 28.6059 71.8152 29.085 71.6638C29.5641 71.5124 30.1386 71.8218 30.2733 72.3054" stroke="#774815" stroke-width="1.15731" stroke-linecap="round" stroke-linejoin="round"/>
<path d="M38.0397 66.8938C37.8722 66.4215 38.1647 65.8413 38.6439 65.6899C39.123 65.5385 39.6975 65.8479 39.8322 66.3315" stroke="#774815" stroke-width="1.15731" stroke-linecap="round" stroke-linejoin="round"/>
<path d="M32.7234 75.8885C32.5559 75.4162 32.8484 74.836 33.3276 74.6846C33.8067 74.5332 34.3811 74.8426 34.5158 75.3263" stroke="#774815" stroke-width="1.15731" stroke-linecap="round" stroke-linejoin="round"/>
<path d="M43.2739 73.0615C43.1064 72.5892 43.399 72.009 43.8781 71.8576C44.3573 71.7062 44.9317 72.0156 45.0664 72.4992" stroke="#774815" stroke-width="1.15731" stroke-linecap="round" stroke-linejoin="round"/>
<path d="M43.6507 68.4675C43.4832 67.9952 43.7758 67.4151 44.2549 67.2636C44.734 67.1122 45.3085 67.4217 45.4432 67.9053" stroke="#774815" stroke-width="1.15731" stroke-linecap="round" stroke-linejoin="round"/>
<path d="M20.7095 84.7962L50.326 76.8605C52.0841 76.3894 53.128 74.5813 52.6569 72.8233C50.4283 64.5061 41.8815 59.5716 33.5643 61.8001L33.3278 61.8635C25.0107 64.0921 20.0761 72.6389 22.3047 80.9561" stroke="#381B0B" stroke-width="1.48373" stroke-linecap="round" stroke-linejoin="round"/>
<path d="M22.3065 80.9531L22.5029 81.6864C22.8658 83.0407 22.0632 84.4309 20.7089 84.7938C18.9341 85.2693 17.4304 84.0235 17.1333 82.4083C16.7502 80.3195 16.3779 78.1561 16.874 76.0519" stroke="#381B0B" stroke-width="1.48373" stroke-linecap="round" stroke-linejoin="round"/>
</svg>
