<svg width="92" height="501" viewBox="0 0 92 501" fill="none" xmlns="http://www.w3.org/2000/svg">
<path d="M89.7129 452.916L59.1088 411.646C58.7093 411.108 58.1863 410.661 57.5496 410.45C53.5301 409.12 49.5745 410.994 47.2537 412.746C46.407 413.386 46 414.421 46 415.482V422.849C46 423.802 46.3403 424.724 46.9595 425.448L70.8912 453.443C71.8769 454.597 72.1269 456.207 71.5306 457.602C66.5531 469.246 57.4933 489.836 54.5 494.325C51.8641 498.279 54.4754 499.112 56.9683 499.003C57.9605 498.96 58.8325 498.387 59.4327 497.596L89.6867 457.716C90.7612 456.299 90.7719 454.344 89.7129 452.916Z" fill="#A6B9FF" stroke="black" stroke-width="2"/>
<path d="M53 293.524V303V307.012L38 318.703V304.994L53 293.524ZM38 321.238L53 309.547V322.028L38 334.381V321.238ZM38 336.972L53 324.619V338.017L38 349.929V336.972ZM38 352.483L53 340.571V354.517L38 366.429V352.483ZM38 368.983L53 357.071V371.006L38 382.476V368.983ZM38 384.994L53 373.524V387.012L38 398.703V384.994ZM38 401.238L53 389.547V411H38V401.238ZM53 291.006L38 302.476V291.75V288.983L53 277.071V278.5V291.006ZM53 274.517L38 286.429V275.5V272.483L53 260.571V262.5V274.517ZM53 258.017L38 269.929V259.5V256.972L53 244.619V246V258.017ZM53 242.028L38 254.381V243.483L53 231.571V242.028ZM53 229.017L38 240.929V227.972L53 215.619V229.017ZM53 213.028L38 225.381V212.238L53 200.547V213.028ZM53 198.012L38 209.703V195.994L53 184.524V198.012ZM53 182.006L38 193.476V179.983L53 168.071V182.006ZM53 165.517L38 177.429V163.483L53 151.571V165.517ZM53 149.017L38 160.929V147.972L53 135.619V149.017ZM53 133.028L38 145.381V133.972L53 121.619V133.028ZM53 119.028L38 131.381V121.222L51.6266 110H53V119.028ZM48.4805 110L38 118.631V110H48.4805Z" fill="#A6B9FF" stroke="black" stroke-width="2"/>
<path d="M1.78713 452.916L32.3912 411.646C32.7907 411.108 33.3137 410.661 33.9504 410.45C37.9699 409.12 41.9255 410.994 44.2463 412.746C45.093 413.386 45.5 414.421 45.5 415.482V422.849C45.5 423.802 45.1597 424.724 44.5405 425.448L20.6088 453.443C19.6231 454.597 19.3731 456.207 19.9694 457.602C24.9469 469.246 34.0067 489.836 37 494.325C39.6359 498.279 37.0246 499.112 34.5317 499.003C33.5395 498.96 32.6675 498.387 32.0673 497.596L1.81331 457.716C0.738773 456.299 0.728107 454.344 1.78713 452.916Z" fill="#A6B9FF" stroke="black" stroke-width="2"/>
<rect x="33" y="405" width="26" height="14" rx="3" fill="#A6B9FF" stroke="black" stroke-width="2"/>
</svg>
