<svg id="Layer_1" data-name="Layer 1" xmlns="http://www.w3.org/2000/svg" xmlns:xlink="http://www.w3.org/1999/xlink" viewBox="0 0 1245.04 715.69">
  <defs>
    <style>
      .cls-1{fill:#331708;}.cls-2{stroke:#4c250f;stroke-width:22px;fill:url(#linear-gradient);}.cls-2,.cls-3{stroke-linejoin:round;}.cls-11,.cls-3{fill:none;}.cls-3{stroke:#774335;stroke-linecap:round;stroke-width:20px;}.cls-4{fill:#4c250f;}.cls-5{fill:url(#linear-gradient-2);}.cls-6{font-size:36px;font-family:Bicyclette-Bold, Bicyclette;font-weight:700;}.cls-7{opacity:0.35;}.cls-8{fill:#fff;}.cls-11,.cls-8,.cls-9{stroke:#000;stroke-miterlimit:10;stroke-width:6px;}.cls-9{fill:#c8a5db;}.cls-10{fill:#fbcdb8;}
    </style>
    <linearGradient id="linear-gradient" x1="739.17" y1="132.51" x2="522.48" y2="519.29" gradientUnits="userSpaceOnUse">
      <stop offset="0" stop-color="#c59b6d"/>
      <stop offset="1" stop-color="#603813"/>
    </linearGradient>
    <linearGradient id="linear-gradient-2" x1="469.48" y1="508" x2="750.98" y2="508" gradientUnits="userSpaceOnUse">
      <stop offset="0" stop-color="#ffa13b"/>
      <stop offset="1" stop-color="#ffc73b"/>
    </linearGradient>
  </defs>
  <path class="cls-1" d="M946.7,353.35c-.67-29.51-2.86-57.15-6.31-79.94-3.83-25.29-8.69-41.61-14.84-49.9a17.36,17.36,0,0,0-6.61-5.34c-2.09-1-4.78-1.93-8.19-3.15-19.57-7-60.29-21.54-79-68.57a17.3,17.3,0,0,0-16.13-11H401.49a17.29,17.29,0,0,0-16.13,11c-18.76,47-59.48,61.58-79.05,68.57-3.4,1.22-6.1,2.18-8.19,3.15a17.26,17.26,0,0,0-6.6,5.34c-13.83,18.61-20,79.27-21.16,129.84-2.25,97.74,11.94,148.9,18.15,166.36a17.4,17.4,0,0,0,13.07,11.19c45.94,8.8,73.44,30.56,81.74,64.7h0a17.28,17.28,0,0,0,16.84,13.21H816.9a17.27,17.27,0,0,0,16.84-13.21c8.3-34.14,35.8-55.9,81.74-64.7a17.39,17.39,0,0,0,13.07-11.2C934.76,502.25,949,451.09,946.7,353.35Z"/>
  <path class="cls-2" d="M398.31,575.24c-11.52-47.33-53.62-65.26-89.58-72.15a7.33,7.33,0,0,1-5.53-4.72c-28.26-79.5-19.14-259,1.61-286.88a7.25,7.25,0,0,1,2.79-2.24c12.19-5.65,68.62-17.68,92.31-77.08a7.37,7.37,0,0,1,6.85-4.68H820.84a7.37,7.37,0,0,1,6.85,4.68c23.69,59.4,80.12,71.43,92.31,77.08a7.17,7.17,0,0,1,2.79,2.24c20.76,27.93,29.87,207.38,1.61,286.88a7.33,7.33,0,0,1-5.53,4.72c-36,6.89-78.06,24.82-89.58,72.15a7.32,7.32,0,0,1-7.12,5.58H405.43A7.33,7.33,0,0,1,398.31,575.24Z"/>
  <path class="cls-3" d="M409.86,122.89H824.32a7.4,7.4,0,0,1,6.85,4.68C854.86,187,911.3,198.38,923.49,204"/>
  <path class="cls-3" d="M817.79,578H409.21a7,7,0,0,1-6.84-4.68c-19.95-65.51-81.86-67.85-94.05-73.5"/>
  <path class="cls-4" d="M730.9,550.67H482.77A16.68,16.68,0,0,0,466.09,534V492.87a16.68,16.68,0,0,0,16.68-16.68H730.9a16.68,16.68,0,0,0,16.68,16.68V534A16.68,16.68,0,0,0,730.9,550.67Z"/>
  <path class="cls-5" d="M734.29,545.24H486.17a16.68,16.68,0,0,0-16.69-16.68V487.44a16.68,16.68,0,0,0,16.69-16.68H734.29A16.68,16.68,0,0,0,751,487.44v41.12A16.68,16.68,0,0,0,734.29,545.24Z"/>
  <g class="cls-7">
    <path d="M373.15,144.28l-1,.41c-4.4,2-8.14,6.08-11.21,12.29A105,105,0,0,0,373.15,144.28Z"/>
    <path d="M900.77,352c-28.29-17.49-60.63-37.48-90.06-52.67-.88-9.92-4.9-16.91-64.92-50.36-44.11-24.58-141.92-29-220.51-32.46-38.16-1.71-71.12-3.18-88.53-6.72-27.21-5.53-33.89-27-39.27-44.24-3.15-10.11-5.87-18.85-12.43-21.82-3.35-1.52-7.26-1.33-11.9.53A105,105,0,0,1,360.93,157c-6.34,12.82-9.82,34.63-10.39,65.23-.47,24.83,1.15,49,2,59.61-16.13,9.73-23.1,21.6-29,33.4A41.71,41.71,0,0,0,274,312.68c-.9.59-1.76,1.23-2.6,1.89-.51,9.05-.86,18.07-1.07,26.79a745.21,745.21,0,0,0,2.54,85.06c5.68-.06,10.66.06,14.78.4-4.27,2.87-8.94,6.28-13.72,10,1.31,11.71,2.84,22,4.45,30.86a122.93,122.93,0,0,1,32.71-5.55c34.09-1.37,103-16.28,169.66-30.7,55.12-11.93,107.18-23.19,134.75-25.75,8.86-.82,20.08-2.12,33.07-3.63l5.45-.63c5.25,6.37,13.32,15.69,23.1,25.38,23.68,23.47,45.6,37.87,65.14,42.82l4.1,1-.38-4.22c-.71-7.76-6.17-15.71-12-24.12-7.06-10.28-14.36-20.9-11.45-29.85,2.57-7.93,8.36-14.49,13.71-19.18,24.08-1.76,49.17-2.88,73.26-2.57,67.09.89,111.89,12.71,133.17,35.13,1.6,1.69,3.14,3.45,4.62,5.26,1.87-13.76,3.45-29.87,4.4-48.5C937.77,374.89,920,363.92,900.77,352Z"/>
  </g>
  <circle class="cls-8" cx="235.93" cy="312.97" r="38.77"/>
  <path class="cls-9" d="M47.48,414.43s210.84-34.11,248.66-24.81c-22.32,13-60.77,47.13-62,61.4S249,426.21,311,423.73,554.35,373,615.51,367.3c67-6.2,271.61-40.31,329.9,21.08S977.66,589.92,1047.73,624c-34.73-155.65-44-198.44-35.35-223.86s152.55-89.92,172.4-88.06c-70.7-21.7-178,55.81-209,49S817.66,258.16,755,244.52s-285.25-53.33-395,1.24c-38.45,19.22-31,49.61-57.68,69.45S47.48,414.43,47.48,414.43Z"/>
  <path class="cls-9" d="M356.09,251.75S343.69,125.25,373.45,112s9.92,54.57,62.84,65.32,243.09,2.48,308.41,38.86,62.84,40.51,63.66,51.26"/>
  <path class="cls-9" d="M650.16,355.94s47.32,63.77,93.2,75.37c-1.49-16.47-29.12-37.2-23.28-55.17s26.42-29,26.42-29"/>
  <path class="cls-9" d="M351.54,294.33S397,296,400.32,335.67,392.88,382.8,383,386.11"/>
  <path class="cls-9" d="M343.27,317.48s39.69,28.12,24,52.92-26.46,18.19-26.46,18.19"/>
  <circle cx="219.81" cy="311.54" r="9.96"/>
  <circle class="cls-8" cx="297.12" cy="312.07" r="38.77"/>
  <circle cx="286.18" cy="311.9" r="9.96"/>
  <path class="cls-10" d="M398.69,259.16l9-2.8,23.5,68.28q-2.62,1.22-5.25,2.39Z"/>
  <polygon class="cls-10" points="415.82 254.15 431.83 250.35 450.46 317.27 437.43 322.1 415.82 254.15"/>
  <polygon class="cls-10" points="439.78 248.68 455.67 245.72 470.64 310.73 457.12 315 439.78 248.68"/>
  <polygon class="cls-10" points="463.61 244.42 479.48 242.15 491.3 305.01 477.48 308.74 463.61 244.42"/>
  <polygon class="cls-10" points="487.42 241.18 503.29 239.54 512.29 300.09 498.26 303.29 487.42 241.18"/>
  <polygon class="cls-10" points="511.23 238.88 527.09 237.84 533.54 295.95 519.35 298.63 511.23 238.88"/>
  <polygon class="cls-10" points="535.02 237.47 550.87 237.03 554.99 292.59 540.67 294.75 535.02 237.47"/>
  <polygon class="cls-10" points="558.79 236.95 574.61 237.07 576.61 290 562.18 291.64 558.79 236.95"/>
  <polygon class="cls-10" points="582.5 237.28 598.27 237.98 598.37 288.19 583.85 289.31 582.5 237.28"/>
  <polygon class="cls-10" points="606.14 238.47 621.84 239.73 620.23 287.16 605.64 287.76 606.14 238.47"/>
  <polygon class="cls-10" points="629.66 240.5 645.27 242.32 642.16 286.93 627.53 287 629.66 240.5"/>
  <polygon class="cls-10" points="653.05 243.37 668.56 245.75 664.13 287.48 649.48 287.02 653.05 243.37"/>
  <polygon class="cls-10" points="676.28 247.08 691.65 250.01 686.11 288.83 671.46 287.84 676.28 247.08"/>
  <polygon class="cls-10" points="699.3 251.61 714.53 255.09 708.08 290.97 693.44 289.45 699.3 251.61"/>
  <polygon class="cls-10" points="722.1 256.96 737.16 260.98 730.01 293.92 715.4 291.87 722.1 256.96"/>
  <polygon class="cls-10" points="744.65 263.12 759.52 267.66 751.88 297.66 737.31 295.08 744.65 263.12"/>
  <polygon class="cls-10" points="766.91 270.07 781.58 275.13 773.64 302.2 759.14 299.09 766.91 270.07"/>
  <polygon class="cls-10" points="788.85 277.79 803.3 283.36 795.27 307.52 780.86 303.89 788.85 277.79"/>
  <polygon class="cls-10" points="810.46 286.28 824.67 292.34 816.75 313.63 802.45 309.47 810.46 286.28"/>
  <polygon class="cls-10" points="831.71 295.5 845.66 302.05 838.06 320.5 823.88 315.83 831.71 295.5"/>
  <polygon class="cls-10" points="852.58 305.44 866.26 312.45 859.17 328.13 845.12 322.96 852.58 305.44"/>
  <polygon class="cls-10" points="873.04 316.07 886.45 323.53 880.04 336.49 866.15 330.83 873.04 316.07"/>
  <polygon class="cls-10" points="893.16 327.4 899.76 331.32 893.91 342.51 887.02 339.47 893.16 327.4"/>
  <path class="cls-9" d="M421,343.12c2.48-.83,162.89-77.73,220.77-57.06-5,9.93-39.69,7.45-72.76,21.5s-92.61,39.69-96.74,60.36"/>
  <path class="cls-11" d="M399.24,232.1s174.91-47.4,382.5,26.16"/>
</svg>

