<svg width="400" height="400" xmlns="http://www.w3.org/2000/svg"><g id="eye1"><ellipse stroke-width="3" ry="29.5" rx="29.5" id="svg_1" cy="154.5" cx="181.5" stroke="#000" fill="#fff"/><ellipse ry="3.5" rx="2.5" id="svg_3" cy="154.5" cx="173.5" stroke-width="3" stroke="#000" fill="#000000"/></g><g id="head"><ellipse fill="#a3f949" stroke-width="3" cx="204.5" cy="211.80065" id="svg_5" rx="71" ry="51.80065" stroke="#000"/></g><g id="eye2"><ellipse stroke-width="3" ry="29.5" rx="29.5" id="svg_2" cy="168.5" cx="209.5" stroke="#000" fill="#fff"/><ellipse ry="3.5" rx="3" id="svg_4" cy="169.5" cx="208" stroke-width="3" fill="#000000" stroke="#000"/></g><g class="mouth" transform="translate(15,0)"><path d="M 130 240 Q 165 250 193 235" stroke="black" stroke-width="3" fill="transparent"/></g><g class="mustache" transform="translate(140,195) scale(1.50 1.50)"><path fill="#dc6b0a" d="M21.455,13.025c-0.604-3.065-5.861-4.881-7.083-2.583c-1.22-2.299-6.477-0.483-7.081,2.583C6.501,16.229,2.321,17.11,0,15.439c0,3.622,3.901,3.669,6.315,3.9c5.718-0.25,7.525-2.889,8.057-4.093c0.532,1.205,2.34,3.843,8.058,4.093c2.416-0.231,6.315-0.278,6.315-3.9C26.423,17.11,22.244,16.229,21.455,13.025z"/></g></svg>