<?xml version="1.0" encoding="iso-8859-1"?>
<!-- Generator: Adobe Illustrator 18.0.0, SVG Export Plug-In . SVG Version: 6.00 Build 0)  -->
<!DOCTYPE svg PUBLIC "-//W3C//DTD SVG 1.1//EN" "http://www.w3.org/Graphics/SVG/1.1/DTD/svg11.dtd">
<svg version="1.1" id="Capa_1" xmlns="http://www.w3.org/2000/svg" xmlns:xlink="http://www.w3.org/1999/xlink" x="0px" y="0px"
	 viewBox="0 0 441.296 441.296" style="enable-background:new 0 0 441.296 441.296;" xml:space="preserve">
<g>
	<g>
		<path style="fill:#42D153;" d="M87.536,214.216L87.536,214.216l-28.012,0C26.65,214.217,0,187.566,0,154.692v0h28.012
			C60.886,154.692,87.536,181.342,87.536,214.216z"/>
		<path style="fill:#42D153;" d="M87.536,214.217L87.536,214.217l-28.012,0C26.65,214.217,0,240.867,0,273.741v0h28.012
			C60.886,273.741,87.536,247.091,87.536,214.217z"/>
	</g>
	<path style="fill:#42D153;" d="M65.58,214.217c71.933-48.892,116.046-103.729,203.024-103.729
		c36.572,0,73.047,4.643,108.413,13.801l-15.785,53.122l-163.598,18.157L65.58,214.217z"/>
	<path style="fill:#53F26D;" d="M416.376,226.776h18.09c-3.55,13.36-12.91,25.34-28.08,31.44c-0.52,0.21-1.04,0.41-1.57,0.6
		c-12.05,4.4-24.27,8.19-36.6,11.39c-32.65,8.46-66.13,12.68-99.6,12.68c-46.7,0-93.41-8.22-137.83-24.66
		c-29.7-10.99-58.39-25.66-85.37-44c96.3-65.46,214.2-84.11,322.82-55.99c12.32,3.19,24.54,6.98,36.59,11.38
		c18.38,6.72,28.66,21.88,30.84,38.03h-0.16C424.945,207.646,416.376,216.216,416.376,226.776z"/>
	<path style="fill:#92F49E;" d="M406.385,258.216c-0.52,0.21-1.04,0.41-1.57,0.6c-12.05,4.4-24.27,8.19-36.6,11.39
		c-32.65,8.46-66.13,12.68-99.6,12.68c-46.7,0-93.41-8.22-137.83-24.66c76.28-28.24,159.27-32.23,237.45-11.99
		c12.32,3.19,24.54,6.98,36.59,11.38C405.356,257.805,405.876,258.006,406.385,258.216z"/>
	<path style="fill:#42D153;" d="M416.377,226.776h23.632c-3.507,12.263-12.305,23.186-26.374,28.701
		c-14.898,5.844-30.061,10.754-45.416,14.728c-7.736-17.066-12.05-36.023-12.05-55.978c0-19.966,4.314-38.913,12.061-55.989
		c15.355,3.974,30.518,8.873,45.416,14.717c16.311,6.397,25.534,20.073,27.649,34.694h-5.791
		C424.942,207.649,416.377,216.214,416.377,226.776z"/>
	<g>
		<circle style="fill:#FFFFFF;" cx="386.486" cy="209.433" r="18.752"/>
		<circle style="fill:#4D4D4D;" cx="386.486" cy="209.433" r="11.473"/>
	</g>
	<path style="fill:#42D153;" d="M241.185,330.808L241.185,330.808c-11.933-22.244-3.574-49.95,18.67-61.883l46.244-24.807l0,0
		c11.933,22.244,3.574,49.95-18.671,61.883L241.185,330.808z"/>
</g>
<g>
</g>
<g>
</g>
<g>
</g>
<g>
</g>
<g>
</g>
<g>
</g>
<g>
</g>
<g>
</g>
<g>
</g>
<g>
</g>
<g>
</g>
<g>
</g>
<g>
</g>
<g>
</g>
<g>
</g>
</svg>
