<svg width="400" height="400" xmlns="http://www.w3.org/2000/svg"><g id="eye1"><ellipse stroke-width="3" ry="29.5" rx="29.5" id="svg_1" cy="154.5" cx="181.5" stroke="#000" fill="#fff"/><ellipse ry="3.5" rx="2.5" id="svg_3" cy="154.5" cx="173.5" stroke-width="3" stroke="#000" fill="#000000"/></g><g id="head"><ellipse fill="#adf9b1" stroke-width="3" cx="204.5" cy="211.80065" id="svg_5" rx="90" ry="51.80065" stroke="#000"/></g><g id="eye2"><ellipse stroke-width="3" ry="29.5" rx="29.5" id="svg_2" cy="168.5" cx="209.5" stroke="#000" fill="#fff"/><ellipse ry="3.5" rx="3" id="svg_4" cy="169.5" cx="208" stroke-width="3" fill="#000000" stroke="#000"/></g><g class="mouth" transform="translate(0,0)"><path d="M 130 240 Q 165 250 196 235" stroke="black" stroke-width="3" fill="transparent"/></g><g class="eyelash"><path d="M 164 130 Q 154 125 169 111" stroke="#d31085" stroke-width="1" fill="transparent"/><path d="M 171 127 Q 161 122 176 108" stroke="#d31085" stroke-width="1" fill="transparent"/><path d="M 179 125 Q 169 120 184 106" stroke="#d31085" stroke-width="1" fill="transparent"/><path d="M 186 126 Q 176 121 191 107" stroke="#d31085" stroke-width="1" fill="transparent"/><path d="M 194 127 Q 184 122 199 108" stroke="#d31085" stroke-width="1" fill="transparent"/><path d="M 196 142 Q 186 137 201 123" stroke="#d31085" stroke-width="1" fill="transparent"/><path d="M 203 140 Q 193 135 208 121" stroke="#d31085" stroke-width="1" fill="transparent"/><path d="M 211 139 Q 201 134 216 120" stroke="#d31085" stroke-width="1" fill="transparent"/><path d="M 218 141 Q 208 136 223 122" stroke="#d31085" stroke-width="1" fill="transparent"/><path d="M 226 143 Q 216 138 231 124" stroke="#d31085" stroke-width="1" fill="transparent"/></g></svg>
