<svg width="450" height="350" xmlns="http://www.w3.org/2000/svg" xmlns:xlink="http://www.w3.org/1999/xlink"><defs><style>.cls-1,.cls-12,.cls-17,.cls-18,.cls-22,.cls-4,.cls-26{fill:none;}.cls-2{isolation:isolate;}.cls-10,.cls-11,.cls-3,.cls-4,.cls-5,.cls-7,.cls-8,.cls-9{stroke:#42210b;}.cls-10,.cls-11,.cls-12,.cls-17,.cls-18,.cls-20,.cls-21,.cls-3,.cls-4,.cls-5,.cls-7,.cls-8,.cls-9,.cls-24,.cls-25,.cls-26{stroke-miterlimit:10;}.cls-3{fill:url(#linear-gradient);}.cls-4,.cls-24{stroke-linecap:round;}.cls-18,.cls-4{stroke-width:2px;}.cls-5,.cls-9{fill:#7fea4e;}.cls-19,.cls-6{fill:#cbcbcb;}.cls-14,.cls-6{mix-blend-mode:multiply;}.cls-7{fill:url(#linear-gradient-2);}.cls-8{fill:url(#linear-gradient-3);}.cls-9{stroke-width:1.09px;}.cls-10{fill:url(#linear-gradient-4);}.cls-11{fill:url(#linear-gradient-5);}.cls-12{stroke:#8431f1;stroke-width:3.81px;}.cls-13{clip-path:url(#clip-path);}.cls-15{fill:url(#linear-gradient-6);}.cls-16{fill:#754c24;}.cls-17,.cls-18{stroke:#754c24;}.cls-17{stroke-width:2.13px;}.cls-20,.cls-24,.cls-25{fill:#8431f1;}.cls-20,.cls-21,.cls-22,.cls-24,.cls-25,.cls-26{stroke:#000;}.cls-21{fill:#fff;}.cls-22{stroke-width:1.11px;}.cls-23{fill:#5c8b07;}</style><linearGradient id="linear-gradient" x1="225.7" y1="217.21" x2="231.4" y2="217.21" gradientUnits="userSpaceOnUse"><stop offset="0" stop-color="#a57c52"/><stop offset="1" stop-color="#603813"/></linearGradient><linearGradient id="linear-gradient-2" x1="132.43" y1="152" x2="145.69" y2="152" xlink:href="#linear-gradient"/><linearGradient id="linear-gradient-3" x1="115.36" y1="81.99" x2="162.22" y2="81.99" gradientUnits="userSpaceOnUse"><stop offset="0" stop-color="#c59b6d"/><stop offset="1" stop-color="#603813"/></linearGradient><linearGradient id="linear-gradient-4" x1="333.74" y1="147.55" x2="345.01" y2="147.55" xlink:href="#linear-gradient"/><linearGradient id="linear-gradient-5" x1="116.69" y1="135.07" x2="309.22" y2="265.47" xlink:href="#linear-gradient-3"/><clipPath id="clip-path"><path class="cls-1" d="M326.13,245.17c1.23,0,2.45.05,3.66.13,2.29-16.67,3-16.92,3-16.92H232.33l-4.18,16h-53.4c0,50.86,11.44,71.92,99.53,71.37a54.36,54.36,0,0,1,51.85-70.56Z"/></clipPath><linearGradient id="linear-gradient-6" x1="174.75" y1="263.16" x2="333.86" y2="263.16" gradientUnits="userSpaceOnUse"><stop offset="0" stop-color="#8b6239"/><stop offset="1" stop-color="#603813"/></linearGradient></defs>
<g id="loogie-ship" transform='scale(-1 1) translate(-450 -20)'><g id="ship" class="cls-2"><g id="Layer_1" data-name="Layer 1"><polygon class="cls-3" points="231.4 235.82 225.7 235.82 226.56 198.59 230.54 198.59 231.4 235.82"/><circle class="cls-4" cx="230.7" cy="185.42" r="12.87"/><line class="cls-4" x1="225.45" y1="169.28" x2="235.95" y2="201.55"/><line class="cls-4" x1="246.84" y1="180.17" x2="214.56" y2="190.67"/><line class="cls-4" x1="238.4" y1="170.29" x2="223" y2="200.54"/><line class="cls-4" x1="245.82" y1="193.11" x2="215.58" y2="177.72"/><path class="cls-5" d="M394.77,120.67c-13.62-3.82-15.26-3.82-9.81-21.25S340.28,88,340.28,88l.55,28.34s24.52-4.91,20.7,11.44c-2,8.41,10.54,13.44,26.16,8.17,10.32-3.48,24-4.9,31.06,5.45C423.11,124.48,408.39,124.48,394.77,120.67Z"/><path class="cls-6" d="M340.28,88l.55,28.34a28.26,28.26,0,0,1,10.1-.54c-.46-9.52.38-19,.24-28.63C344.9,87.42,340.28,88,340.28,88Z"/><polygon class="cls-7" points="145.69 223.66 132.43 223.66 134.43 80.35 143.69 80.35 145.69 223.66"/><path class="cls-6" d="M143.69,80.35h-9.26l-1.36,97.74,12,2.67Z"/><polygon class="cls-8" points="152.22 93.97 125.36 93.97 115.36 70 162.22 70 152.22 93.97"/><polygon class="cls-9" points="179.12 90.71 103.37 90.71 81.58 170.26 200.91 170.26 179.12 90.71"/><polygon class="cls-10" points="345.01 208.39 333.74 208.39 335.44 86.7 343.31 86.7 345.01 208.39"/><path class="cls-11" d="M326.13,255.76a43.13,43.13,0,0,1,13.94,2.31c1.75-11.37,3.5-22.15,3.5-22.15,1.47-10.36,9.47-18.14,19.36-20.85a1.72,1.72,0,0,0,1.08-1.22l9-39.78c-1.18.41-65.9,11.43-66.51,13.4-4.49,13-13.62,26.51-29,25.92H224.72a1.69,1.69,0,0,0-1.61,1.16l-4.93,16.75a1.69,1.69,0,0,1-1.61,1.16H157a12.35,12.35,0,0,1-11.75-8.53c-2-7.67-6.65-14.57-13.9-18.09L42.53,161l-3.09,8.72s74.83,43.68,75.92,58.94c8.74,101.78,153.1,95.18,170.55,94.91,1.51,0,3-.1,4.42-.21a43.27,43.27,0,0,1,35.8-67.59Z"/><g class="wheel"><circle class="cls-12" cx="326.36" cy="299.54" r="30.05"/><line class="cls-12" x1="326.36" y1="259.91" x2="326.36" y2="339.17"/><line class="cls-12" x1="365.99" y1="299.54" x2="286.73" y2="299.54"/><line class="cls-12" x1="354.39" y1="271.51" x2="298.34" y2="327.56"/><line class="cls-12" x1="354.39" y1="327.56" x2="298.34" y2="271.51"/><animateTransform attributeName="transform" attributeType="XML" type="rotate" from="0 326.36 299.54" to="360 326.36 299.54" begin="0s" dur="4s" repeatCount="indefinite" additive="sum" /></g><g class="cls-13"><g class="cls-14"><path class="cls-15" d="M326.13,245.17c1.23,0,2.45.05,3.66.13,2.29-16.67,4.07-34.72,4.07-34.72H229.24l-8.17,33.78H174.75c0,50.86,11.44,71.92,99.53,71.37a54.36,54.36,0,0,1,51.85-70.56Z"/></g><circle class="cls-16" cx="271.29" cy="247.93" r="2.9"/><circle class="cls-16" cx="281.37" cy="241.09" r="2.9"/><circle class="cls-16" cx="259.51" cy="253.66" r="2.72"/><line class="cls-17" x1="257.57" y1="253.12" x2="289.45" y2="262.25"/><line class="cls-18" x1="271.47" y1="248.18" x2="282.23" y2="271.33"/><line class="cls-18" x1="281.28" y1="241.36" x2="284.41" y2="267.52"/></g><path class="cls-20" d="M48.49,183.39s-1.76,5.12.91,6.59,6.54-1.15,10.31,1.09.44,12.21,15,18.11c18,7.32,21.13,7.87,25,10.58s1.61,6.46,4.32,13.7c6.69-3.1,4.35-13.77,4.35-13.77s8,4.39,13.74,1.46c-1.57-6.24-16.85-9.59-16.85-9.59s-6.88-2.17-11.14-7.21-9.29-10.43-15.72-14.13-12.21-5.09-12.94-9.3-3.89-8.48-7.63-7.83-9.24-3.21-9.24-3.21l-3.33,3s4.39,3.08,4.33,5.5A17.63,17.63,0,0,1,48.49,183.39Z"/><path class="cls-20" d="M56.7,173.21s13.07-1.79,20,3.33,7.48,9.45,9.61,10.2c.69.24,3.86-.08,5.92,1.32s3.11,2.83,1.1,4.43-6-1-6-1a5,5,0,0,1,.17,2.68c-.39,1-1.89.16-2.72-1.19s-4.74-7.93-8.34-10.95-15.48-2.71-15.48-2.71"/><circle class="cls-20" cx="43.68" cy="171.22" r="8.5"/><circle class="cls-21" cx="36.52" cy="166.34" r="3.89"/><circle class="cls-21" cx="40.6" cy="163.75" r="3.89"/><circle cx="40.6" cy="163.75" r="1"/><circle cx="35.08" cy="166.99" r="1"/><path class="cls-22" d="M38,177.34a7.2,7.2,0,0,0,9.26-4.09"/><polygon class="cls-23" points="187.25 123.39 181.98 104.15 138.63 123.3 100.18 103.16 94.85 122.63 137.9 145.18 187.25 123.39"/><polygon class="cls-23" points="173.77 91.71 108.8 91.71 137.81 106.91 173.77 91.71"/><polygon class="cls-23" points="192.26 141.67 138.78 164.16 90.57 138.27 85.22 157.79 106.41 169.17 177.76 169.17 197.52 160.86 192.26 141.67"/></g></g></g></svg>
