<svg width="450" height="350" xmlns="http://www.w3.org/2000/svg" xmlns:xlink="http://www.w3.org/1999/xlink"><defs><style>
.cls-111,.cls-1112,.cls-1117,.cls-1118,.cls-1122,.cls-114,.cls-1126{fill:none;}.cls-112{isolation:isolate;}.cls-1110,.cls-1111,.cls-113,.cls-114,.cls-115,.cls-117,.cls-118,.cls-119{stroke:#42210b;}.cls-1110,.cls-1111,.cls-1112,.cls-1117,.cls-1118,.cls-1120,.cls-1121,.cls-113,.cls-114,.cls-115,.cls-117,.cls-118,.cls-119,.cls-1124,.cls-1125,.cls-1126{stroke-miterlimit:10;}.cls-113{fill:url(#linear-gradient);}.cls-114,.cls-1124{stroke-linecap:round;}.cls-1118,.cls-114{stroke-width:2px;}.cls-115,.cls-119{fill:#fa2301;}.cls-1119,.cls-116{fill:#cbcbcb;}.cls-1114,.cls-116{mix-blend-mode:multiply;}.cls-117{fill:url(#linear-gradient-2);}.cls-118{fill:url(#linear-gradient-3);}.cls-119{stroke-width:1.09px;}.cls-1110{fill:url(#linear-gradient-4);}.cls-1111{fill:url(#linear-gradient-5);}.cls-1112{stroke:#617c5b;stroke-width:3.81px;}.cls-1113{clip-path:url(#clip-path);}.cls-1115{fill:url(#linear-gradient-6);}.cls-1116{fill:#754c24;}.cls-1117,.cls-1118{stroke:#754c24;}.cls-1117{stroke-width:2.13px;}.cls-1120,.cls-1124,.cls-1125{fill:#7e450d;}.cls-1120,.cls-1121,.cls-1122,.cls-1124,.cls-1125,.cls-1126{stroke:#000;}.cls-1121{fill:#fff;}.cls-1122{stroke-width:1.11px;}.cls-1123{fill:#01cc11;}
</style><linearGradient id="linear-gradient" x1="225.7" y1="217.21" x2="231.4" y2="217.21" gradientUnits="userSpaceOnUse"><stop offset="0" stop-color="#a57c52"/><stop offset="1" stop-color="#603813"/></linearGradient><linearGradient id="linear-gradient-2" x1="132.43" y1="152" x2="145.69" y2="152" xlink:href="#linear-gradient"/><linearGradient id="linear-gradient-3" x1="115.36" y1="81.99" x2="162.22" y2="81.99" gradientUnits="userSpaceOnUse"><stop offset="0" stop-color="#c59b6d"/><stop offset="1" stop-color="#603813"/></linearGradient><linearGradient id="linear-gradient-4" x1="333.74" y1="147.55" x2="345.01" y2="147.55" xlink:href="#linear-gradient"/><linearGradient id="linear-gradient-5" x1="116.69" y1="135.07" x2="309.22" y2="265.47" xlink:href="#linear-gradient-3"/><clipPath id="clip-path"><path class="cls-1" d="M326.13,245.17c1.23,0,2.45.05,3.66.13,2.29-16.67,3-16.92,3-16.92H232.33l-4.18,16h-53.4c0,50.86,11.44,71.92,99.53,71.37a54.36,54.36,0,0,1,51.85-70.56Z"/></clipPath><linearGradient id="linear-gradient-6" x1="174.75" y1="263.16" x2="333.86" y2="263.16" gradientUnits="userSpaceOnUse"><stop offset="0" stop-color="#8b6239"/><stop offset="1" stop-color="#603813"/></linearGradient></defs>
<g id="loogie-ship" transform='scale(-1 1) translate(-450 0)'><g id="captain" class="captain" transform="scale(0.3 0.3) translate(710 420)"><g id="eye1"><ellipse stroke-width="3" ry="29.5" rx="29.5" id="svg_1" cy="154.5" cx="181.5" stroke="#000" fill="#fff"/><ellipse ry="3.5" rx="2.5" id="svg_3" cy="154.5" cx="173.5" stroke-width="3" stroke="#000" fill="#000000"/></g><g id="head"><ellipse fill="#c550f9" stroke-width="3" cx="204.5" cy="211.80065" id="svg_5" rx="85" ry="51.80065" stroke="#000"/></g><g id="eye2"><ellipse stroke-width="3" ry="29.5" rx="29.5" id="svg_2" cy="168.5" cx="209.5" stroke="#000" fill="#fff"/><ellipse ry="3.5" rx="3" id="svg_4" cy="169.5" cx="208" stroke-width="3" fill="#000000" stroke="#000"/></g><g class="mouth" transform="translate(4,0)"><path d="M 130 240 Q 165 250 181 235" stroke="black" stroke-width="3" fill="transparent"/></g><g class="bow" transform="translate(180,235) scale(0.10 0.10)"><path fill="#bb561d" d="M476.532,135.396c-12.584-7.796-29-7.356-46.248,1.228l-117.868,59.88c-10.048-9.7-23.728-14.452-38.816-14.452h-50.156c-15.204,0-28.992,4.828-39.064,14.652L66.1,137.256c-17.232-8.58-33.836-9.336-46.412-1.544C7.1,143.508,0,158.1,0,177.368v141.104c0,19.268,7.1,34.18,19.68,41.96c5.972,3.708,12.904,5.556,20.28,5.556c8.164,0,17.04-2.256,26.092-6.764l118.312-58.14c10.072,9.824,23.88,16.588,39.08,16.588H273.6c15.084,0,28.78-6.692,38.82-16.396l117.884,58.276c9.068,4.512,17.9,6.596,26.064,6.596c7.388,0,14.192-1.928,20.164-5.636C489.108,352.72,496,337.744,496,318.476V177.368C496,158.1,489.108,143.192,476.532,135.396z"/></g></g><g id="officer" class="officer" transform="scale(0.3 0.3) translate(405 520)"><g id="eye1"><ellipse stroke-width="3" ry="29.5" rx="29.5" id="svg_1" cy="154.5" cx="181.5" stroke="#000" fill="#fff"/><ellipse ry="3.5" rx="2.5" id="svg_3" cy="154.5" cx="173.5" stroke-width="3" stroke="#000" fill="#000000"/></g><g id="head"><ellipse fill="#c7fc89" stroke-width="3" cx="204.5" cy="211.80065" id="svg_5" rx="42" ry="51.80065" stroke="#000"/></g><g id="eye2"><ellipse stroke-width="3" ry="29.5" rx="29.5" id="svg_2" cy="168.5" cx="209.5" stroke="#000" fill="#fff"/><ellipse ry="3.5" rx="3" id="svg_4" cy="169.5" cx="208" stroke-width="3" fill="#000000" stroke="#000"/></g><g class="mouth" transform="translate(39,0)"><path d="M 130 240 Q 165 250 180 235" stroke="black" stroke-width="3" fill="transparent"/></g><g id="eye1"><ellipse ry="3.5" rx="2.5" id="svg_3" cy="154.5" cx="173.5" stroke-width="3" stroke="#a8350e" fill="#a8350e"></ellipse></g><g id="eye2"><ellipse ry="3.5" rx="3" id="svg_4" cy="169.5" cx="208" stroke-width="3" fill="#a8350e" stroke="#a8350e"></ellipse></g></g><g id="seaman" class="seaman" transform="scale(0.3 0.3) translate(260 -20)"><g id="eye1"><ellipse stroke-width="3" ry="29.5" rx="29.5" id="svg_1" cy="154.5" cx="181.5" stroke="#000" fill="#fff"/><ellipse ry="3.5" rx="2.5" id="svg_3" cy="154.5" cx="173.5" stroke-width="3" stroke="#000" fill="#000000"/></g><g id="head"><ellipse fill="#d202ba" stroke-width="3" cx="204.5" cy="211.80065" id="svg_5" rx="84" ry="51.80065" stroke="#000"/></g><g id="eye2"><ellipse stroke-width="3" ry="29.5" rx="29.5" id="svg_2" cy="168.5" cx="209.5" stroke="#000" fill="#fff"/><ellipse ry="3.5" rx="3" id="svg_4" cy="169.5" cx="208" stroke-width="3" fill="#000000" stroke="#000"/></g><g class="mouth" transform="translate(4,0)"><path d="M 130 240 Q 165 250 187 235" stroke="black" stroke-width="3" fill="transparent"/></g><g class="eyelash"><path d="M 164 130 Q 154 125 169 115" stroke="#93fd33" stroke-width="1" fill="transparent"/><path d="M 171 127 Q 161 122 176 112" stroke="#93fd33" stroke-width="1" fill="transparent"/><path d="M 179 125 Q 169 120 184 110" stroke="#93fd33" stroke-width="1" fill="transparent"/><path d="M 186 126 Q 176 121 191 111" stroke="#93fd33" stroke-width="1" fill="transparent"/><path d="M 194 127 Q 184 122 199 112" stroke="#93fd33" stroke-width="1" fill="transparent"/><path d="M 196 142 Q 186 137 201 127" stroke="#93fd33" stroke-width="1" fill="transparent"/><path d="M 203 140 Q 193 135 208 125" stroke="#93fd33" stroke-width="1" fill="transparent"/><path d="M 211 139 Q 201 134 216 124" stroke="#93fd33" stroke-width="1" fill="transparent"/><path d="M 218 141 Q 208 136 223 126" stroke="#93fd33" stroke-width="1" fill="transparent"/><path d="M 226 143 Q 216 138 231 128" stroke="#93fd33" stroke-width="1" fill="transparent"/></g></g><g id="ship" class="cls-112"><g id="Layer_1" data-name="Layer 1"><polygon class="cls-113" points="231.4 235.82 225.7 235.82 226.56 198.59 230.54 198.59 231.4 235.82"/><circle class="cls-114" cx="230.7" cy="185.42" r="12.87"/><line class="cls-114" x1="225.45" y1="169.28" x2="235.95" y2="201.55"/><line class="cls-114" x1="246.84" y1="180.17" x2="214.56" y2="190.67"/><line class="cls-114" x1="238.4" y1="170.29" x2="223" y2="200.54"/><line class="cls-114" x1="245.82" y1="193.11" x2="215.58" y2="177.72"/><path class="cls-115" d="M394.77,120.67c-13.62-3.82-15.26-3.82-9.81-21.25S340.28,88,340.28,88l.55,28.34s24.52-4.91,20.7,11.44c-2,8.41,10.54,13.44,26.16,8.17,10.32-3.48,24-4.9,31.06,5.45C423.11,124.48,408.39,124.48,394.77,120.67Z"/><path class="cls-116" d="M340.28,88l.55,28.34a28.26,28.26,0,0,1,10.1-.54c-.46-9.52.38-19,.24-28.63C344.9,87.42,340.28,88,340.28,88Z"/><polygon class="cls-117" points="145.69 223.66 132.43 223.66 134.43 80.35 143.69 80.35 145.69 223.66"/><path class="cls-116" d="M143.69,80.35h-9.26l-1.36,97.74,12,2.67Z"/><polygon class="cls-118" points="152.22 93.97 125.36 93.97 115.36 70 162.22 70 152.22 93.97"/><polygon class="cls-119" points="179.12 90.71 103.37 90.71 81.58 170.26 200.91 170.26 179.12 90.71"/><polygon class="cls-1110" points="345.01 208.39 333.74 208.39 335.44 86.7 343.31 86.7 345.01 208.39"/><path class="cls-1111" d="M326.13,255.76a43.13,43.13,0,0,1,13.94,2.31c1.75-11.37,3.5-22.15,3.5-22.15,1.47-10.36,9.47-18.14,19.36-20.85a1.72,1.72,0,0,0,1.08-1.22l9-39.78c-1.18.41-65.9,11.43-66.51,13.4-4.49,13-13.62,26.51-29,25.92H224.72a1.69,1.69,0,0,0-1.61,1.16l-4.93,16.75a1.69,1.69,0,0,1-1.61,1.16H157a12.35,12.35,0,0,1-11.75-8.53c-2-7.67-6.65-14.57-13.9-18.09L42.53,161l-3.09,8.72s74.83,43.68,75.92,58.94c8.74,101.78,153.1,95.18,170.55,94.91,1.51,0,3-.1,4.42-.21a43.27,43.27,0,0,1,35.8-67.59Z"/><g class="wheel"><circle class="cls-1112" cx="326.36" cy="299.54" r="30.05"/><line class="cls-1112" x1="326.36" y1="259.91" x2="326.36" y2="339.17"/><line class="cls-1112" x1="365.99" y1="299.54" x2="286.73" y2="299.54"/><line class="cls-1112" x1="354.39" y1="271.51" x2="298.34" y2="327.56"/><line class="cls-1112" x1="354.39" y1="327.56" x2="298.34" y2="271.51"/><animateTransform attributeName="transform" attributeType="XML" type="rotate" from="0 326.36 299.54" to="360 326.36 299.54" begin="0s" dur="4s" repeatCount="indefinite" additive="sum" /></g><g class="cls-1113"><g class="cls-1114"><path class="cls-1115" d="M326.13,245.17c1.23,0,2.45.05,3.66.13,2.29-16.67,4.07-34.72,4.07-34.72H229.24l-8.17,33.78H174.75c0,50.86,11.44,71.92,99.53,71.37a54.36,54.36,0,0,1,51.85-70.56Z"/></g><circle class="cls-1116" cx="271.29" cy="247.93" r="2.9"/><circle class="cls-1116" cx="281.37" cy="241.09" r="2.9"/><circle class="cls-1116" cx="259.51" cy="253.66" r="2.72"/><line class="cls-1117" x1="257.57" y1="253.12" x2="289.45" y2="262.25"/><line class="cls-1118" x1="271.47" y1="248.18" x2="282.23" y2="271.33"/><line class="cls-1118" x1="281.28" y1="241.36" x2="284.41" y2="267.52"/></g><path class="cls-1120" d="M48.49,183.39s-1.76,5.12.91,6.59,6.54-1.15,10.31,1.09.44,12.21,15,18.11c18,7.32,21.13,7.87,25,10.58s1.61,6.46,4.32,13.7c6.69-3.1,4.35-13.77,4.35-13.77s8,4.39,13.74,1.46c-1.57-6.24-16.85-9.59-16.85-9.59s-6.88-2.17-11.14-7.21-9.29-10.43-15.72-14.13-12.21-5.09-12.94-9.3-3.89-8.48-7.63-7.83-9.24-3.21-9.24-3.21l-3.33,3s4.39,3.08,4.33,5.5A17.63,17.63,0,0,1,48.49,183.39Z"/><path class="cls-1120" d="M56.7,173.21s13.07-1.79,20,3.33,7.48,9.45,9.61,10.2c.69.24,3.86-.08,5.92,1.32s3.11,2.83,1.1,4.43-6-1-6-1a5,5,0,0,1,.17,2.68c-.39,1-1.89.16-2.72-1.19s-4.74-7.93-8.34-10.95-15.48-2.71-15.48-2.71"/><circle class="cls-1120" cx="43.68" cy="171.22" r="8.5"/><circle class="cls-1121" cx="36.52" cy="166.34" r="3.89"/><circle class="cls-1121" cx="40.6" cy="163.75" r="3.89"/><circle cx="40.6" cy="163.75" r="1"/><circle cx="35.08" cy="166.99" r="1"/><path class="cls-1122" d="M38,177.34a7.2,7.2,0,0,0,9.26-4.09"/><polygon class="cls-1123" points="187.25 123.39 181.98 104.15 138.63 123.3 100.18 103.16 94.85 122.63 137.9 145.18 187.25 123.39"/><polygon class="cls-1123" points="173.77 91.71 108.8 91.71 137.81 106.91 173.77 91.71"/><polygon class="cls-1123" points="192.26 141.67 138.78 164.16 90.57 138.27 85.22 157.79 106.41 169.17 177.76 169.17 197.52 160.86 192.26 141.67"/></g></g><g id="engineer" class="engineer" transform="scale(-0.3 0.3) translate(-990 770)"><g id="eye1"><ellipse stroke-width="3" ry="29.5" rx="29.5" id="svg_1" cy="154.5" cx="181.5" stroke="#000" fill="#fff"/><ellipse ry="3.5" rx="2.5" id="svg_3" cy="154.5" cx="173.5" stroke-width="3" stroke="#000" fill="#000000"/></g><g id="head"><ellipse fill="#b13f53" stroke-width="3" cx="204.5" cy="211.80065" id="svg_5" rx="50" ry="51.80065" stroke="#000"/></g><g id="eye2"><ellipse stroke-width="3" ry="29.5" rx="29.5" id="svg_2" cy="168.5" cx="209.5" stroke="#000" fill="#fff"/><ellipse ry="3.5" rx="3" id="svg_4" cy="169.5" cx="208" stroke-width="3" fill="#000000" stroke="#000"/></g><g class="mouth" transform="translate(32,0)"><path d="M 130 240 Q 165 250 190 235" stroke="black" stroke-width="3" fill="transparent"/></g><g class="mustache" transform="translate(140,195) scale(1.50 1.50)"><path fill="#408893" d="M21.455,13.025c-0.604-3.065-5.861-4.881-7.083-2.583c-1.22-2.299-6.477-0.483-7.081,2.583C6.501,16.229,2.321,17.11,0,15.439c0,3.622,3.901,3.669,6.315,3.9c5.718-0.25,7.525-2.889,8.057-4.093c0.532,1.205,2.34,3.843,8.058,4.093c2.416-0.231,6.315-0.278,6.315-3.9C26.423,17.11,22.244,16.229,21.455,13.025z"/></g></g></g></svg>
