<?xml version="1.0" encoding="UTF-8"?><svg xmlns="http://www.w3.org/2000/svg" viewBox="0 0 311.14 631.97"><defs><style>.cls-1,.cls-2,.cls-3,.cls-4,.cls-5{stroke-miterlimit:10;}.cls-1,.cls-5{stroke:#0d0d0d;}.cls-2{fill:#685c48;}.cls-2,.cls-3,.cls-4{stroke:#231f20;}.cls-3{fill:#e5d67f;}.cls-4{fill:#fee78a;}.cls-5{fill:#fff;}</style></defs><g id="rightleg"><path class="cls-3" d="M82.09,441.46v87.92l-42.75-7.99s-9.92,13.32,0,15.99,42.75,8.88,42.75,8.88l-42.75,35.52s-4.85,18.65,4.45,13.32c9.3-5.33,45.41-39.08,45.41-39.08l33.37,40.03s13.68,12.36,8.75-9.84-36.66-54.17-36.66-54.17l-1.64-121.67s-9.85-21.31-12.04-1.78,1.09,32.86,1.09,32.86Z"/><path class="cls-2" d="M72.44,341.87s-21.69,82.63,11.23,109.82c0,0,24.31,30.59,59.12-78.37l-70.35-31.45Z"/></g><g id="tailfeathers"><path class="cls-2" d="M227.55,230.56s52.14-55.13,77.62-24.25c0,0-25.37-2.23-44.02,17.76,0,0,32.43-22.99,44.02-10.34,0,0-42.1,18.06-38.81,27.33,0,0,41.9-25.48,44.22-7.72,0,0-38.24,4.75-41.51,17.05,0,0,33.02-14.61,33.79,0,0,0-31.09,2.17-33.79,16.16s-16.4,10.81-16.4,10.81l-25.11-46.8h0"/></g><g id="body"><path class="cls-2" d="M108.57,14.34s45.49-35.34,58.26,32.01c0,0-11.38,47.29-30.11,62.91,0,0-39.84,76.17-7.22,104.21,0,0,9.09,67.43-36.54,50.95,0,0-47.73-60.81,5.48-156.49L108.57,14.34Z"/><path class="cls-2" d="M87.47,227.59s142.35-84.51,191.59,76.88c0,0,3.36,113.8-178.87,108.88,0,0-82.38-53.83-45.86-134.97,0,0,17.73-51.63,33.15-50.79Z"/></g><g id="leftleg"><path class="cls-3" d="M171.07,473.44v87.92l-42.75-7.99s-9.92,13.32,0,15.99,42.75,8.88,42.75,8.88l-42.75,35.52s-4.85,18.65,4.45,13.32c9.3-5.33,45.41-39.08,45.41-39.08l33.37,40.03s13.68,12.36,8.75-9.84-36.66-54.17-36.66-54.17l-1.64-121.67s-9.85-21.31-12.04-1.78,1.09,32.86,1.09,32.86Z"/><path class="cls-2" d="M128.32,386.05s6.67,88.07,44.37,89.68c0,0,31.14,10.5,27.85-109.88l-72.22,20.2Z"/></g><g id="righteye"><g><circle class="cls-5" cx="103.12" cy="21.31" r="20.81"/><circle class="cls-1" cx="98.71" cy="22.1" r="1.49"/></g></g><g id="bottomjaw"><path class="cls-4" d="M114.48,103.35s-69.13-.24-84.89-12.11c0,0-.88-6.71,8.7-6.6l54.93-14.06s36.52,20.16,22.34,29.64"/></g><g id="beak"><circle class="cls-4" cx="122.85" cy="59.64" r="35.42"/><path class="cls-4" d="M96.69,35.76s-41.32,22.87-58.78,20.93c0,0-23.8-25.52-34.77-.81,0,0-6.67,20.44,1.18,29.55l4.79,.7s22.88-6.44,35.21-4.63c0,0,40.46-.57,45.1-10.11"/></g><g id="lefteye"><g><circle class="cls-5" cx="123.67" cy="34.36" r="20.81"/><circle class="cls-1" cx="119.26" cy="35.15" r="1.49"/></g></g></svg>