<?xml version="1.0" encoding="UTF-8"?><svg xmlns="http://www.w3.org/2000/svg" viewBox="0 0 372.75 504.39"><defs><style>.cls-1,.cls-2,.cls-3,.cls-4,.cls-5{stroke-miterlimit:10;}.cls-1,.cls-5{stroke:#0d0d0d;}.cls-2{fill:#685c48;}.cls-2,.cls-3,.cls-4{stroke:#231f20;}.cls-3{fill:#e5d67f;}.cls-4{fill:#fee78a;}.cls-5{fill:#fff;}</style></defs><g id="rightleg"><path class="cls-3" d="M143.7,386.83v54.16l-42.75-4.92s-9.92,8.21,0,9.85,42.75,5.47,42.75,5.47l-42.75,21.88s-4.85,11.49,4.45,8.21,45.41-24.07,45.41-24.07l33.37,24.66s13.68,7.62,8.75-6.06-36.66-33.37-36.66-33.37l-1.64-74.95s-9.85-13.13-12.04-1.09,1.09,20.24,1.09,20.24Z"/><path class="cls-2" d="M134.05,321.9s-21.69,55.95,11.23,74.37c0,0,24.31,20.71,59.12-53.07l-70.35-21.3Z"/></g><g id="tailfeathers"><path class="cls-2" d="M289.16,210.59s52.14-55.13,77.62-24.25c0,0-25.37-2.23-44.02,17.76,0,0,32.43-22.99,44.02-10.34,0,0-42.1,18.06-38.81,27.33,0,0,41.9-25.48,44.22-7.72,0,0-38.24,4.75-41.51,17.05,0,0,33.02-14.61,33.79,0,0,0-31.09,2.17-33.79,16.16s-16.4,10.81-16.4,10.81l-25.11-46.8h0"/></g><g id="body"><path class="cls-2" d="M99.51,13.63s39.88-41.56,62.29,23.23c0,0-4.41,48.44-20.67,66.61,0,0-28.38,81.14,7.96,104.16,0,0,18.77,65.4-28.76,55.71,0,0-56.04-53.25-17.26-155.63l-3.55-94.08Z"/><path class="cls-2" d="M149.08,207.62s142.35-84.51,191.59,76.88c0,0,3.36,113.8-178.87,108.88,0,0-82.38-53.83-45.86-134.97,0,0,17.73-51.63,33.15-50.79Z"/></g><g id="leftleg"><path class="cls-3" d="M232.68,406.53v54.16l-42.75-4.92s-9.92,8.21,0,9.85,42.75,5.47,42.75,5.47l-42.75,21.88s-4.85,11.49,4.45,8.21,45.41-24.07,45.41-24.07l33.37,24.66s13.68,7.62,8.75-6.06-36.66-33.37-36.66-33.37l-1.64-74.95s-9.85-13.13-12.04-1.09,1.09,20.24,1.09,20.24Z"/><path class="cls-2" d="M189.93,351.82s6.67,59.64,44.37,60.73c0,0,31.14,7.11,27.85-74.41l-72.22,13.68Z"/></g><g id="righteye"><g><circle class="cls-5" cx="95.13" cy="21.31" r="20.81"/><circle class="cls-1" cx="90.88" cy="22.72" r="1.49"/></g></g><g id="bottomjaw"><path class="cls-4" d="M118.26,100.84s-68.44,9.78-85.74,.32c0,0-1.84-6.51,7.65-7.79l52.31-21.87s39.06,14.66,26.4,26.09"/></g><g id="beak"><circle class="cls-4" cx="120.21" cy="56.38" r="35.42"/><path class="cls-4" d="M90.86,36.54s-37.56,28.62-55.12,29.23c0,0-27.25-21.8-34.52,4.24,0,0-3.63,21.19,5.45,29.07h4.84s21.71-9.69,34.17-9.69c0,0,39.94-6.43,43.16-16.54"/></g><g id="lefteye"><g><circle class="cls-5" cx="117.35" cy="31.25" r="20.81"/><circle class="cls-1" cx="113.1" cy="32.66" r="1.49"/></g></g></svg>